<svg width="52.000000" height="38.952797" viewBox="0 0 52 38.9528" fill="none" xmlns="http://www.w3.org/2000/svg" xmlns:xlink="http://www.w3.org/1999/xlink">
	<desc>
			Created with Pixso.
	</desc>
	<defs/>
	<path id="Vector" d="M32.3 0C32.74 0.82 33.17 1.65 33.58 2.49C33.87 3.08 34.17 3.67 34.49 4.25C34.66 4.57 34.82 4.89 34.98 5.21C35.27 5.8 35.57 6.39 35.88 6.97C35.9 7.02 35.93 7.07 35.95 7.12C36.27 7.73 36.59 8.35 36.92 8.96C37.14 9.37 37.36 9.79 37.54 10.23C37.65 10.49 37.65 10.49 37.82 10.72C37.97 10.95 38.01 11.12 38.03 11.39C38.08 11.39 38.13 11.39 38.18 11.39C38.21 11.44 38.23 11.49 38.26 11.54C38.38 11.76 38.49 11.98 38.61 12.21C38.65 12.28 38.69 12.36 38.73 12.44C38.96 12.88 39.2 13.33 39.45 13.77C39.6 14.07 39.69 14.39 39.77 14.71C39.82 14.71 39.87 14.71 39.92 14.71C39.95 14.77 39.98 14.83 40 14.88C40.11 15.1 40.22 15.31 40.32 15.52C40.39 15.66 40.46 15.79 40.53 15.93C40.79 16.46 40.79 16.46 41.07 16.97C41.21 17.22 41.32 17.47 41.43 17.73C41.52 17.9 41.61 18.06 41.71 18.22C41.93 18.6 42.14 18.99 42.33 19.38C42.53 19.8 42.75 20.2 42.98 20.6C43.28 21.14 43.56 21.68 43.83 22.24C44 22.58 44.17 22.92 44.34 23.26C44.38 23.34 44.42 23.41 44.45 23.48C44.69 23.96 44.94 24.43 45.2 24.9C45.43 25.32 45.43 25.32 45.43 25.58C45.48 25.58 45.53 25.58 45.58 25.58C45.6 25.63 45.63 25.67 45.65 25.72C45.75 25.93 45.86 26.15 45.97 26.36C46 26.44 46.04 26.51 46.08 26.59C46.27 26.97 46.46 27.35 46.67 27.72C46.86 28.05 46.98 28.38 47.09 28.75C47.14 28.75 47.19 28.75 47.24 28.75C47.29 28.85 47.29 28.85 47.34 28.96C47.89 30.07 48.46 31.17 49.07 32.25C49.31 32.68 49.55 33.13 49.78 33.58C49.8 33.63 49.83 33.68 49.86 33.73C49.97 33.95 50.03 34.09 50.03 34.34C50.08 34.34 50.13 34.34 50.18 34.34C50.23 34.42 50.27 34.5 50.31 34.59C50.37 34.7 50.42 34.81 50.48 34.93C50.5 34.98 50.53 35.04 50.56 35.09C50.59 35.15 50.61 35.2 50.64 35.26C50.68 35.33 50.68 35.33 50.71 35.41C50.79 35.56 50.79 35.56 50.94 35.77C50.94 35.87 50.94 35.97 50.94 36.07C50.99 36.07 51.04 36.07 51.09 36.07C51.16 36.2 51.24 36.33 51.31 36.46C51.35 36.53 51.39 36.6 51.44 36.68C51.54 36.91 51.59 37.1 51.62 37.35C51.67 37.35 51.72 37.35 51.77 37.35C52 37.78 52 37.78 52 38.03C51.36 38.05 50.73 38.06 50.1 38.07C49.81 38.08 49.51 38.08 49.22 38.09C48.94 38.1 48.65 38.1 48.37 38.11C48.26 38.11 48.15 38.11 48.05 38.11C47.71 38.13 47.41 38.13 47.09 38.03C46.86 37.81 46.75 37.57 46.64 37.28C46.59 37.19 46.55 37.1 46.51 37.01C46.47 36.93 46.44 36.86 46.41 36.78C46.26 36.45 46.1 36.14 45.9 35.84C45.79 35.67 45.72 35.49 45.65 35.31C45.53 35.05 45.38 34.81 45.24 34.56C45.03 34.19 44.84 33.83 44.67 33.43C44.56 33.2 44.44 32.97 44.32 32.74C44.15 32.39 44.15 32.39 44.15 32.22C44.1 32.22 44.05 32.22 44 32.22C43.96 32.14 43.93 32.06 43.9 31.98C43.83 31.81 43.76 31.69 43.66 31.54C43.53 31.38 43.46 31.2 43.38 31.01C43.27 30.76 43.15 30.52 43.03 30.28C43 30.23 42.98 30.18 42.96 30.13C42.73 29.69 42.5 29.26 42.26 28.83C40.79 28.83 39.32 28.83 37.81 28.83C37.7 29.13 37.7 29.13 37.86 29.38C37.89 29.42 37.91 29.46 37.94 29.5C38.03 29.66 38.03 29.66 38.13 29.89C38.29 30.28 38.5 30.64 38.71 31.01C38.94 31.44 39.18 31.87 39.4 32.31C39.52 32.55 39.65 32.8 39.78 33.04C39.81 33.1 39.84 33.16 39.87 33.22C40.07 33.6 40.27 33.97 40.47 34.35C40.56 34.52 40.65 34.69 40.74 34.86C40.86 35.09 40.98 35.32 41.1 35.54C41.37 36.04 41.63 36.55 41.88 37.06C42 37.29 42.14 37.51 42.27 37.73C42.35 37.92 42.31 38 42.26 38.18C41.66 38.21 41.06 38.22 40.46 38.23C40.18 38.24 39.9 38.24 39.62 38.25C39.35 38.26 39.08 38.27 38.81 38.27C38.71 38.27 38.6 38.28 38.5 38.28C38.18 38.3 37.89 38.29 37.58 38.18C37.33 37.91 37.19 37.62 37.05 37.28C37 37.17 36.94 37.06 36.88 36.95C36.83 36.86 36.79 36.76 36.74 36.67C36.71 36.61 36.69 36.56 36.66 36.51C36.59 36.36 36.52 36.22 36.45 36.07C36.18 35.53 35.91 35 35.63 34.48C35.33 33.92 35.04 33.35 34.75 32.79C34.47 32.27 34.2 31.74 33.92 31.22C33.69 30.79 33.47 30.35 33.25 29.9C33.19 29.77 33.12 29.64 33.05 29.51C32.99 29.39 32.99 29.39 32.93 29.26C32.77 29.02 32.77 29.02 32.48 29.01C32.36 29.01 32.25 29.01 32.14 29.02C32.07 29.02 32.01 29.03 31.95 29.03C31.81 29.03 31.67 29.04 31.53 29.04C31.24 29.06 30.95 29.06 30.66 29.06C30.41 29.07 30.16 29.07 29.91 29.08C27.34 29.12 24.76 29.15 22.19 29.17C22.09 29.17 22 29.17 21.91 29.17C20.74 29.18 19.58 29.19 18.41 29.2C18.39 29.25 18.38 29.3 18.36 29.34C18.34 29.41 18.32 29.47 18.3 29.53C18.28 29.59 18.26 29.65 18.24 29.71C18.18 29.89 18.11 30.07 18.03 30.24C18 30.3 17.98 30.36 17.95 30.43C17.92 30.49 17.89 30.55 17.86 30.61C17.83 30.68 17.8 30.75 17.77 30.81C17.56 31.27 17.34 31.72 17.12 32.16C16.94 32.53 16.77 32.9 16.6 33.27C16.35 33.83 16.09 34.38 15.81 34.93C15.66 35.23 15.52 35.53 15.39 35.84C15.27 36.11 15.14 36.38 15.01 36.65C14.8 37.09 14.6 37.53 14.43 37.99C14.4 38.08 14.37 38.17 14.33 38.26C14.28 38.26 14.24 38.26 14.18 38.26C14.13 38.41 14.08 38.56 14.03 38.71C12.54 38.71 11.04 38.71 9.5 38.71C9.59 38.2 9.59 38.2 9.7 37.97C9.72 37.92 9.75 37.87 9.77 37.81C9.81 37.73 9.81 37.73 9.85 37.65C9.88 37.6 9.91 37.54 9.93 37.48C10.14 37.05 10.37 36.63 10.6 36.21C10.73 35.97 10.83 35.72 10.93 35.46C11.11 35 11.33 34.56 11.54 34.12C11.66 33.87 11.78 33.61 11.9 33.36C12.07 32.99 12.25 32.62 12.44 32.25C12.56 32 12.68 31.74 12.79 31.48C12.95 31.13 13.12 30.77 13.29 30.42C13.41 30.17 13.52 29.93 13.63 29.68C13.71 29.48 13.8 29.29 13.9 29.1C14.08 28.75 14.24 28.38 14.4 28.02C14.67 27.4 14.95 26.79 15.24 26.18C15.29 26.08 15.34 25.97 15.39 25.87C15.47 25.71 15.54 25.54 15.62 25.38C15.78 25.03 15.95 24.68 16.11 24.34C16.3 23.93 16.48 23.53 16.67 23.13C16.87 22.72 17.06 22.31 17.25 21.9C17.27 21.86 17.29 21.81 17.31 21.76C17.49 21.38 17.67 20.99 17.85 20.61C17.93 20.42 18.02 20.24 18.12 20.06C18.14 20 18.17 19.95 18.2 19.89C18.22 19.85 18.24 19.81 18.26 19.77C19.27 19.7 20.27 19.68 21.29 19.69C21.43 19.69 21.58 19.69 21.73 19.69C22.08 19.69 22.43 19.69 22.79 19.69C22.79 20 22.79 20.2 22.64 20.48C22.6 20.54 22.57 20.61 22.53 20.67C22.49 20.75 22.45 20.82 22.41 20.9C22.31 21.1 22.21 21.29 22.11 21.49C22.09 21.54 22.06 21.59 22.03 21.64C21.83 22.06 21.64 22.48 21.46 22.91C21.32 23.24 21.16 23.56 20.99 23.87C20.9 24.07 20.86 24.24 20.83 24.45C20.91 24.45 20.91 24.45 21 24.44C21.79 24.42 22.58 24.4 23.37 24.38C23.47 24.38 23.47 24.38 23.57 24.38C25.34 24.33 27.11 24.29 28.88 24.26C28.97 24.26 29.05 24.25 29.14 24.25C29.97 24.24 30.81 24.22 31.64 24.2C31.95 24.2 32.27 24.19 32.58 24.19C32.72 24.18 32.87 24.18 33.01 24.18C33.86 24.16 34.7 24.14 35.54 24.1C36.05 24.07 36.56 24.06 37.07 24.05C37.15 24.05 37.22 24.04 37.3 24.04C37.53 24.04 37.76 24.03 37.99 24.03C38.15 24.03 38.31 24.02 38.47 24.02C38.85 24.01 39.23 24 39.62 24C39.43 23.44 39.2 22.91 38.93 22.38C38.9 22.32 38.87 22.25 38.83 22.19C38.68 21.88 38.51 21.58 38.33 21.28C38.21 21.04 38.09 20.8 37.97 20.56C37.83 20.26 37.67 19.96 37.51 19.67C37.28 19.24 37.06 18.81 36.84 18.37C36.51 17.7 36.17 17.03 35.81 16.36C35.67 16.09 35.53 15.82 35.39 15.55C34.92 14.65 34.92 14.65 34.42 13.76C34.18 13.37 34.01 12.97 33.84 12.55C33.72 12.26 33.56 12.01 33.4 11.75C33.25 11.5 33.13 11.25 33 11C32.74 10.47 32.47 9.94 32.2 9.42C32.16 9.34 32.12 9.27 32.08 9.19C32.02 9.08 32.02 9.08 31.97 8.97C31.93 8.91 31.9 8.85 31.87 8.78C31.76 8.59 31.65 8.41 31.54 8.22C31.46 8.07 31.39 7.91 31.31 7.76C31.09 7.3 30.85 6.85 30.62 6.4C30.57 6.31 30.57 6.31 30.52 6.21C30.49 6.16 30.46 6.1 30.43 6.04C30.4 5.99 30.37 5.93 30.35 5.88C30.26 5.73 30.26 5.73 30.14 5.58C30.02 5.41 29.95 5.24 29.87 5.05C29.52 4.21 29.1 3.39 28.67 2.59C28.64 2.53 28.61 2.47 28.58 2.41C28.55 2.35 28.52 2.29 28.48 2.23C28.29 1.87 28.1 1.5 27.91 1.14C27.88 1.08 27.85 1.03 27.82 0.97C27.79 0.91 27.77 0.86 27.74 0.81C27.72 0.76 27.69 0.72 27.67 0.67C27.61 0.49 27.61 0.34 27.62 0.15C28.2 0.13 28.78 0.1 29.36 0.08C29.56 0.07 29.76 0.07 29.96 0.06C30.24 0.05 30.52 0.04 30.81 0.03C30.94 0.02 30.94 0.02 31.08 0.02C31.48 0 31.89 -0.01 32.3 0Z" fill="#FFFFFF" fill-opacity="1.000000" fill-rule="nonzero"/>
	<path id="Vector" d="M21.15 0.29C21.3 0.29 21.45 0.29 21.61 0.29C21.97 0.29 22.34 0.3 22.71 0.3C22.74 0.36 22.77 0.42 22.8 0.48C22.84 0.56 22.88 0.64 22.92 0.73C22.96 0.81 23 0.89 23.04 0.97C23.16 1.2 23.16 1.2 23.29 1.41C23.41 1.61 23.44 1.8 23.47 2.03C23.52 2.03 23.57 2.03 23.62 2.03C23.65 2.09 23.67 2.14 23.7 2.2C23.8 2.41 23.91 2.62 24.01 2.83C24.08 2.96 24.14 3.09 24.21 3.23C24.45 3.7 24.69 4.16 24.94 4.63C25.13 4.96 25.3 5.3 25.48 5.64C25.56 5.79 25.63 5.94 25.71 6.09C25.75 6.17 25.79 6.25 25.83 6.33C25.96 6.56 26.08 6.8 26.2 7.03C26.26 7.15 26.26 7.15 26.33 7.27C26.4 7.41 26.48 7.56 26.55 7.7C26.72 8.03 26.89 8.35 27.05 8.68C27.23 9.03 27.42 9.37 27.61 9.71C27.88 10.2 28.14 10.69 28.39 11.19C28.57 11.57 28.77 11.93 28.96 12.3C29.2 12.75 29.43 13.2 29.66 13.64C30.08 14.46 30.51 15.27 30.95 16.07C31.14 16.41 31.31 16.76 31.47 17.13C31.58 17.35 31.71 17.58 31.83 17.8C32.03 18.14 32.03 18.14 32.12 18.31C32.19 18.43 32.26 18.55 32.34 18.67C32.39 18.76 32.39 18.76 32.44 18.85C32.48 18.9 32.51 18.96 32.54 19.01C32.56 19.06 32.58 19.11 32.6 19.17C32.55 19.27 32.5 19.36 32.45 19.47C30.93 19.47 29.41 19.47 27.84 19.47C27.17 18.29 27.17 18.29 26.96 17.85C26.7 17.33 26.44 16.82 26.17 16.31C26.14 16.24 26.1 16.17 26.06 16.1C25.88 15.74 25.69 15.39 25.5 15.04C25.31 14.7 25.14 14.36 24.97 14.02C24.94 13.97 24.92 13.92 24.89 13.87C24.79 13.67 24.69 13.47 24.59 13.27C24.47 13.02 24.34 12.77 24.2 12.52C23.79 11.78 23.4 11.04 23.02 10.28C22.83 9.89 22.63 9.5 22.42 9.12C22.11 8.53 21.81 7.93 21.51 7.33C21.19 6.68 20.85 6.04 20.51 5.4C20.46 5.31 20.42 5.22 20.37 5.13C20.32 5.13 20.27 5.13 20.22 5.13C20.04 5.52 19.86 5.92 19.7 6.32C19.56 6.69 19.39 7.03 19.21 7.38C19.08 7.63 18.97 7.88 18.87 8.14C18.72 8.53 18.53 8.9 18.34 9.27C18.14 9.67 17.95 10.06 17.77 10.46C17.69 10.64 17.6 10.82 17.52 11C17.3 11.47 17.09 11.94 16.9 12.43C16.8 12.67 16.67 12.9 16.55 13.14C16.42 13.4 16.31 13.68 16.19 13.95C16 14.39 15.79 14.83 15.57 15.26C15.45 15.5 15.35 15.75 15.24 16C15.16 16.18 15.07 16.36 14.99 16.54C14.97 16.59 14.94 16.64 14.92 16.69C14.74 17.07 14.55 17.45 14.36 17.82C14.27 18.02 14.18 18.21 14.1 18.41C13.94 18.77 13.77 19.11 13.6 19.46C13.47 19.74 13.35 20.01 13.24 20.3C13.14 20.59 13 20.84 12.84 21.11C12.69 21.39 12.58 21.68 12.46 21.97C12.24 22.5 12.01 23 11.75 23.51C11.64 23.72 11.54 23.93 11.44 24.15C11.18 24.73 10.9 25.3 10.62 25.87C10.39 26.36 10.17 26.84 9.97 27.34C9.88 27.54 9.79 27.74 9.69 27.93C9.56 28.17 9.46 28.41 9.36 28.67C9.21 29.04 9.04 29.39 8.85 29.75C8.77 29.91 8.7 30.07 8.63 30.24C8.53 30.48 8.41 30.71 8.29 30.94C8.22 31.09 8.22 31.09 8.15 31.27C8.03 31.57 7.88 31.85 7.73 32.14C7.64 32.34 7.55 32.54 7.46 32.74C7.31 33.1 7.15 33.44 6.99 33.79C6.95 33.87 6.91 33.95 6.88 34.03C6.66 34.51 6.43 34.99 6.18 35.47C6.16 35.52 6.13 35.57 6.11 35.62C6.07 35.68 6.07 35.68 6.04 35.75C5.81 36.2 5.6 36.65 5.43 37.13C5.36 37.29 5.29 37.45 5.22 37.61C5.06 37.95 4.92 38.3 4.77 38.65C4.67 38.86 4.67 38.86 4.6 38.94C4.46 38.95 4.31 38.95 4.17 38.95C4.08 38.95 3.98 38.95 3.89 38.95C3.79 38.95 3.69 38.95 3.58 38.95C3.48 38.95 3.38 38.95 3.28 38.95C3 38.95 2.73 38.95 2.46 38.94C2.18 38.94 1.91 38.94 1.63 38.94C1.08 38.94 0.54 38.94 0 38.94C0.06 38.67 0.15 38.45 0.27 38.2C0.34 38.08 0.34 38.08 0.4 37.95C0.43 37.88 0.43 37.88 0.47 37.81C0.86 37.01 1.23 36.21 1.58 35.39C1.63 35.39 1.68 35.39 1.73 35.39C1.74 35.33 1.74 35.27 1.75 35.21C1.83 34.85 1.98 34.55 2.14 34.22C2.17 34.15 2.2 34.09 2.23 34.03C2.35 33.78 2.47 33.53 2.61 33.3C2.76 33.04 2.84 32.77 2.93 32.5C3.01 32.3 3.11 32.16 3.24 32C3.31 31.84 3.31 31.84 3.37 31.67C3.67 30.91 4.02 30.18 4.42 29.47C4.55 29.22 4.65 28.96 4.76 28.7C4.82 28.54 4.89 28.4 4.98 28.26C5.09 28.07 5.18 27.87 5.26 27.66C5.4 27.31 5.56 26.97 5.73 26.64C5.93 26.25 6.11 25.86 6.26 25.46C6.38 25.18 6.53 24.92 6.68 24.65C6.81 24.41 6.91 24.15 7.01 23.89C7.1 23.68 7.2 23.48 7.3 23.28C7.48 22.92 7.64 22.55 7.8 22.18C8.16 21.37 8.53 20.56 8.91 19.76C9 19.56 9.09 19.37 9.18 19.17C9.36 18.78 9.55 18.39 9.75 18.01C9.87 17.76 9.99 17.5 10.09 17.24C10.31 16.67 10.59 16.12 10.85 15.57C10.98 15.31 11.1 15.05 11.22 14.79C11.41 14.39 11.6 13.98 11.81 13.59C11.9 13.39 11.98 13.2 12.06 13C12.22 12.59 12.41 12.2 12.6 11.8C12.78 11.42 12.96 11.05 13.13 10.66C13.23 10.45 13.32 10.24 13.43 10.03C13.59 9.72 13.73 9.4 13.87 9.08C14.06 8.65 14.25 8.23 14.47 7.81C14.61 7.52 14.75 7.25 14.86 6.95C15.01 6.55 15.2 6.18 15.4 5.8C15.57 5.47 15.71 5.13 15.84 4.78C15.97 4.48 16.12 4.2 16.26 3.92C16.36 3.72 16.44 3.52 16.52 3.32C16.66 2.95 16.84 2.61 17.02 2.26C17.14 2 17.25 1.74 17.35 1.48C17.5 1.1 17.7 0.74 17.88 0.37C18.97 0.31 20.06 0.29 21.15 0.29Z" fill="#FFF7F7" fill-opacity="1.000000" fill-rule="nonzero"/>
	<path id="Vector" d="M17.05 22.26C17.05 22.54 16.95 22.7 16.83 22.94C16.75 22.91 16.68 22.89 16.6 22.86C16.61 22.65 16.61 22.65 16.67 22.41C16.87 22.31 16.87 22.31 17.05 22.26Z" fill="#CDCBBE" fill-opacity="1.000000" fill-rule="nonzero"/>
</svg>
