<svg width="15.000000" height="19.000000" viewBox="0 0 15 19" fill="none" xmlns="http://www.w3.org/2000/svg" xmlns:xlink="http://www.w3.org/1999/xlink">
	<desc>
			Created with Pixso.
	</desc>
	<defs/>
	<path id="Shape" d="M0 6.83105C0 3.05444 3.35352 0 7.5 0C11.6465 0 15 3.05444 15 6.83105C15 10.9004 10.2646 16.5116 8.3252 18.6487C7.89648 19.1171 7.11426 19.1171 6.68555 18.6487C4.73535 16.5116 0 10.9004 0 6.83105ZM4.82129 6.83105C4.82129 8.17773 6.02148 9.27063 7.5 9.27063C8.97852 9.27063 10.1787 8.17773 10.1787 6.83105C10.1787 5.48438 8.97852 4.39136 7.5 4.39136C6.02148 4.39136 4.82129 5.48438 4.82129 6.83105Z" clip-rule="evenodd" fill="#157A75" fill-opacity="1.000000" fill-rule="evenodd"/>
</svg>
