<svg width="22.260742" height="21.000000" viewBox="0 0 22.2607 21" fill="none" xmlns="http://www.w3.org/2000/svg" xmlns:xlink="http://www.w3.org/1999/xlink">
	<desc>
			Created with Pixso.
	</desc>
	<defs/>
	<path id="Path" d="M20.08 14.32L16.93 13.98C16.17 13.89 15.43 14.14 14.9 14.64L12.62 16.79C9.11 15.11 6.23 12.41 4.45 9.09L6.74 6.93C7.27 6.42 7.53 5.72 7.45 5.01L7.09 2.06C6.94 0.88 5.89 0 4.62 0L2.48 0C1.08 0 -0.09 1.09 0 2.41C0.66 12.4 9.12 20.37 19.69 20.99C21.09 21.07 22.26 19.97 22.26 18.65L22.26 16.63C22.27 15.45 21.33 14.46 20.08 14.32Z" fill="#157A75" fill-opacity="1.000000" fill-rule="evenodd"/>
</svg>
