<svg width="18.039062" height="18.038696" viewBox="0 0 18.0391 18.0387" fill="none" xmlns="http://www.w3.org/2000/svg" xmlns:xlink="http://www.w3.org/1999/xlink">
	<desc>
			Created with Pixso.
	</desc>
	<defs/>
	<path id="Vector" d="M5.24 0C5.33 0 5.42 0 5.51 0C5.73 -0.01 5.96 -0.01 6.18 0C6.36 0 6.54 0 6.72 0C6.76 0 6.76 0 6.8 0C6.85 0 6.9 0 6.95 0C7.45 0 7.94 0 8.43 0C8.85 0 9.27 0 9.69 0C10.17 0 10.66 0 11.15 0C11.21 0 11.26 0 11.31 0C11.34 0 11.36 0 11.39 0C11.57 0 11.75 0 11.93 0C12.17 -0.01 12.41 0 12.66 0C12.75 0 12.83 0 12.92 0C14.35 -0.01 15.6 0.43 16.63 1.44C17.58 2.39 18.03 3.65 18.03 4.98C18.03 5.07 18.03 5.15 18.03 5.24C18.03 5.33 18.03 5.42 18.03 5.51C18.03 5.73 18.03 5.96 18.03 6.18C18.03 6.36 18.03 6.54 18.03 6.72C18.03 6.74 18.03 6.77 18.03 6.8C18.03 6.85 18.03 6.9 18.03 6.95C18.03 7.45 18.03 7.94 18.03 8.43C18.03 8.85 18.03 9.27 18.03 9.69C18.03 10.17 18.03 10.66 18.03 11.15C18.03 11.21 18.03 11.26 18.03 11.31C18.03 11.34 18.03 11.36 18.03 11.39C18.03 11.57 18.03 11.75 18.03 11.93C18.03 12.17 18.03 12.41 18.03 12.66C18.03 12.74 18.03 12.83 18.03 12.92C18.04 14.35 17.6 15.6 16.59 16.63C15.64 17.58 14.38 18.03 13.05 18.03C12.96 18.03 12.88 18.03 12.79 18.03C12.7 18.03 12.61 18.03 12.52 18.03C12.29 18.03 12.07 18.03 11.85 18.03C11.67 18.03 11.49 18.03 11.31 18.03C11.27 18.03 11.27 18.03 11.23 18.03C11.18 18.03 11.13 18.03 11.07 18.03C10.58 18.03 10.09 18.03 9.6 18.03C9.18 18.03 8.76 18.03 8.34 18.03C7.85 18.03 7.37 18.03 6.88 18.03C6.82 18.03 6.77 18.03 6.72 18.03C6.69 18.03 6.67 18.03 6.64 18.03C6.46 18.03 6.28 18.03 6.1 18.03C5.86 18.03 5.62 18.03 5.37 18.03C5.28 18.03 5.2 18.03 5.11 18.03C3.68 18.04 2.43 17.6 1.4 16.59C0.45 15.64 0 14.38 0 13.05C0 12.96 0 12.88 0 12.79C0 12.7 0 12.61 0 12.52C0 12.29 0 12.07 0 11.85C0 11.67 0 11.49 0 11.31C0 11.28 0 11.26 0 11.23C0 11.18 0 11.13 0 11.07C0 10.58 0 10.09 0 9.6C0 9.18 0 8.76 0 8.34C0 7.85 0 7.37 0 6.88C0 6.82 0 6.77 0 6.72C0 6.69 0 6.67 0 6.64C0 6.46 0 6.28 0 6.1C0 5.86 0 5.62 0 5.37C0 5.28 0 5.2 0 5.11C-0.01 3.68 0.43 2.43 1.44 1.4C2.48 0.36 3.8 -0.01 5.24 0ZM12.9 2.92C12.65 3.29 12.6 3.66 12.64 4.09C12.72 4.51 12.99 4.81 13.33 5.05C13.65 5.24 14 5.26 14.36 5.22C14.73 5.12 15.04 4.9 15.26 4.59C15.47 4.23 15.54 3.86 15.46 3.45C15.35 3.08 15.13 2.77 14.8 2.56C14.14 2.2 13.39 2.34 12.9 2.92ZM7.75 4.27C7.71 4.28 7.71 4.28 7.67 4.29C6.41 4.63 5.38 5.49 4.74 6.61C4.53 6.97 4.38 7.34 4.27 7.75C4.26 7.79 4.26 7.79 4.25 7.83C4.03 8.6 4.05 9.51 4.27 10.28C4.28 10.31 4.28 10.33 4.29 10.36C4.63 11.61 5.49 12.65 6.61 13.29C6.98 13.5 7.34 13.65 7.75 13.76C7.77 13.77 7.8 13.78 7.83 13.78C8.6 14 9.51 13.98 10.28 13.76C10.32 13.75 10.32 13.75 10.36 13.74C11.61 13.39 12.65 12.54 13.29 11.42C13.5 11.05 13.65 10.68 13.76 10.28C13.77 10.25 13.78 10.23 13.78 10.2C14 9.43 13.98 8.52 13.76 7.75C13.75 7.71 13.75 7.71 13.74 7.67C13.4 6.41 12.54 5.38 11.42 4.74C11.05 4.53 10.68 4.38 10.28 4.27C10.24 4.26 10.24 4.26 10.2 4.25C9.43 4.03 8.52 4.05 7.75 4.27Z" fill="#14736E" fill-opacity="1.000000" fill-rule="nonzero"/>
</svg>
