<svg width="43.000000" height="43.000000" viewBox="0 0 43 43" fill="none" xmlns="http://www.w3.org/2000/svg" xmlns:xlink="http://www.w3.org/1999/xlink">
	<desc>
			Created with Pixso.
	</desc>
	<defs>
		<clipPath id="clip103_319">
			<rect id="Simplification" rx="0.000000" width="42.000000" height="42.000000" transform="translate(0.500000 0.500000)" fill="white" fill-opacity="0"/>
		</clipPath>
	</defs>
	<rect id="Simplification" rx="0.000000" width="42.000000" height="42.000000" transform="translate(0.500000 0.500000)" fill="#FFFFFF" fill-opacity="0"/>
	<g clip-path="url(#clip103_319)">
		<path id="Vector" d="M33.69 8.26C37.11 11.37 39.24 15.86 39.47 20.49C39.69 25.5 37.96 30.14 34.6 33.84C31.35 37.32 26.77 39.33 22.03 39.49C17.06 39.59 12.44 37.74 8.86 34.32C5.49 31.04 3.6 26.47 3.5 21.78C3.47 18.72 4.16 15.7 5.62 13.01C5.67 12.92 5.72 12.82 5.78 12.72C8.06 8.57 12.01 5.51 16.54 4.18C22.63 2.5 28.99 4.07 33.69 8.26ZM11.01 11.71C10.62 12.16 10.26 12.62 9.91 13.1C9.87 13.14 9.83 13.19 9.8 13.24C7.65 16.17 6.81 20.01 7.31 23.59C7.91 27.41 10 30.79 13.1 33.08C13.17 33.14 13.17 33.14 13.24 33.19C16.16 35.34 20.07 36.21 23.64 35.68C27.45 35.05 30.8 32.98 33.08 29.89C33.14 29.82 33.14 29.82 33.19 29.75C35.34 26.82 36.18 22.98 35.68 19.4C35.08 15.58 32.99 12.2 29.89 9.91C29.85 9.87 29.8 9.83 29.75 9.8C23.99 5.56 15.88 6.71 11.01 11.71Z" fill="#157A75" fill-opacity="1.000000" fill-rule="nonzero"/>
		<path id="Vector" d="M22.73 9.3C23.11 9.67 23.33 10.11 23.35 10.64C23.35 10.77 23.35 10.77 23.35 10.9C23.35 11.04 23.35 11.04 23.35 11.18C23.35 11.33 23.35 11.33 23.35 11.48C23.35 11.58 23.35 11.68 23.35 11.78C23.35 12.02 23.34 12.27 23.34 12.51C23.43 12.51 23.52 12.51 23.62 12.5C23.96 12.5 24.29 12.49 24.63 12.49C24.78 12.49 24.93 12.49 25.07 12.48C25.28 12.48 25.49 12.48 25.71 12.48C25.77 12.47 25.83 12.47 25.9 12.47C26.45 12.47 26.88 12.63 27.29 12.99C27.33 13.04 27.37 13.09 27.41 13.13C27.46 13.2 27.46 13.2 27.52 13.27C27.83 13.75 27.87 14.22 27.79 14.78C27.6 15.37 27.33 15.73 26.79 16.04C26.48 16.14 26.2 16.13 25.89 16.13C25.82 16.13 25.75 16.13 25.69 16.13C25.54 16.14 25.4 16.14 25.26 16.14C25.03 16.14 24.8 16.14 24.58 16.14C23.93 16.15 23.29 16.15 22.64 16.15C22.24 16.16 21.85 16.16 21.45 16.16C21.3 16.16 21.15 16.16 21 16.16C19.74 16.16 19.74 16.16 18.57 16.6C18.21 16.98 18.03 17.36 18.01 17.88C18.03 18.37 18.18 18.75 18.51 19.1C18.89 19.44 19.25 19.58 19.76 19.59C19.89 19.59 19.89 19.59 20.02 19.59C20.11 19.59 20.21 19.59 20.3 19.59C20.5 19.59 20.7 19.59 20.9 19.6C21.22 19.6 21.53 19.6 21.84 19.6C23.77 19.61 25.56 19.72 27.06 21.09C28.11 22.19 28.7 23.53 28.75 25.06C28.7 26.7 28.07 28.06 26.91 29.2C25.91 30.06 24.65 30.51 23.34 30.48C23.34 30.54 23.35 30.6 23.35 30.66C23.35 30.94 23.36 31.21 23.36 31.49C23.36 31.58 23.36 31.68 23.37 31.78C23.37 32.44 23.34 32.96 22.9 33.48C22.38 33.92 22.02 34.12 21.34 34.11C20.85 34.06 20.42 33.85 20.07 33.5C19.74 33.04 19.64 32.65 19.64 32.09C19.64 32 19.64 31.9 19.64 31.81C19.64 31.66 19.64 31.66 19.64 31.51C19.64 31.41 19.64 31.31 19.64 31.21C19.64 30.97 19.65 30.72 19.65 30.48C19.56 30.48 19.47 30.48 19.37 30.49C19.03 30.49 18.7 30.5 18.36 30.5C18.21 30.5 18.06 30.5 17.92 30.51C17.71 30.51 17.5 30.51 17.29 30.51C17.22 30.52 17.16 30.52 17.09 30.52C16.54 30.52 16.11 30.36 15.7 30C15.66 29.95 15.62 29.9 15.58 29.86C15.55 29.81 15.51 29.76 15.47 29.72C15.16 29.24 15.13 28.77 15.2 28.21C15.39 27.62 15.66 27.26 16.2 26.95C16.51 26.85 16.79 26.86 17.1 26.86C17.17 26.86 17.24 26.86 17.3 26.86C17.45 26.85 17.59 26.85 17.73 26.85C17.96 26.85 18.19 26.85 18.41 26.85C19.06 26.84 19.7 26.84 20.35 26.84C20.75 26.83 21.14 26.83 21.54 26.83C21.69 26.83 21.84 26.83 21.99 26.83C23.26 26.84 23.26 26.84 24.43 26.38C24.86 25.93 24.97 25.49 24.96 24.89C24.91 24.43 24.7 24.07 24.36 23.77C23.98 23.51 23.69 23.41 23.23 23.4C23.1 23.4 23.1 23.4 22.97 23.4C22.88 23.4 22.78 23.4 22.69 23.4C22.49 23.4 22.29 23.4 22.09 23.39C21.77 23.39 21.46 23.39 21.15 23.39C18.37 23.37 18.37 23.37 17.27 22.78C17.19 22.74 17.19 22.74 17.1 22.69C15.78 21.98 14.91 20.89 14.46 19.45C14.06 17.99 14.25 16.5 14.97 15.17C15.82 13.79 17.07 12.92 18.64 12.54C18.98 12.5 19.31 12.5 19.65 12.51C19.65 12.45 19.64 12.39 19.64 12.33C19.64 12.05 19.64 11.78 19.63 11.5C19.63 11.41 19.63 11.31 19.63 11.21C19.62 10.55 19.68 10.08 20.05 9.51C20.83 8.73 21.84 8.73 22.73 9.3Z" fill="#157A75" fill-opacity="1.000000" fill-rule="nonzero"/>
	</g>
</svg>
