<svg width="26.000000" height="26.000000" viewBox="0 0 26 26" fill="none" xmlns="http://www.w3.org/2000/svg" xmlns:xlink="http://www.w3.org/1999/xlink">
	<desc>
			Created with Pixso.
	</desc>
	<defs>
		<clipPath id="clip82_435">
			<rect id="Simplification" rx="0.000000" width="25.000000" height="25.000000" transform="translate(0.500000 0.500000)" fill="white" fill-opacity="0"/>
		</clipPath>
	</defs>
	<rect id="Simplification" rx="0.000000" width="25.000000" height="25.000000" transform="translate(0.500000 0.500000)" fill="#FFFFFF" fill-opacity="0"/>
	<g clip-path="url(#clip82_435)">
		<path id="Vector" d="M12.96 -0.02C13.04 -0.02 13.04 -0.02 13.12 -0.02C13.95 -0.02 14.76 0.03 15.59 0.2C15.64 0.21 15.69 0.22 15.74 0.23C17.63 0.63 19.4 1.45 20.92 2.64C20.97 2.67 21.02 2.71 21.07 2.75C21.85 3.38 22.59 4.08 23.2 4.87C23.26 4.94 23.26 4.94 23.32 5.01C25.08 7.21 26.02 10.03 26.01 12.83C26.01 12.98 26.01 13.13 26.01 13.28C26.02 13.96 25.95 14.61 25.84 15.28C25.83 15.37 25.83 15.37 25.81 15.46C25.46 17.44 24.59 19.33 23.35 20.92C23.32 20.97 23.28 21.02 23.24 21.07C22.61 21.85 21.91 22.59 21.12 23.2C21.07 23.24 21.03 23.28 20.98 23.32C19.5 24.5 17.7 25.32 15.86 25.73C15.82 25.74 15.77 25.75 15.73 25.76C14.83 25.95 13.94 26.02 13.02 26.01C12.97 26.01 12.92 26.01 12.87 26.01C12.14 26.01 11.43 25.99 10.71 25.84C10.66 25.83 10.62 25.82 10.57 25.82C10.24 25.75 9.92 25.67 9.59 25.59C9.55 25.58 9.51 25.57 9.47 25.56C8.67 25.35 7.86 25.07 7.15 24.66C6.76 24.46 6.26 24.68 5.87 24.8C5.81 24.82 5.75 24.84 5.69 24.86C5.53 24.9 5.37 24.95 5.2 25C4.91 25.09 4.61 25.18 4.31 25.27C4.27 25.28 4.24 25.29 4.21 25.3C3.64 25.46 3.07 25.62 2.49 25.77C2.46 25.78 2.42 25.78 2.38 25.79C0.97 26.15 0.97 26.15 0.52 25.89C0.26 25.68 0.04 25.43 -0.03 25.1C-0.08 24.49 0.2 23.99 0.46 23.45C0.56 23.23 0.66 23.02 0.76 22.8C0.78 22.76 0.8 22.72 0.82 22.68C0.86 22.6 0.89 22.52 0.93 22.44C1 22.27 1.08 22.11 1.15 21.95C1.19 21.87 1.22 21.79 1.26 21.71C1.36 21.5 1.46 21.29 1.56 21.07C1.62 20.93 1.69 20.78 1.76 20.64C1.78 20.59 1.81 20.54 1.83 20.48C1.85 20.44 1.87 20.39 1.89 20.34C1.91 20.3 1.93 20.26 1.95 20.22C2 20 1.86 19.81 1.75 19.62C0.92 18.16 0.36 16.64 0.1 14.98C0.08 14.89 0.08 14.89 0.07 14.8C-0.02 14.2 -0.02 13.62 -0.02 13.02C-0.02 12.94 -0.02 12.94 -0.02 12.86C-0.02 12.12 0 11.39 0.15 10.66C0.16 10.61 0.17 10.56 0.18 10.51C0.7 8.01 1.84 5.8 3.6 3.96C3.63 3.93 3.66 3.9 3.69 3.86C4.09 3.44 4.51 3.05 4.98 2.7C5.08 2.63 5.17 2.56 5.26 2.5C5.68 2.17 6.13 1.89 6.6 1.63C6.69 1.57 6.78 1.52 6.88 1.47C8.73 0.42 10.85 -0.03 12.96 -0.02ZM5.01 5.84C3.12 7.89 2.17 10.73 2.28 13.5C2.38 15.47 3.01 17.35 4.11 18.99C4.16 19.06 4.16 19.06 4.21 19.13C4.26 19.21 4.31 19.28 4.36 19.36C4.53 19.63 4.5 19.96 4.46 20.26C4.39 20.5 4.28 20.73 4.17 20.96C4.14 21.02 4.11 21.09 4.08 21.15C4.02 21.28 3.96 21.41 3.89 21.54C3.78 21.78 3.67 22.02 3.56 22.26C3.51 22.37 3.46 22.47 3.41 22.58C3.38 22.65 3.38 22.65 3.34 22.72C3.32 22.79 3.32 22.79 3.29 22.85C3.24 22.95 3.24 22.95 3.25 23.05C3.67 22.98 4.07 22.88 4.48 22.76C4.58 22.73 4.68 22.71 4.78 22.68C5.01 22.61 5.25 22.54 5.48 22.48C5.62 22.44 5.75 22.4 5.88 22.36C6.01 22.33 6.13 22.29 6.26 22.26C6.95 22.06 7.38 22.13 8.01 22.48C9.37 23.22 10.94 23.65 12.49 23.71C12.54 23.71 12.54 23.71 12.6 23.71C14.19 23.77 15.75 23.47 17.21 22.85C17.25 22.83 17.29 22.81 17.33 22.79C18.5 22.29 19.52 21.56 20.44 20.68C20.51 20.62 20.58 20.55 20.65 20.49C20.97 20.18 21.24 19.84 21.51 19.48C21.55 19.43 21.6 19.37 21.64 19.31C22.79 17.83 23.43 16.01 23.66 14.16C23.67 14.11 23.67 14.06 23.68 14.01C23.97 11.29 23.09 8.47 21.4 6.34C19.55 4.09 16.97 2.63 14.07 2.32C10.61 1.99 7.38 3.35 5.01 5.84Z" fill="#FFFFFF" fill-opacity="1.000000" fill-rule="nonzero"/>
		<path id="Vector" d="M9.49 7.21C10.3 7.83 10.8 8.79 10.96 9.8C11.03 10.57 10.74 11 10.26 11.59C10.23 11.62 10.21 11.66 10.18 11.69C10.15 11.72 10.13 11.75 10.1 11.78C10.02 11.93 10.03 12.02 10.05 12.18C10.11 12.32 10.19 12.44 10.27 12.57C10.29 12.6 10.31 12.64 10.34 12.67C10.57 13.03 10.84 13.34 11.12 13.66C11.15 13.69 11.18 13.73 11.21 13.76C12 14.72 13.26 15.65 14.47 15.99C14.71 15.98 14.79 15.97 14.97 15.8C15.09 15.65 15.19 15.49 15.29 15.32C15.55 14.9 15.79 14.55 16.3 14.42C17.22 14.37 18.18 14.79 18.87 15.38C19.24 15.73 19.5 16.09 19.52 16.61C19.5 17.3 19.11 17.88 18.62 18.34C17.86 18.98 16.94 19.06 15.99 18.99C13.98 18.76 12.14 17.6 10.61 16.35C10.58 16.32 10.55 16.3 10.52 16.28C9.76 15.66 9.02 14.95 8.42 14.16C8.38 14.1 8.33 14.05 8.28 13.99C7.44 12.91 6.66 11.55 6.6 10.15C6.59 10.11 6.59 10.08 6.59 10.04C6.56 9.2 6.85 8.39 7.4 7.76C7.94 7.21 8.74 6.74 9.49 7.21Z" fill="#FFFFFF" fill-opacity="1.000000" fill-rule="nonzero"/>
	</g>
</svg>
