<svg width="42.000000" height="42.000000" viewBox="0 0 42 42" fill="none" xmlns="http://www.w3.org/2000/svg" xmlns:xlink="http://www.w3.org/1999/xlink">
	<desc>
			Created with Pixso.
	</desc>
	<defs>
		<clipPath id="clip103_315">
			<rect id="Simplification" rx="0.000000" width="41.000000" height="41.000000" transform="translate(0.500000 0.500000)" fill="white" fill-opacity="0"/>
		</clipPath>
	</defs>
	<rect id="Simplification" rx="0.000000" width="41.000000" height="41.000000" transform="translate(0.500000 0.500000)" fill="#FFFFFF" fill-opacity="0"/>
	<g clip-path="url(#clip103_315)">
		<path id="Vector" d="M33 8.16C33.65 8.75 34.24 9.39 34.78 10.08C34.83 10.15 34.83 10.15 34.88 10.22C37.77 13.96 38.99 18.63 38.43 23.31C37.82 27.78 35.49 32.01 31.91 34.78C31.86 34.81 31.81 34.85 31.77 34.88C28.03 37.77 23.36 38.99 18.68 38.42C14.21 37.82 9.98 35.49 7.21 31.91C7.18 31.86 7.14 31.81 7.11 31.77C4.22 28.03 3 23.36 3.57 18.68C4.1 14.75 5.9 11.25 8.69 8.44C8.74 8.4 8.78 8.35 8.83 8.3C14.46 2.7 23.63 1.94 33 8.16ZM10.79 11.41C8.07 14.45 6.9 18.1 7.05 22.14C7.28 25.58 9 29.03 11.56 31.33C14.6 33.97 18.23 35.13 22.23 34.94C25.77 34.69 29.18 32.85 31.52 30.21C34.07 27.1 35.28 23.4 34.9 19.37C34.48 15.78 32.59 12.37 29.77 10.11C27.73 8.53 25.43 7.52 22.88 7.13C22.74 7.11 22.74 7.11 22.59 7.09C18.23 6.56 13.82 8.27 10.79 11.41Z" fill="#157A75" fill-opacity="1.000000" fill-rule="nonzero"/>
		<path id="Vector" d="M21.85 12.35C22.3 12.62 22.57 12.99 22.75 13.48C22.86 13.96 22.83 14.47 22.82 14.96C22.82 15.08 22.82 15.21 22.82 15.33C22.82 15.65 22.82 15.97 22.82 16.29C22.81 16.61 22.81 16.94 22.81 17.27C22.81 17.91 22.81 18.55 22.8 19.19C22.87 19.19 22.87 19.19 22.94 19.19C23.42 19.18 23.9 19.18 24.38 19.18C24.55 19.18 24.73 19.17 24.91 19.17C25.17 19.17 25.43 19.17 25.68 19.17C25.76 19.17 25.84 19.16 25.92 19.16C26.51 19.16 26.95 19.26 27.46 19.58C27.86 19.98 28.03 20.41 28.07 20.97C28.06 21.52 27.86 22 27.48 22.39C26.98 22.73 26.59 22.81 26 22.81C25.95 22.81 25.89 22.81 25.83 22.81C25.65 22.82 25.46 22.82 25.27 22.82C25.14 22.82 25.01 22.82 24.88 22.82C24.61 22.82 24.33 22.82 24.06 22.82C23.71 22.82 23.36 22.82 23.01 22.82C22.75 22.83 22.48 22.83 22.21 22.83C22.08 22.83 21.95 22.83 21.82 22.83C21.06 22.83 20.44 22.83 19.79 22.41C19.25 21.88 19.18 21.32 19.18 20.6C19.18 20.53 19.17 20.45 19.17 20.38C19.17 20.14 19.17 19.89 19.17 19.65C19.17 19.57 19.17 19.49 19.17 19.4C19.17 18.96 19.17 18.52 19.17 18.08C19.17 17.63 19.16 17.18 19.16 16.73C19.16 16.38 19.16 16.03 19.16 15.68C19.16 15.52 19.15 15.35 19.15 15.18C19.14 13.29 19.14 13.29 19.66 12.72C20.25 12.16 21.1 12.01 21.85 12.35Z" fill="#157A75" fill-opacity="1.000000" fill-rule="nonzero"/>
	</g>
</svg>
