<svg width="27" height="26" viewBox="0 0 27 26" fill="none" xmlns="http://www.w3.org/2000/svg">
<g clip-path="url(#clip0_82_435)">
<path d="M13.4649 -0.0190128C13.5418 -0.0189714 13.5418 -0.0189714 13.6202 -0.0189291C14.4589 -0.0168582 15.2664 0.0302479 16.0896 0.203155C16.1412 0.213768 16.1927 0.224381 16.2459 0.235315C18.1321 0.636093 19.9025 1.45385 21.4216 2.64066C21.471 2.67921 21.5204 2.71777 21.5712 2.75749C22.3522 3.38385 23.0912 4.08467 23.7068 4.87503C23.765 4.94632 23.765 4.94632 23.8244 5.01904C25.5829 7.21503 26.522 10.0334 26.5158 12.8338C26.5156 12.9831 26.5168 13.1323 26.5181 13.2816C26.5204 13.9607 26.4592 14.6156 26.3474 15.2852C26.3331 15.3718 26.3331 15.3718 26.3185 15.4602C25.9617 17.4463 25.0993 19.3345 23.8591 20.9219C23.8206 20.9713 23.782 21.0206 23.7423 21.0715C23.116 21.8525 22.4151 22.5915 21.6248 23.2071C21.5772 23.2459 21.5297 23.2847 21.4808 23.3247C20.006 24.5057 18.203 25.3293 16.3626 25.7366C16.3209 25.7459 16.2793 25.7551 16.2365 25.7647C15.3369 25.9507 14.4455 26.0268 13.5283 26.0191C13.4785 26.0189 13.4287 26.0186 13.3774 26.0184C12.6476 26.0146 11.9319 25.9933 11.2146 25.8477C11.1689 25.8387 11.1232 25.8297 11.0761 25.8205C10.7473 25.7545 10.422 25.678 10.0974 25.5938C10.0552 25.5829 10.0131 25.5719 9.96961 25.5607C9.17753 25.3506 8.36477 25.0705 7.65279 24.6611C7.26091 24.466 6.76435 24.6877 6.37334 24.8067C6.31335 24.8245 6.25336 24.8424 6.19155 24.8608C6.03062 24.9088 5.86979 24.9571 5.70898 25.0054C5.41 25.0951 5.11062 25.1834 4.81122 25.2716C4.77842 25.2813 4.74563 25.291 4.71184 25.3009C4.14306 25.4685 3.5724 25.6261 2.99757 25.7715C2.96133 25.7807 2.92508 25.7899 2.88773 25.7994C1.47087 26.1571 1.47087 26.1571 1.02663 25.8921C0.762789 25.6897 0.544756 25.4373 0.470214 25.1076C0.424637 24.4919 0.706597 23.9966 0.965108 23.4544C1.06817 23.2381 1.1682 23.0204 1.26803 22.8026C1.28614 22.7631 1.30424 22.7237 1.32289 22.683C1.35996 22.6021 1.39701 22.5213 1.43406 22.4404C1.50822 22.2786 1.5825 22.1169 1.65681 21.9552C1.69314 21.8761 1.72946 21.797 1.76576 21.7179C1.86373 21.5045 1.96231 21.2914 2.0615 21.0785C2.12879 20.9336 2.19494 20.788 2.26124 20.6426C2.2854 20.5914 2.30955 20.5403 2.33444 20.4876C2.35552 20.4408 2.3766 20.394 2.39831 20.3459C2.41675 20.306 2.43519 20.2661 2.45419 20.225C2.50442 20.0021 2.36139 19.8163 2.25331 19.6274C1.42683 18.1622 0.867001 16.6457 0.601333 14.9805C0.58715 14.8924 0.58715 14.8924 0.572681 14.8024C0.487565 14.2094 0.481632 13.6206 0.483901 13.0222C0.484065 12.9445 0.484065 12.9445 0.484233 12.8652C0.486753 12.1224 0.499303 11.3937 0.652114 10.6641C0.662203 10.6146 0.672292 10.5651 0.682687 10.5141C1.20551 8.01469 2.34487 5.80928 4.10524 3.96097C4.1342 3.93055 4.16316 3.90014 4.19299 3.8688C4.59925 3.44527 5.01649 3.05703 5.48811 2.70743C5.5799 2.63917 5.67066 2.56968 5.76138 2.50001C6.18831 2.17557 6.6323 1.89413 7.09994 1.6321C7.19455 1.57894 7.2884 1.52465 7.38222 1.47011C9.23411 0.429458 11.3573 -0.0233003 13.4649 -0.0190128ZM5.51806 5.84119C3.62039 7.89756 2.67411 10.7339 2.78493 13.5078C2.87982 15.475 3.51567 17.3595 4.61305 18.9922C4.66136 19.0644 4.66136 19.0644 4.71065 19.138C4.76126 19.2133 4.81227 19.2884 4.86398 19.363C5.03073 19.6306 5.00103 19.9601 4.96852 20.2617C4.89289 20.5072 4.78602 20.7327 4.67335 20.9632C4.64336 21.0269 4.6135 21.0906 4.58376 21.1544C4.52301 21.2844 4.46161 21.4139 4.39961 21.5432C4.28458 21.7835 4.17321 22.0253 4.06216 22.2674C4.01342 22.3737 3.96436 22.4797 3.91495 22.5856C3.88218 22.6563 3.88218 22.6563 3.84875 22.7284C3.81995 22.7901 3.81995 22.7901 3.79057 22.8531C3.74338 22.9508 3.74338 22.9508 3.74977 23.0547C4.17247 22.9875 4.57832 22.8838 4.98935 22.7655C5.08621 22.7382 5.18307 22.7108 5.27994 22.6835C5.516 22.6169 5.75192 22.5499 5.98768 22.4822C6.12086 22.444 6.25413 22.4062 6.38752 22.3687C6.51231 22.3337 6.63695 22.2981 6.76141 22.2619C7.45934 22.0672 7.8883 22.1309 8.51692 22.4802C9.87126 23.229 11.4445 23.6582 12.992 23.7149C13.0466 23.7169 13.0466 23.7169 13.1024 23.7191C14.6938 23.7711 16.2522 23.4792 17.7146 22.8516C17.7556 22.8341 17.7965 22.8167 17.8387 22.7987C19.0092 22.2912 20.0222 21.5681 20.9405 20.6889C21.0099 20.6225 21.0799 20.5567 21.1499 20.4909C21.4712 20.1812 21.7462 19.8448 22.0138 19.4888C22.0575 19.4307 22.1016 19.3728 22.146 19.3153C23.29 17.8323 23.9336 16.0141 24.1638 14.168C24.1705 14.1165 24.1772 14.0651 24.1841 14.0121C24.4709 11.2914 23.598 8.47921 21.9 6.34863C20.0548 4.09865 17.4786 2.63497 14.5725 2.32327C11.1144 1.99704 7.88808 3.35186 5.51806 5.84119Z" fill="white"/>
<path d="M9.99625 7.21091C10.809 7.83571 11.3011 8.79529 11.4689 9.80075C11.5302 10.5764 11.2453 11.0045 10.7655 11.5916C10.7379 11.6259 10.7103 11.6602 10.6818 11.6955C10.6572 11.7247 10.6326 11.7538 10.6072 11.7838C10.5294 11.9309 10.5332 12.0223 10.5548 12.1875C10.6144 12.3246 10.692 12.4467 10.7738 12.5715C10.7965 12.6069 10.8192 12.6423 10.8425 12.6787C11.0738 13.0314 11.3411 13.346 11.6213 13.6601C11.6513 13.6963 11.6813 13.7325 11.7123 13.7698C12.5039 14.7217 13.7668 15.6557 14.9728 15.9961C15.2126 15.9842 15.2966 15.9749 15.4743 15.8088C15.5933 15.6559 15.6943 15.4931 15.7965 15.3286C16.0581 14.9084 16.2978 14.5546 16.8009 14.4218C17.7238 14.3722 18.6875 14.7996 19.3795 15.3813C19.7494 15.7317 20.0015 16.0957 20.0255 16.615C20.0066 17.3033 19.6104 17.8836 19.1242 18.3479C18.366 18.9815 17.4449 19.0621 16.4963 18.9922C14.4877 18.768 12.6452 17.6038 11.1134 16.3515C11.0859 16.3293 11.0583 16.307 11.0299 16.2841C10.2634 15.6621 9.52394 14.9578 8.92985 14.1679C8.88304 14.109 8.83616 14.0502 8.7892 13.9914C7.9419 12.9154 7.16599 11.5594 7.10172 10.1562C7.0991 10.1188 7.09648 10.0813 7.09379 10.0428C7.06078 9.20116 7.35889 8.39831 7.90787 7.76633C8.44703 7.21556 9.24297 6.746 9.99625 7.21091Z" fill="white"/>
</g>
<defs>
<clipPath id="clip0_82_435">
<rect width="26" height="26" fill="white" transform="translate(0.5)"/>
</clipPath>
</defs>
</svg>
