<svg width="84.000000" height="25.000000" viewBox="0 0 84 25" fill="none" xmlns="http://www.w3.org/2000/svg" xmlns:xlink="http://www.w3.org/1999/xlink">
	<desc>
			Created with Pixso.
	</desc>
	<defs/>
	<path id="Vector" d="M55.06 5.58C55.21 5.58 55.37 5.58 55.53 5.58C55.79 5.58 55.79 5.58 56.05 5.58C56.22 5.58 56.4 5.58 56.58 5.57C56.95 5.57 57.31 5.57 57.68 5.57C58.25 5.57 58.81 5.56 59.38 5.56C59.74 5.56 60.1 5.56 60.45 5.56C60.62 5.55 60.79 5.55 60.97 5.55C61.13 5.55 61.28 5.55 61.45 5.55C61.59 5.55 61.72 5.55 61.87 5.55C62.3 5.62 62.43 5.74 62.69 6.09C63.18 7.35 63.42 8.7 63.66 10.03C63.77 10.55 63.91 11.01 64.11 11.5C64.36 12.21 64.52 12.95 64.71 13.68C64.8 14.04 64.9 14.4 65.02 14.76C65.15 15.15 65.23 15.52 65.3 15.92C65.45 16.72 65.65 17.48 65.86 18.26C66.06 19.02 66.2 19.77 66.33 20.55C66.47 21.42 66.68 22.2 67.06 22.99C67.23 23.56 67.2 24.07 67.18 24.66C66.6 24.67 66.02 24.68 65.44 24.69C65.19 24.69 65.19 24.69 64.94 24.7C64.78 24.7 64.62 24.7 64.46 24.7C64.24 24.71 64.24 24.71 64.01 24.71C63.54 24.65 63.34 24.51 63 24.18C62.85 23.77 62.85 23.77 62.75 23.3C62.72 23.12 62.68 22.95 62.64 22.77C62.61 22.6 62.57 22.43 62.53 22.26C62.46 21.98 62.39 21.71 62.31 21.44C62.09 20.62 61.91 19.8 61.73 18.97C61.7 18.85 61.67 18.72 61.64 18.59C61.54 18.1 61.45 17.64 61.45 17.13C61.35 17.13 61.24 17.13 61.14 17.13C61.11 16.96 61.08 16.78 61.05 16.6C60.86 15.41 60.65 14.25 60.33 13.09C60.14 12.38 60 11.66 59.86 10.93C59.73 10.33 59.73 10.33 59.43 9.45C58.67 9.45 57.9 9.45 57.11 9.45C56.88 10.04 56.73 10.52 56.6 11.12C56.54 11.39 56.54 11.39 56.48 11.67C56.4 12.03 56.32 12.38 56.25 12.74C55.91 14.33 55.57 15.91 55.08 17.46C54.73 18.63 54.46 19.75 54.48 20.98C54.63 20.98 54.78 20.98 54.94 20.98C55.51 20.99 56.08 21 56.64 21.02C56.89 21.02 57.14 21.03 57.38 21.03C57.73 21.04 58.09 21.04 58.44 21.05C58.55 21.05 58.66 21.06 58.77 21.06C59.08 21.07 59.08 21.07 59.59 21.14C59.91 21.64 59.94 21.75 59.93 22.32C59.93 22.46 59.93 22.59 59.93 22.73C59.93 22.87 59.93 23.01 59.93 23.16C59.93 23.37 59.93 23.37 59.93 23.59C59.92 24.63 59.92 24.63 59.74 24.82C59.53 24.84 59.31 24.85 59.09 24.85C58.88 24.85 58.88 24.85 58.67 24.86C58.52 24.86 58.36 24.87 58.21 24.87C58.05 24.87 57.89 24.87 57.73 24.88C57.39 24.88 57.05 24.89 56.72 24.9C56.21 24.91 55.71 24.92 55.2 24.93C53.67 24.96 52.14 24.98 50.6 24.99C50.48 24.99 50.35 24.99 50.23 25C49.94 25 49.65 24.99 49.37 24.98C49.21 24.82 49.21 24.82 49.2 24.49C49.2 24.35 49.2 24.22 49.2 24.09C49.2 23.95 49.2 23.82 49.2 23.69C49.21 23.58 49.21 23.48 49.21 23.38C49.31 23.38 49.41 23.38 49.52 23.38C49.53 23.27 49.53 23.16 49.54 23.05C49.55 22.91 49.56 22.76 49.57 22.62C49.58 22.48 49.59 22.33 49.6 22.19C49.67 21.78 49.67 21.78 49.89 21.48C50.23 21.01 50.33 20.52 50.45 19.97C50.48 19.85 50.5 19.74 50.53 19.63C50.75 18.64 50.95 17.65 51.13 16.66C51.22 16.17 51.22 16.17 51.38 15.69C51.48 15.69 51.58 15.69 51.69 15.69C51.69 15.54 51.69 15.54 51.7 15.39C51.75 14.36 51.97 13.49 52.31 12.52C52.65 11.52 52.84 10.49 53.02 9.45C53.16 8.63 53.37 7.96 53.7 7.21C53.79 6.95 53.87 6.69 53.95 6.43C54.19 5.65 54.26 5.59 55.06 5.58Z" fill="#DEDEDE" fill-opacity="1.000000" fill-rule="nonzero"/>
	<path id="Vector" d="M80.27 3.68C81.5 4.39 82.37 5.76 83.06 7.18C83.17 7.77 83.17 7.77 83.2 8.23C83.29 8.23 83.39 8.23 83.48 8.23C83.48 8.52 83.48 8.8 83.48 9.1C82.92 9.14 82.36 9.16 81.8 9.18C81.56 9.19 81.56 9.19 81.32 9.21C80.15 9.24 80.15 9.24 79.73 8.83C79.52 8.5 79.52 8.5 79.35 8.17C79.05 7.67 78.68 7.64 78.21 7.53C78.21 7.42 78.21 7.3 78.21 7.18C77.81 7.17 77.42 7.16 77.03 7.15C76.92 7.15 76.81 7.14 76.69 7.14C75.76 7.12 75.03 7.34 74.25 8C73.94 8.59 73.97 9.11 74.04 9.8C74.16 10.28 74.23 10.43 74.59 10.68C74.68 10.73 74.78 10.79 74.87 10.84C74.94 10.93 75 11.01 75.07 11.1C75.32 11.4 75.49 11.48 75.83 11.58C75.94 11.62 76.04 11.65 76.15 11.68C76.26 11.72 76.37 11.75 76.49 11.79C77.29 12.05 78.02 12.34 78.77 12.8C79.07 12.95 79.32 12.98 79.65 13.01C81.03 13.14 82.24 14.18 83.21 15.37C83.97 16.49 84.04 17.56 83.97 18.98C83.88 20.06 83.59 21.02 83.2 21.99C83.12 22.22 83.12 22.22 83.03 22.45C82.76 22.91 82.51 23.05 82.08 23.25C81.8 23.39 81.54 23.55 81.27 23.73C81.18 23.79 81.09 23.85 80.99 23.91C80.81 24.04 80.62 24.16 80.43 24.29C79.79 24.71 79.21 24.9 78.48 24.95C78.36 24.95 78.25 24.96 78.13 24.97C75.91 25.08 74.15 24.89 72.24 23.38C72.09 23.27 71.94 23.16 71.79 23.04C70.88 22.19 70.34 21 69.88 19.72C69.88 19.55 69.88 19.38 69.88 19.2C69.79 19.2 69.69 19.2 69.6 19.2C69.59 18.85 69.59 18.5 69.6 18.16C69.92 17.75 70.71 17.93 71.14 17.93C71.34 17.92 71.34 17.92 71.54 17.91C72.4 17.9 72.92 18.02 73.62 18.68C73.82 18.99 73.82 18.99 73.93 19.29C74.33 20.25 74.7 20.63 75.52 21.01C76.11 21.21 76.7 21.2 77.31 21.19C77.44 21.2 77.56 21.2 77.69 21.2C78.69 21.2 79.19 20.9 80 20.18C80.23 19.74 80.2 19.37 80.2 18.85C80.2 18.67 80.2 18.49 80.2 18.3C80.18 17.81 80.18 17.81 79.97 17.51C79.71 17.26 79.44 17.05 79.15 16.85C79.05 16.78 78.95 16.71 78.85 16.64C77.93 16.08 77.03 15.78 76.03 15.55C73.79 15.01 72.27 14.44 70.85 12.06C70.5 11.3 70.52 10.62 70.52 9.75C70.52 9.61 70.51 9.47 70.51 9.32C70.5 8.26 70.71 7.57 71.13 6.66C71.22 6.39 71.22 6.39 71.31 6.12C71.58 5.54 71.88 5.22 72.29 4.81C72.53 4.57 72.53 4.57 72.72 4.18C73.04 3.71 73.43 3.68 73.9 3.53C74.02 3.44 74.13 3.35 74.25 3.26C75.98 2.35 78.56 2.85 80.27 3.68Z" fill="#DDDDDD" fill-opacity="1.000000" fill-rule="nonzero"/>
	<path id="Vector" d="M1.34 5.57C4.26 5.54 7.18 5.53 10.09 5.69C10.33 5.7 10.58 5.71 10.82 5.72C11.16 5.74 11.5 5.76 11.84 5.78C12.03 5.79 12.22 5.8 12.42 5.82C12.64 5.86 12.64 5.86 12.87 5.9C13.2 6.46 13.2 6.62 13.19 7.26C13.19 7.52 13.19 7.52 13.18 7.79C13.18 7.98 13.18 8.17 13.17 8.37C13.17 8.56 13.16 8.76 13.16 8.96C13.15 9.37 13.14 9.79 13.14 10.2C13.12 10.83 13.11 11.46 13.1 12.1C13.09 12.5 13.08 12.9 13.08 13.3C13.07 13.58 13.07 13.58 13.07 13.87C13.06 14.05 13.06 14.23 13.05 14.41C13.05 14.57 13.05 14.72 13.04 14.88C13.02 15.37 12.95 15.84 12.87 16.33C12.86 16.62 12.85 16.91 12.84 17.19C12.78 20.58 12.78 20.58 12.12 21.96C12.02 21.96 11.92 21.96 11.82 21.96C11.77 22.15 11.77 22.15 11.71 22.35C11.49 22.86 11.36 22.87 10.92 23.11C10.87 23.25 10.82 23.39 10.77 23.53C10.62 23.94 10.62 23.94 10.32 24.14C10.17 24.2 10.17 24.2 10.03 24.27C9.98 24.38 9.93 24.49 9.88 24.6C9 24.92 8.15 24.97 7.24 24.99C7.08 24.99 7.08 24.99 6.91 25C5.85 24.99 5.04 24.59 4.21 23.88C4.03 23.74 4.03 23.74 3.86 23.6C3.54 23.22 3.49 22.96 3.44 22.45C3.34 22.45 3.24 22.45 3.14 22.45C3.08 22.29 3.02 22.13 2.96 21.97C2.72 21.34 2.42 20.76 2.1 20.17C1.93 19.77 1.85 19.41 1.79 18.98C1.69 18.98 1.59 18.98 1.49 18.98C1.44 18.69 1.44 18.69 1.38 18.39C1.21 17.65 0.92 17.03 0.58 16.37C0 15.26 0 15.26 0 14.51C3.15 14.76 3.15 14.76 4.34 16C4.54 16.27 4.74 16.54 4.94 16.83C5.08 16.91 5.08 16.91 5.23 16.99C5.58 17.93 5.74 18.94 5.91 19.94C5.99 20.36 6.12 20.74 6.28 21.13C6.49 21.17 6.71 21.2 6.92 21.23C7.04 21.25 7.15 21.27 7.28 21.29C7.68 21.29 7.89 21.21 8.23 20.96C8.35 20.62 8.35 20.62 8.38 20.3C8.53 20.3 8.67 20.3 8.83 20.3C8.88 17.62 8.93 14.95 8.98 12.19C10.17 11.53 10.17 11.53 10.61 11.36C10.72 11.31 10.82 11.25 10.92 11.2C11.02 10.86 11.02 10.86 11.07 10.54C10.92 10.51 10.77 10.49 10.62 10.47C10.43 10.44 10.23 10.41 10.03 10.38C9.84 10.35 9.65 10.32 9.45 10.29C8.98 10.21 8.98 10.21 8.83 10.04C8.54 10.01 8.26 9.99 7.98 9.97C7.32 9.91 6.75 9.83 6.13 9.54C6.13 9.43 6.13 9.32 6.13 9.21C6 9.17 5.87 9.13 5.73 9.09C5.21 8.87 4.91 8.61 4.49 8.22C4.14 7.99 3.79 7.77 3.44 7.56C3.44 7.45 3.44 7.34 3.44 7.23C3.34 7.19 3.25 7.15 3.15 7.11C2.52 6.81 1.94 6.44 1.34 6.07C1.34 5.9 1.34 5.74 1.34 5.57Z" fill="#D6D6D6" fill-opacity="1.000000" fill-rule="nonzero"/>
	<path id="Vector" d="M17.29 5.59C17.43 5.59 17.57 5.58 17.71 5.58C19.02 5.57 19.02 5.57 19.62 6.11C19.75 6.23 19.75 6.23 19.88 6.34C20.12 6.68 20.14 6.93 20.17 7.35C20.18 7.55 20.18 7.55 20.2 7.75C20.2 7.85 20.21 7.95 20.22 8.05C20.36 8.05 20.51 8.05 20.66 8.05C20.88 8.36 20.88 8.36 21.11 8.78C21.18 8.93 21.26 9.08 21.34 9.23C21.51 9.58 21.65 9.91 21.78 10.28C21.97 10.81 21.97 10.81 22.38 11.2C22.78 11.64 22.89 11.97 23.03 12.56C23.13 12.56 23.23 12.56 23.33 12.56C23.43 12.94 23.53 13.31 23.63 13.69C23.82 13.69 24.02 13.69 24.22 13.69C24.29 13.53 24.35 13.36 24.42 13.19C25.01 11.7 25.01 11.7 25.39 11.32C25.79 10.85 26.01 10.33 26.26 9.76C26.66 8.87 27.07 7.98 27.51 7.11C27.6 6.93 27.69 6.75 27.79 6.57C28.11 6.07 28.33 5.9 28.82 5.63C29.23 5.58 29.23 5.58 29.67 5.58C29.91 5.59 29.91 5.59 30.15 5.59C30.4 5.59 30.4 5.59 30.65 5.6C30.81 5.6 30.98 5.61 31.15 5.61C31.56 5.61 31.97 5.62 32.38 5.63C32.43 6.35 32.38 6.72 31.95 7.27C31.88 7.38 31.8 7.48 31.71 7.59C31.64 7.69 31.57 7.79 31.49 7.89C31.39 8.05 31.3 8.21 31.19 8.37C31.1 8.37 31 8.37 30.9 8.37C30.8 8.69 30.7 9.01 30.6 9.34C30.5 9.34 30.41 9.34 30.3 9.34C30.26 9.45 30.22 9.57 30.18 9.69C29.7 10.97 29.08 12.17 28.44 13.36C28.39 13.46 28.33 13.56 28.28 13.67C27.93 14.3 27.54 14.79 27.04 15.3C26.24 16.78 25.99 18.34 25.95 20.02C25.95 20.23 25.95 20.23 25.95 20.45C25.94 20.9 25.93 21.35 25.92 21.8C25.91 22.11 25.91 22.42 25.9 22.72C25.88 23.47 25.87 24.23 25.85 24.98C25.26 24.98 24.67 24.98 24.08 24.99C23.83 24.99 23.83 24.99 23.57 24.99C23.41 24.99 23.25 24.99 23.09 24.99C22.86 24.99 22.86 24.99 22.64 25C22.29 24.98 22.29 24.98 22.14 24.82C22.13 24.33 22.12 23.85 22.11 23.37C22.11 23.07 22.1 22.77 22.1 22.47C22.09 21.99 22.09 21.51 22.08 21.04C22.08 20.58 22.07 20.12 22.07 19.66C22.07 19.52 22.07 19.38 22.06 19.24C22.04 17.99 21.82 16.94 21.11 15.95C21.11 15.74 21.11 15.52 21.11 15.3C20.91 15.3 20.71 15.3 20.51 15.3C20.41 14.93 20.32 14.56 20.22 14.18C20.12 14.18 20.02 14.18 19.92 14.18C19.87 13.96 19.82 13.75 19.77 13.53C19.67 13.53 19.57 13.53 19.47 13.53C19.46 13.43 19.44 13.32 19.43 13.22C19.39 13.11 19.36 13 19.33 12.89C19.1 12.81 19.1 12.81 18.88 12.72C18.73 12.37 18.73 12.37 18.58 11.92C18.3 11.22 18.3 11.22 17.84 10.67C17.44 10.18 17.36 9.67 17.22 9.04C17.16 8.87 17.16 8.87 17.1 8.69C16.95 8.64 16.81 8.59 16.65 8.53C16.46 8.18 16.46 8.18 16.27 7.74C16.01 7.12 16.01 7.12 15.62 6.6C15.59 6.19 15.59 6.19 15.62 5.79C15.96 5.41 16.82 5.59 17.29 5.59Z" fill="#DEDEDE" fill-opacity="1.000000" fill-rule="nonzero"/>
	<path id="Vector" d="M35.47 5.55C37.56 5.55 39.64 5.55 41.79 5.55C41.96 6.19 41.96 6.19 41.74 6.63C41.65 6.75 41.56 6.87 41.47 6.99C41.36 6.99 41.26 6.99 41.15 6.99C41.15 7.1 41.15 7.21 41.15 7.31C41.02 7.38 40.9 7.45 40.78 7.52C40.26 7.84 40.02 8.09 39.69 8.6C39.63 9.03 39.6 9.4 39.61 9.84C39.61 9.96 39.61 10.08 39.61 10.21C39.61 10.61 39.62 11.01 39.62 11.41C39.62 11.69 39.63 11.97 39.63 12.25C39.63 12.98 39.64 13.72 39.64 14.45C39.65 15.2 39.65 15.95 39.66 16.7C39.66 18.17 39.67 19.63 39.69 21.1C39.79 21.1 39.88 21.11 39.99 21.11C41.01 21.12 42.04 21.14 43.06 21.15C43.44 21.16 43.83 21.17 44.21 21.17C44.76 21.18 45.31 21.19 45.86 21.2C46.03 21.2 46.2 21.2 46.38 21.2C46.54 21.21 46.7 21.21 46.86 21.21C47.07 21.22 47.07 21.22 47.29 21.22C47.63 21.26 47.63 21.26 47.95 21.58C47.99 21.9 47.99 21.9 47.99 22.27C47.99 22.47 47.99 22.47 48 22.68C47.99 22.82 47.99 22.96 47.99 23.11C47.99 23.32 47.99 23.32 48 23.54C47.99 23.67 47.99 23.8 47.99 23.94C47.99 24.07 47.99 24.19 47.99 24.32C47.95 24.63 47.95 24.63 47.63 24.95C47.13 24.99 47.13 24.99 46.49 24.99C46.32 24.99 46.32 24.99 46.14 24.99C45.76 25 45.37 24.99 44.98 24.99C44.72 24.99 44.45 24.99 44.18 24.99C43.62 25 43.06 24.99 42.5 24.99C41.78 24.99 41.06 24.99 40.34 24.99C39.78 25 39.23 24.99 38.68 24.99C38.41 24.99 38.15 24.99 37.88 24.99C37.51 25 37.14 24.99 36.77 24.99C36.56 24.99 36.35 24.99 36.13 24.99C35.64 24.95 35.64 24.95 35.31 24.63C35.27 24.26 35.27 24.26 35.27 23.78C35.28 23.61 35.28 23.43 35.28 23.25C35.28 22.96 35.28 22.96 35.28 22.67C35.28 22.47 35.28 22.28 35.28 22.08C35.28 21.45 35.29 20.83 35.29 20.2C35.29 19.78 35.29 19.35 35.3 18.93C35.3 17.89 35.31 16.85 35.31 15.81C34.35 15.81 33.39 15.81 32.4 15.81C32.58 14.88 32.9 14.36 33.68 13.84C33.86 13.73 33.86 13.73 34.04 13.62C34.88 13.07 35.58 12.42 36.28 11.7C36.41 11.58 36.53 11.46 36.66 11.34C36.78 11.22 36.89 11.11 37.01 10.99C37.12 10.88 37.22 10.78 37.33 10.67C37.63 10.34 37.63 10.34 37.74 9.72C36.94 9.72 36.14 9.72 35.31 9.72C35.31 9.11 35.3 8.51 35.3 7.91C35.3 7.73 35.3 7.56 35.3 7.38C35.3 7.22 35.3 7.06 35.3 6.89C35.3 6.73 35.29 6.58 35.29 6.42C35.31 6.03 35.31 6.03 35.47 5.55Z" fill="#E0E0E0" fill-opacity="1.000000" fill-rule="nonzero"/>
	<path id="Vector" d="M3.78 0C4.68 0.06 5.21 0.29 5.94 0.78C6.12 0.89 6.31 1.01 6.49 1.13C6.57 1.18 6.66 1.24 6.75 1.29C7.13 1.52 7.53 1.7 7.93 1.89C8.22 2.1 8.22 2.1 8.4 2.32C8.4 2.47 8.4 2.61 8.4 2.76C7.71 2.76 7.02 2.77 6.34 2.77C6.14 2.77 5.95 2.77 5.75 2.77C4.68 2.78 3.62 2.75 2.55 2.61C2.41 2.32 2.41 2.32 2.4 1.89C2.6 1.57 2.83 1.29 3.08 1C3.35 0.69 3.57 0.35 3.78 0Z" fill="#D0D0D0" fill-opacity="1.000000" fill-rule="nonzero"/>
</svg>
