<svg width="61.163086" height="61.147522" viewBox="0 0 61.1631 61.1475" fill="none" xmlns="http://www.w3.org/2000/svg" xmlns:xlink="http://www.w3.org/1999/xlink">
	<desc>
			Created with Pixso.
	</desc>
	<defs/>
	<path id="Vector" d="M39.69 6.48C39.76 6.54 39.82 6.6 39.89 6.66C41.83 8.47 43.62 10.88 44.64 13.33C44.82 13.63 44.95 13.68 45.28 13.8C45.43 13.85 45.43 13.85 45.59 13.91C45.7 13.95 45.81 13.99 45.92 14.03C49.04 15.21 51.63 17.14 54.05 19.41C54.13 19.48 54.21 19.56 54.29 19.63C57.95 23.1 60.12 28.22 60.9 33.12C60.91 33.2 60.93 33.28 60.94 33.37C61.8 39.7 60.09 46.22 56.29 51.34C52.39 56.44 46.75 59.91 40.39 60.91C33.85 61.77 27.14 60.23 21.87 56.22C20.95 55.5 20.1 54.74 19.26 53.94C19.18 53.87 19.1 53.79 19.02 53.72C16.53 51.37 14.62 48.02 13.55 44.8C13.22 44.61 12.9 44.43 12.56 44.27C9.72 42.81 7.11 40.73 5.17 38.2C5.07 38.08 4.97 37.95 4.87 37.83C0.97 32.99 -0.47 26.7 0.12 20.6C0.66 15.85 2.78 11.2 6.06 7.73C6.2 7.56 6.34 7.4 6.48 7.23C10.29 2.88 16.18 0.47 21.86 0.04C28.53 -0.37 34.78 1.99 39.69 6.48ZM21.67 17.5C21.57 17.59 21.57 17.59 21.46 17.67C17.01 21.24 14 26.15 12.79 31.72C12.77 31.81 12.75 31.9 12.72 32C11.89 35.75 11.92 41.17 13.68 44.67C13.91 44.79 13.91 44.79 14.21 44.9C14.32 44.94 14.43 44.99 14.54 45.03C14.66 45.07 14.78 45.12 14.91 45.16C15.03 45.21 15.15 45.25 15.27 45.3C16.92 46.04 16.92 46.04 18.63 46.07C18.57 45.96 18.52 45.85 18.46 45.74C17.27 43.33 16.46 40.64 16.44 37.94C16.44 37.85 16.44 37.75 16.44 37.66C16.41 33.75 16.41 33.75 16.85 32.1C16.87 32 16.9 31.9 16.93 31.8C18.38 26.28 21.74 21.84 26.67 18.95C29.28 17.48 32.35 16.49 35.37 16.46C35.46 16.46 35.55 16.46 35.65 16.45C39.43 16.41 42.73 17.01 46.18 18.65C46.1 17.75 45.85 16.95 45.56 16.1C45.49 15.9 45.49 15.9 45.42 15.7C45.33 15.44 45.25 15.18 45.15 14.93C45.08 14.72 45.01 14.51 44.95 14.3C44.79 13.86 44.68 13.71 44.26 13.49C44.1 13.44 43.94 13.4 43.77 13.35C43.68 13.33 43.59 13.3 43.5 13.28C43.21 13.2 42.91 13.13 42.62 13.06C42.52 13.04 42.43 13.01 42.33 12.99C35.18 11.25 27.44 12.93 21.67 17.5ZM46.43 19.03C46.45 19.15 46.46 19.27 46.48 19.39C46.67 20.73 46.73 22.05 46.73 23.41C46.73 23.51 46.73 23.62 46.73 23.73C46.73 25.5 46.6 27.2 46.18 28.93C46.14 29.09 46.14 29.09 46.09 29.26C45.27 32.52 43.76 35.61 41.61 38.2C41.52 38.31 41.52 38.31 41.43 38.42C37.71 42.97 32.19 45.99 26.34 46.66C25.36 46.74 24.37 46.75 23.39 46.75C23.24 46.75 23.24 46.75 23.08 46.75C21.7 46.75 20.37 46.65 19.01 46.45C20.51 50.36 24.63 53.45 28.3 55.18C33.27 57.37 38.87 57.51 43.95 55.59C47.34 54.25 50.44 52.05 52.65 49.12C52.75 48.98 52.85 48.85 52.96 48.72C55.56 45.27 56.9 41.04 56.89 36.75C56.89 36.6 56.89 36.6 56.89 36.46C56.86 30.89 54.55 25.97 50.7 22.01C50.23 21.54 49.72 21.14 49.19 20.74C49.1 20.67 49 20.6 48.91 20.53C47.76 19.54 47.76 19.54 46.43 19.03Z" fill="#034542" fill-opacity="1.000000" fill-rule="nonzero"/>
</svg>
