<svg width="81.759644" height="9.490002" viewBox="0 0 81.7596 9.49" fill="none" xmlns="http://www.w3.org/2000/svg" xmlns:xlink="http://www.w3.org/1999/xlink">
	<desc>
			Created with Pixso.
	</desc>
	<defs/>
	<path id="TUNING" d="M46.84 0L46.84 9.35L48.61 9.35L48.61 0L46.84 0ZM74.72 9.17C75.35 9.38 76.03 9.49 76.75 9.49C77.48 9.49 78.15 9.4 78.75 9.22C79.37 9.04 79.9 8.78 80.35 8.45C80.8 8.1 81.15 7.67 81.39 7.17C81.63 6.67 81.75 6.09 81.75 5.43L81.75 5.25C81.75 5.16 81.75 5.07 81.74 4.96Q81.73 4.79 81.7 4.61L76.83 4.61L76.83 6.11L79.99 6.11C79.98 6.33 79.91 6.55 79.77 6.76C79.61 6.99 79.39 7.19 79.1 7.37C78.83 7.54 78.5 7.67 78.11 7.77C77.73 7.86 77.32 7.91 76.88 7.91Q76.41 7.91 75.96 7.82Q75.75 7.78 75.54 7.72Q74.89 7.51 74.38 7.12C74.05 6.86 73.79 6.53 73.6 6.14C73.41 5.75 73.32 5.3 73.32 4.79C73.32 4.35 73.41 3.94 73.59 3.57C73.78 3.2 74.04 2.87 74.36 2.6C74.68 2.32 75.06 2.1 75.49 1.95C75.93 1.79 76.4 1.71 76.91 1.71C77.3 1.71 77.66 1.76 78.01 1.87C78.37 1.96 78.7 2.09 79.01 2.26C79.32 2.41 79.62 2.61 79.9 2.84L80.96 1.67C80.72 1.4 80.39 1.15 79.99 0.92C79.59 0.68 79.12 0.5 78.6 0.36C78.08 0.21 77.52 0.14 76.92 0.14C76.16 0.14 75.46 0.26 74.8 0.49C74.15 0.72 73.58 1.05 73.1 1.48C72.61 1.89 72.23 2.39 71.95 2.96C71.68 3.52 71.55 4.13 71.55 4.79C71.55 5.53 71.68 6.19 71.95 6.77Q72.2 7.3 72.56 7.73Q72.79 8.01 73.07 8.25C73.55 8.65 74.1 8.96 74.72 9.17ZM16.76 8.9C17.41 9.26 18.16 9.43 19.01 9.43C19.87 9.43 20.63 9.26 21.27 8.9C21.92 8.54 22.42 8.05 22.79 7.43C23.16 6.81 23.35 6.1 23.35 5.31L23.35 0.24L21.71 0.24L21.71 5.23Q21.71 5.84 21.49 6.34Q21.43 6.46 21.36 6.59C21.12 6.98 20.8 7.29 20.4 7.52C19.99 7.75 19.53 7.86 19.01 7.86C18.53 7.86 18.09 7.75 17.68 7.52C17.28 7.29 16.96 6.98 16.73 6.59C16.5 6.19 16.38 5.74 16.38 5.23L16.38 0.24L14.68 0.24L14.68 5.31Q14.68 6.27 15.04 7.07Q15.12 7.26 15.22 7.43C15.6 8.05 16.11 8.54 16.76 8.9ZM3.17 1.82L3.17 9.35L4.86 9.35L4.86 1.82L8.12 1.82L8.12 0.26L-6.56e-6 0.26L-6.56e-6 1.82L3.17 1.82ZM30.85 0.26L30.85 9.35L32.53 9.35L32.53 5.83Q32.53 5.49 32.5 5.16Q32.49 4.82 32.46 4.48C32.46 4.25 32.44 4.01 32.41 3.78C32.39 3.54 32.36 3.29 32.33 3.04Q32.32 2.86 32.31 2.67L38.48 9.35L40.11 9.35L40.11 0.26L38.43 0.26L38.43 2.99Q38.43 3.45 38.44 3.92L38.47 4.83C38.49 5.13 38.51 5.43 38.52 5.73C38.54 6.01 38.56 6.3 38.59 6.59C38.61 6.76 38.63 6.93 38.65 7.09L32.45 0.26L30.85 0.26ZM55.34 0.26L55.34 9.35L57.02 9.35L57.02 5.83Q57.02 5.49 56.99 5.16Q56.98 4.82 56.95 4.48C56.94 4.25 56.93 4.01 56.9 3.78C56.88 3.54 56.85 3.29 56.82 3.04Q56.81 2.86 56.8 2.67L62.97 9.35L64.6 9.35L64.6 0.26L62.92 0.26L62.92 2.99Q62.92 3.45 62.93 3.92L62.96 4.83C62.98 5.13 62.99 5.43 63.01 5.73C63.03 6.01 63.05 6.3 63.08 6.59Q63.11 6.84 63.14 7.09L56.94 0.26L55.34 0.26Z" fill="#F1B83F" fill-opacity="1.000000" fill-rule="evenodd"/>
</svg>
