<svg width="71.000000" height="71.000000" viewBox="0 0 71 71" fill="none" xmlns="http://www.w3.org/2000/svg" xmlns:xlink="http://www.w3.org/1999/xlink">
	<desc>
			Created with Pixso.
	</desc>
	<defs>
		<clipPath id="clip256_1186">
			<rect id="Simplification" rx="0.000000" width="70.000000" height="70.000000" transform="translate(0.500000 0.500000)" fill="white" fill-opacity="0"/>
		</clipPath>
	</defs>
	<rect id="Simplification" rx="0.000000" width="70.000000" height="70.000000" transform="translate(0.500000 0.500000)" fill="#FFFFFF" fill-opacity="0"/>
	<g clip-path="url(#clip256_1186)">
		<path id="Vector" d="M20.37 23.55C20.48 23.55 20.58 23.55 20.69 23.55C21.04 23.55 21.39 23.55 21.73 23.56C21.97 23.56 22.21 23.56 22.46 23.56C23.09 23.56 23.72 23.56 24.35 23.56C25 23.56 25.64 23.56 26.29 23.56C27.55 23.56 28.82 23.57 30.09 23.57C30.11 23.65 30.12 23.73 30.14 23.81C30.61 25.91 30.61 25.91 31.3 27.95C31.38 28.16 31.47 28.37 31.55 28.59C31.58 28.68 31.62 28.77 31.66 28.86C31.75 29.13 31.82 29.39 31.89 29.67C31.66 29.67 31.66 29.67 31.43 29.67C30 29.67 28.57 29.68 27.13 29.69C26.4 29.69 25.66 29.7 24.93 29.7C24.21 29.7 23.5 29.7 22.79 29.71C22.52 29.71 22.25 29.71 21.98 29.71C19.96 29.66 19.96 29.66 18.16 30.5C17.57 31.16 17.27 32.06 16.93 32.87C16.78 33.23 16.62 33.59 16.47 33.95C16.38 34.15 16.3 34.34 16.21 34.54C15.71 35.72 15.19 36.9 14.68 38.08C14.52 38.44 14.36 38.8 14.21 39.17C14.11 39.39 14.01 39.62 13.91 39.84C13.87 39.94 13.82 40.05 13.78 40.15C13.46 40.87 13.46 40.87 13.31 41.18C13.45 41.18 13.59 41.18 13.74 41.18C17.24 41.17 20.73 41.16 24.23 41.16C25.91 41.16 27.6 41.16 29.29 41.16C30.77 41.15 32.24 41.15 33.71 41.15C34.5 41.15 35.27 41.15 36.05 41.15C36.79 41.14 37.52 41.14 38.26 41.15C38.53 41.15 38.8 41.15 39.06 41.14C40.95 41.12 41.88 41.41 43.26 42.71C43.74 43.05 44.24 43.36 44.73 43.68C44.93 43.8 44.93 43.8 45.13 43.93C48.15 45.81 51.43 47.74 55.11 46.95C57.1 46.45 58.99 45.43 60.66 44.26C61.01 44.09 61.01 44.09 61.32 44.18C61.67 44.45 61.96 44.74 62.26 45.06C62.37 45.17 62.37 45.17 62.48 45.29C64.39 47.32 65.19 49.98 65.19 52.72C65.19 52.85 65.19 52.97 65.2 53.1C65.2 53.51 65.2 53.92 65.2 54.33C65.2 54.47 65.2 54.61 65.2 54.76C65.2 55.5 65.2 56.25 65.2 56.99C65.21 57.76 65.21 58.53 65.21 59.29C65.21 59.89 65.22 60.48 65.22 61.07C65.22 61.35 65.22 61.63 65.22 61.92C65.23 64.54 64.95 66.92 63.06 68.91C61.25 70.59 59.4 71.11 56.97 71.04C54.95 70.93 53.29 69.94 51.91 68.5C50.34 66.5 50.19 64.66 50.19 62.12C38.53 62.12 26.86 62.12 14.83 62.12C14.83 62.99 14.83 63.86 14.83 64.75C14.47 66.69 13.55 68.41 11.97 69.61C10.52 70.58 9.19 71.02 7.47 71.03C7.28 71.03 7.28 71.03 7.09 71.04C5.02 71.05 3.35 70.18 1.9 68.75C0.8 67.61 -0.02 66.05 -0.03 64.44C-0.03 64.32 -0.03 64.2 -0.03 64.08C-0.03 63.95 -0.03 63.82 -0.03 63.69C-0.03 63.55 -0.03 63.42 -0.03 63.28C-0.04 62.83 -0.04 62.38 -0.04 61.93C-0.04 61.77 -0.04 61.62 -0.04 61.46C-0.04 60.64 -0.05 59.82 -0.05 59C-0.05 58.16 -0.05 57.32 -0.06 56.48C-0.06 55.83 -0.06 55.18 -0.06 54.53C-0.06 54.22 -0.07 53.91 -0.07 53.6C-0.09 51.42 0.03 49.47 1.08 47.51C1.13 47.41 1.17 47.32 1.22 47.23C1.62 46.49 2.06 45.82 2.63 45.2C2.73 45.09 2.83 44.98 2.93 44.86C3.48 44.27 4 43.81 4.72 43.43C6.07 42.68 6.49 41.72 7.02 40.32C7.1 40.1 7.2 39.88 7.29 39.65C7.48 39.17 7.67 38.69 7.86 38.21C8.36 36.97 8.91 35.74 9.44 34.51C9.62 34.11 9.79 33.71 9.97 33.31C10.51 32.05 11.07 30.79 11.63 29.53C11.68 29.42 11.73 29.31 11.78 29.19C12.81 26.9 14.39 25.1 16.77 24.17C17.97 23.75 19.1 23.55 20.37 23.55ZM9.64 51.37C9.5 51.53 9.5 51.53 9.36 51.7C8.86 52.4 8.93 53.25 9.01 54.08C9.24 54.85 9.86 55.45 10.53 55.88C11.31 56.22 12.06 56.2 12.89 56.2C13.04 56.2 13.19 56.2 13.34 56.2C13.65 56.2 13.96 56.2 14.27 56.2C14.74 56.2 15.22 56.2 15.69 56.21C15.99 56.21 16.29 56.21 16.6 56.21C16.74 56.21 16.88 56.21 17.02 56.21C18.15 56.2 19.13 56.02 19.96 55.19C20.5 54.44 20.7 53.75 20.66 52.83C20.49 52.04 20.13 51.33 19.45 50.87C18.79 50.47 18.26 50.32 17.49 50.31C17.36 50.31 17.23 50.31 17.09 50.31C16.95 50.31 16.81 50.31 16.66 50.3C16.51 50.3 16.36 50.3 16.21 50.3C15.9 50.3 15.59 50.3 15.28 50.3C14.8 50.3 14.33 50.29 13.85 50.29C13.55 50.29 13.25 50.29 12.94 50.29C12.8 50.29 12.66 50.28 12.51 50.28C11.36 50.29 10.42 50.44 9.64 51.37ZM45.14 51.37C45 51.53 45 51.53 44.86 51.7C44.36 52.4 44.43 53.25 44.51 54.08C44.74 54.85 45.36 55.45 46.03 55.88C46.81 56.22 47.56 56.2 48.39 56.2C48.54 56.2 48.69 56.2 48.84 56.2C49.15 56.2 49.46 56.2 49.77 56.2C50.24 56.2 50.72 56.2 51.19 56.21C51.49 56.21 51.79 56.21 52.1 56.21C52.24 56.21 52.38 56.21 52.52 56.21C53.65 56.2 54.63 56.02 55.46 55.19C56 54.44 56.2 53.75 56.16 52.83C55.99 52.04 55.63 51.33 54.95 50.87C54.29 50.47 53.76 50.32 52.99 50.31C52.86 50.31 52.73 50.31 52.59 50.31C52.45 50.31 52.31 50.31 52.16 50.3C52.01 50.3 51.86 50.3 51.71 50.3C51.4 50.3 51.09 50.3 50.78 50.3C50.3 50.3 49.83 50.29 49.35 50.29C49.05 50.29 48.75 50.29 48.44 50.29C48.3 50.29 48.16 50.28 48.01 50.28C46.86 50.29 45.92 50.44 45.14 51.37Z" fill="#034542" fill-opacity="1.000000" fill-rule="nonzero"/>
		<path id="Vector" d="M56.29 0.69C56.5 0.76 56.71 0.83 56.93 0.9C57.49 1.09 58.05 1.29 58.62 1.49C59.2 1.69 59.78 1.89 60.36 2.09C61.27 2.4 62.19 2.72 63.1 3.03C64 3.34 64.9 3.65 65.8 3.96C66.32 4.13 66.84 4.31 67.36 4.49C67.58 4.57 67.81 4.64 68.04 4.72C68.34 4.82 68.65 4.93 68.95 5.03C69.11 5.09 69.28 5.14 69.44 5.2C70.14 5.52 70.7 5.92 71 6.65C71.03 6.95 71.03 6.95 71.03 7.27C71.03 7.46 71.03 7.46 71.04 7.65C71.04 7.78 71.04 7.92 71.04 8.06C71.04 8.2 71.04 8.34 71.04 8.49C71.04 8.97 71.04 9.44 71.04 9.91C71.04 10.25 71.04 10.58 71.04 10.91C71.05 11.61 71.05 12.3 71.05 13C71.05 13.88 71.05 14.77 71.05 15.66C71.06 16.34 71.06 17.03 71.06 17.71C71.06 18.04 71.06 18.37 71.06 18.69C71.09 23.55 69.73 27.9 66.7 31.75C66.64 31.82 66.58 31.9 66.52 31.97C65.08 33.79 63.42 35.48 61.57 36.88C61.44 36.98 61.44 36.98 61.31 37.08C59.55 38.42 57.68 39.56 55.74 40.63C55.64 40.68 55.54 40.74 55.44 40.79C54.5 41.3 53.62 41.72 52.55 41.46C46 39 39.96 33.45 37 27.13C36.02 24.94 35.45 22.6 35.46 20.2C35.45 20.06 35.45 19.91 35.45 19.76C35.45 19.28 35.45 18.8 35.45 18.33C35.45 17.99 35.45 17.66 35.45 17.32C35.44 16.63 35.44 15.93 35.44 15.23C35.44 14.33 35.44 13.44 35.43 12.55C35.43 11.86 35.43 11.17 35.43 10.48C35.43 10.15 35.43 9.82 35.43 9.49C35.42 9.03 35.43 8.57 35.43 8.11C35.43 7.97 35.42 7.84 35.42 7.7C35.43 6.91 35.51 6.44 36.05 5.82C36.69 5.3 37.36 5.07 38.13 4.82C38.25 4.78 38.37 4.74 38.5 4.7C38.76 4.62 39.02 4.53 39.29 4.44C39.85 4.26 40.41 4.08 40.97 3.89C41.26 3.8 41.54 3.7 41.83 3.61C43.15 3.18 44.46 2.73 45.77 2.28C46.13 2.16 46.48 2.04 46.84 1.92C47.87 1.57 48.89 1.22 49.91 0.84C50.07 0.79 50.23 0.73 50.4 0.66C50.69 0.56 50.98 0.45 51.27 0.34C53.07 -0.31 54.55 0.07 56.29 0.69ZM58.06 13.27C57.95 13.42 57.84 13.56 57.73 13.71C57.61 13.87 57.49 14.03 57.37 14.19C57.31 14.27 57.24 14.36 57.18 14.44C56.87 14.85 56.55 15.25 56.24 15.66C56.11 15.82 55.98 15.98 55.85 16.15C55.75 16.27 55.75 16.27 55.66 16.39C55.46 16.63 55.27 16.88 55.08 17.12C55.02 17.2 54.96 17.28 54.89 17.36C54.76 17.52 54.64 17.69 54.51 17.85C54.18 18.27 53.85 18.69 53.51 19.12C53.44 19.2 53.37 19.29 53.3 19.38C53.16 19.55 53.03 19.72 52.89 19.89C52.61 20.24 52.42 20.51 52.27 20.93C51.77 20.65 51.36 20.33 50.93 19.94C50.45 19.5 49.96 19.07 49.46 18.66C49.29 18.52 49.29 18.52 49.13 18.39C48.29 17.8 47.44 17.76 46.45 17.88C45.62 18.21 45.09 18.77 44.64 19.52C44.35 20.22 44.41 21.08 44.58 21.8C45.13 23.08 46.55 23.93 47.6 24.78C47.96 25.08 48.31 25.39 48.65 25.71C49.19 26.2 49.74 26.65 50.31 27.1C50.38 27.16 50.46 27.21 50.53 27.28C51.42 27.95 52.15 28.13 53.25 28.01C54.41 27.74 55.06 26.68 55.74 25.79C55.81 25.7 55.88 25.61 55.95 25.52C56.25 25.13 56.55 24.73 56.85 24.34C57.37 23.65 57.92 22.96 58.47 22.29C59.13 21.49 59.76 20.68 60.39 19.86C60.76 19.37 61.14 18.89 61.52 18.4C61.59 18.32 61.65 18.24 61.72 18.16C62 17.8 62.28 17.45 62.56 17.09C62.65 16.98 62.73 16.88 62.82 16.77C62.93 16.63 62.93 16.63 63.04 16.49C63.55 15.75 63.61 15.02 63.51 14.14C63.21 13.14 62.53 12.52 61.65 12.01C60.2 11.66 59.01 12.13 58.06 13.27Z" fill="#034542" fill-opacity="1.000000" fill-rule="nonzero"/>
	</g>
</svg>
