<svg width="53.138672" height="63.238464" viewBox="0 0 53.1387 63.2385" fill="none" xmlns="http://www.w3.org/2000/svg" xmlns:xlink="http://www.w3.org/1999/xlink">
	<desc>
			Created with Pixso.
	</desc>
	<defs/>
	<path id="Vector" d="M26.57 0C26.75 0 26.92 0 27.1 0C28.95 0.11 30.65 0.71 32.36 1.38C32.73 1.52 33.11 1.66 33.48 1.8C33.76 1.91 34.04 2.02 34.32 2.13C35.7 2.66 37.09 3.18 38.48 3.7C38.72 3.79 38.95 3.88 39.19 3.96C40.03 4.28 40.86 4.59 41.7 4.9C42.39 5.16 43.07 5.42 43.76 5.68C43.97 5.76 44.19 5.84 44.4 5.92C47.96 7.25 50.64 8.65 52.36 12.24C53.1 14.13 53.12 15.98 53.12 17.98C53.12 18.23 53.12 18.49 53.12 18.74C53.12 19.42 53.12 20.11 53.12 20.8C53.12 21.22 53.12 21.65 53.12 22.08C53.12 23.58 53.12 25.08 53.12 26.58C53.12 27.97 53.12 29.36 53.13 30.76C53.13 31.96 53.13 33.16 53.13 34.36C53.13 35.07 53.13 35.79 53.13 36.5C53.13 37.17 53.13 37.85 53.13 38.52C53.13 38.77 53.13 39.01 53.13 39.26C53.14 42.51 52.48 45.51 50.18 47.95C49.1 48.98 47.85 49.83 46.65 50.71C46.41 50.89 46.18 51.06 45.94 51.24C45.6 51.49 45.26 51.74 44.92 51.99C44.05 52.63 43.19 53.28 42.33 53.94C41.23 54.79 40.12 55.62 39.01 56.44C38.28 56.97 37.56 57.51 36.84 58.05C35.62 58.97 34.4 59.87 33.18 60.77C32.93 60.95 32.68 61.14 32.44 61.32C30.19 62.96 27.59 63.5 24.85 63.11C22.54 62.66 20.8 61.46 18.97 60.03C18.7 59.82 18.43 59.61 18.16 59.4C17.95 59.25 17.95 59.25 17.75 59.09C17.16 58.64 16.56 58.2 15.96 57.76C14.97 57.03 14 56.29 13.02 55.55C12.08 54.83 11.14 54.12 10.18 53.43C9.07 52.64 7.99 51.82 6.91 50.99C6.21 50.45 5.5 49.92 4.79 49.39C2.32 47.56 0.68 45.36 0.13 42.26C0 41.23 0.03 40.19 0.03 39.16C0.03 38.9 0.02 38.64 0.02 38.38C0.02 37.67 0.02 36.97 0.02 36.27C0.02 35.83 0.02 35.39 0.02 34.95C0.02 33.42 0.01 31.88 0.01 30.34C0.02 28.92 0.01 27.49 0.01 26.06C0 24.83 0 23.61 0 22.38C0 21.64 0 20.91 0 20.18C0 19.49 0 18.8 0 18.11C0 17.86 0 17.61 0 17.36C-0.03 14.19 0.75 11.36 3 9.01C5.09 6.96 8.04 6.18 10.72 5.19C11.22 5.01 11.73 4.82 12.23 4.64C12.33 4.6 12.43 4.56 12.53 4.52C12.74 4.45 12.94 4.37 13.15 4.3C13.46 4.18 13.77 4.07 14.07 3.96C15.41 3.46 16.74 2.96 18.08 2.46C18.41 2.33 18.75 2.2 19.1 2.07C19.57 1.89 20.05 1.71 20.53 1.53C24.56 -0.01 24.56 -0.01 26.57 0ZM33.28 22.2C33.11 22.37 33.11 22.37 32.93 22.55C32.68 22.8 32.44 23.05 32.19 23.3C31.8 23.7 31.41 24.1 31.01 24.5C30.18 25.34 29.35 26.19 28.52 27.03C27.56 28.02 26.6 29 25.63 29.98C25.24 30.37 24.86 30.76 24.47 31.16C24.24 31.4 24 31.64 23.76 31.88C23.66 31.99 23.55 32.1 23.44 32.21C23.34 32.31 23.24 32.41 23.14 32.51C23.06 32.6 22.97 32.69 22.88 32.78C22.63 32.94 22.63 32.94 22.33 32.92C21.88 32.73 21.61 32.4 21.27 32.05C21.2 31.98 21.13 31.91 21.05 31.83C20.75 31.51 20.44 31.2 20.14 30.88C19.91 30.64 19.69 30.41 19.46 30.18C19.33 30.04 19.19 29.9 19.06 29.76C18.44 29.21 17.9 29.06 17.07 29.08C16.41 29.18 15.91 29.53 15.47 30.02C15.21 30.47 15.13 30.86 15.11 31.38C15.11 31.48 15.1 31.59 15.09 31.7C15.26 32.65 16.08 33.31 16.74 33.95C17.86 35.05 17.86 35.05 18.31 35.59C18.8 36.17 19.32 36.71 19.85 37.25C19.98 37.38 19.98 37.38 20.12 37.52C20.7 38.11 21.25 38.58 22.09 38.73C22.2 38.73 22.3 38.73 22.41 38.74C22.56 38.74 22.56 38.74 22.72 38.74C23.78 38.52 24.57 37.5 25.3 36.77C25.44 36.64 25.57 36.5 25.71 36.37C26.07 36 26.44 35.64 26.8 35.28C27.03 35.05 27.26 34.82 27.49 34.59C28.28 33.8 29.08 33 29.87 32.21C30.61 31.47 31.35 30.73 32.09 29.99C32.73 29.35 33.37 28.72 34.01 28.08C34.38 27.7 34.76 27.32 35.15 26.94C35.57 26.52 35.99 26.1 36.42 25.67C36.6 25.49 36.6 25.49 36.8 25.3C37.55 24.53 38.11 23.86 38.17 22.74C38 21.92 37.67 21.46 37 20.95C35.52 20.03 34.28 21.15 33.28 22.2Z" fill="#034542" fill-opacity="1.000000" fill-rule="nonzero"/>
</svg>
