<svg width="77.000000" height="70.000000" viewBox="0 0 77 70" fill="none" xmlns="http://www.w3.org/2000/svg" xmlns:xlink="http://www.w3.org/1999/xlink">
	<desc>
			Created with Pixso.
	</desc>
	<defs>
		<clipPath id="clip256_1181">
			<rect id="Simplification" rx="0.000000" width="76.000000" height="69.000000" transform="translate(0.500000 0.500000)" fill="white" fill-opacity="0"/>
		</clipPath>
	</defs>
	<rect id="Simplification" rx="0.000000" width="76.000000" height="69.000000" transform="translate(0.500000 0.500000)" fill="#FFFFFF" fill-opacity="0"/>
	<g clip-path="url(#clip256_1181)">
		<path id="Vector" d="M61.05 18.04C61.21 18.13 61.37 18.21 61.53 18.3C64.13 19.74 66.5 21.83 68.27 24.21C68.38 24.35 68.49 24.49 68.6 24.63C72.28 29.69 73.73 35.96 72.84 42.12C71.89 48.16 68.58 53.72 63.64 57.34C59.53 60.27 54.82 61.88 49.75 61.85C49.56 61.85 49.37 61.85 49.17 61.85C47.63 61.83 46.16 61.7 44.66 61.35C44.55 61.33 44.44 61.3 44.32 61.28C38.39 59.86 33.09 56.17 29.87 50.95C28.68 48.97 27.83 46.94 27.18 44.72C27.14 44.59 27.1 44.47 27.07 44.34C26.56 42.53 26.41 40.75 26.42 38.88C26.42 38.54 26.41 38.19 26.41 37.84C26.4 35.75 26.7 33.74 27.32 31.74C27.36 31.61 27.4 31.49 27.43 31.36C28.54 27.88 30.4 24.61 33.08 22.1C33.33 21.85 33.58 21.6 33.83 21.35C35.74 19.45 38 18.08 40.45 16.99C40.54 16.95 40.64 16.91 40.73 16.86C47.22 14.05 54.92 14.67 61.05 18.04ZM48.17 27.13C47.56 27.84 47.5 28.39 47.49 29.3C47.49 29.4 47.49 29.5 47.49 29.61C47.49 29.96 47.48 30.3 47.48 30.64C47.48 30.76 47.48 30.88 47.48 31C47.48 31.62 47.48 32.25 47.47 32.87C47.47 33.51 47.47 34.16 47.46 34.8C47.46 35.29 47.46 35.79 47.46 36.28C47.46 36.52 47.45 36.76 47.45 36.99C47.45 37.33 47.45 37.66 47.45 37.99C47.45 38.18 47.45 38.37 47.45 38.56C47.57 39.46 48.02 40.11 48.66 40.74C48.76 40.84 48.87 40.95 48.97 41.05C49.08 41.16 49.19 41.27 49.3 41.38C49.42 41.49 49.53 41.6 49.65 41.72C50.01 42.08 50.38 42.44 50.74 42.8C50.99 43.04 51.23 43.28 51.48 43.53C52.02 44.07 52.57 44.61 53.12 45.15C53.35 45.38 53.58 45.62 53.81 45.85C54.25 46.28 54.58 46.44 55.19 46.49C56.08 46.46 56.58 46.15 57.2 45.54C57.68 44.99 57.77 44.57 57.75 43.86C57.61 43 57.17 42.54 56.54 41.95C56.3 41.78 56.05 41.6 55.8 41.43C54.26 40.37 52.65 39.12 52.21 37.22C51.86 34.79 51.98 32.28 52.15 29.84C52.22 28.67 52.14 28.04 51.4 27.1C50.4 26.31 49.17 26.26 48.17 27.13Z" fill="#034542" fill-opacity="1.000000" fill-rule="nonzero"/>
		<path id="Vector" d="M6.22 36.07C6.43 36.06 6.43 36.06 6.63 36.06C6.78 36.06 6.93 36.06 7.08 36.06C7.24 36.06 7.4 36.06 7.56 36.06C8.08 36.05 8.6 36.05 9.12 36.05C9.3 36.05 9.47 36.05 9.66 36.05C10.6 36.04 11.54 36.04 12.48 36.04C13.45 36.03 14.41 36.03 15.39 36.02C16.13 36.01 16.88 36.01 17.62 36.01C17.98 36.01 18.34 36.01 18.7 36C19.2 36 19.7 36 20.2 36C20.35 36 20.49 36 20.64 35.99C21.63 36 22.12 36.18 22.85 36.84C23.32 37.48 23.39 38.09 23.37 38.87C23.24 39.63 22.86 40.2 22.26 40.69C21.59 41 20.97 40.97 20.24 40.96C20 40.96 20 40.96 19.76 40.97C19.25 40.97 18.73 40.97 18.21 40.97C17.85 40.97 17.49 40.97 17.12 40.97C16.37 40.97 15.61 40.97 14.86 40.97C13.89 40.97 12.92 40.97 11.95 40.97C11.2 40.98 10.46 40.98 9.71 40.98C9.35 40.98 9 40.98 8.64 40.98C8.14 40.98 7.64 40.98 7.14 40.98C6.92 40.98 6.92 40.98 6.69 40.98C5.84 40.97 5.33 40.88 4.66 40.3C4.04 39.62 3.86 39.13 3.87 38.2C3.96 37.35 4.48 36.79 5.11 36.24C5.53 36.1 5.79 36.07 6.22 36.07Z" fill="#034542" fill-opacity="1.000000" fill-rule="nonzero"/>
		<path id="Vector" d="M16.36 23.13C16.54 23.13 16.73 23.13 16.91 23.13C17.11 23.13 17.3 23.13 17.5 23.12C17.71 23.12 17.91 23.12 18.11 23.12C18.54 23.12 18.96 23.12 19.39 23.12C19.93 23.12 20.48 23.11 21.02 23.11C21.44 23.11 21.86 23.11 22.28 23.11C22.58 23.11 22.87 23.1 23.17 23.1C23.35 23.1 23.53 23.1 23.72 23.1C23.88 23.1 24.04 23.1 24.21 23.1C24.83 23.18 25.34 23.4 25.81 23.84C26.52 24.77 26.59 25.45 26.46 26.61C26.13 27.44 25.61 27.77 24.81 28.12C24.35 28.18 24.35 28.18 23.85 28.18C23.66 28.18 23.48 28.18 23.29 28.18C23.08 28.18 22.88 28.18 22.68 28.18C22.47 28.18 22.26 28.18 22.05 28.18C21.62 28.18 21.18 28.18 20.74 28.18C20.18 28.17 19.63 28.18 19.07 28.18C18.64 28.18 18.21 28.18 17.77 28.18C17.57 28.18 17.36 28.18 17.16 28.18C16.87 28.18 16.58 28.18 16.29 28.18C16.13 28.18 15.97 28.18 15.8 28.18C15.08 28.09 14.59 27.83 14.09 27.31C13.6 26.57 13.44 26.01 13.53 25.11C13.82 24.24 14.21 23.75 15.03 23.31C15.51 23.15 15.86 23.13 16.36 23.13Z" fill="#034542" fill-opacity="1.000000" fill-rule="nonzero"/>
		<path id="Vector" d="M16.24 48.84C16.42 48.84 16.61 48.84 16.8 48.84C17 48.83 17.21 48.83 17.41 48.83C17.51 48.83 17.61 48.83 17.72 48.83C18.26 48.82 18.81 48.82 19.35 48.82C19.8 48.82 20.25 48.81 20.7 48.81C21.24 48.8 21.78 48.8 22.32 48.79C22.53 48.79 22.74 48.79 22.94 48.79C24.14 48.77 25.09 48.78 26.01 49.62C26.56 50.3 26.54 50.91 26.52 51.75C26.42 52.53 26.04 52.91 25.49 53.43C24.88 53.84 24.36 53.85 23.63 53.86C23.37 53.86 23.37 53.86 23.1 53.87C22.91 53.87 22.71 53.87 22.52 53.87C22.32 53.87 22.12 53.87 21.92 53.87C21.51 53.88 21.09 53.88 20.67 53.88C20.14 53.88 19.61 53.89 19.08 53.89C18.57 53.9 18.06 53.9 17.56 53.9C17.37 53.9 17.18 53.9 16.98 53.91C15.91 53.9 15.19 53.83 14.28 53.23C13.66 52.45 13.45 51.83 13.53 50.83C13.8 50.03 14.17 49.48 14.88 49.02C15.37 48.86 15.73 48.85 16.24 48.84Z" fill="#034542" fill-opacity="1.000000" fill-rule="nonzero"/>
	</g>
</svg>
