<svg width="108.000000" height="44.392151" viewBox="0 0 108 44.3922" fill="none" xmlns="http://www.w3.org/2000/svg" xmlns:xlink="http://www.w3.org/1999/xlink">
	<desc>
			Created with Pixso.
	</desc>
	<defs/>
	<mask id="mask112_2049" mask-type="alpha" maskUnits="userSpaceOnUse" x="2.637268" y="13.019608" width="27.529419" height="18.352943">
		<path id="Element" d="M2.63 13.01L30.16 13.01L30.16 31.37L2.63 31.37L2.63 13.01Z" fill="#000008" fill-opacity="1.000000" fill-rule="nonzero"/>
	</mask>
	<g mask="url(#mask112_2049)">
		<path id="Element" d="M2.63 13.01L30.17 13.01L30.17 31.37L2.63 31.37L2.63 13.01Z" fill="#FFFFFF" fill-opacity="1.000000" fill-rule="evenodd"/>
		<path id="Element" d="M7.05 18.6L9.6 14.8L10.2 15.2L7.65 19L7.05 18.6ZM7.96 19.2L10.51 15.4L11.12 15.81L8.57 19.6L7.96 19.2ZM8.87 19.81L11.42 16.01L12.03 16.41L9.48 20.21L8.87 19.81Z" fill="#000008" fill-opacity="1.000000" fill-rule="evenodd"/>
		<path id="Element" d="M20.74 27.75L23.29 23.95L23.9 24.36L21.35 28.16L20.74 27.75ZM21.65 28.36L24.2 24.56L24.81 24.96L22.26 28.76L21.65 28.36ZM22.56 28.96L25.12 25.16L25.72 25.56L23.17 29.36L22.56 28.96Z" fill="#000008" fill-opacity="1.000000" fill-rule="evenodd"/>
		<path id="Element" d="M21.68 25.62L19.6 28.73" fill="#000008" fill-opacity="1.000000" fill-rule="evenodd"/>
		<path id="Element" d="M21.68 25.62L24.79 27.7" stroke="#FFFFFF" stroke-opacity="1.000000" stroke-width="3.062476"/>
		<path id="Element" d="M12.65 19.68C13.33 18.66 14.38 17.94 15.55 17.68C16.73 17.42 17.94 17.64 18.92 18.29C19.9 18.94 20.57 19.96 20.77 21.14C20.98 22.32 20.72 23.56 20.03 24.58L12.65 19.68Z" fill="#CD2E3A" fill-opacity="1.000000" fill-rule="evenodd"/>
		<path id="Element" d="M12.73 19.62C12.05 20.64 11.78 21.87 11.99 23.04C12.2 24.22 12.86 25.24 13.84 25.89C14.81 26.53 16.02 26.75 17.19 26.49C18.36 26.23 19.4 25.51 20.08 24.5C20.42 23.99 20.55 23.38 20.45 22.79C20.35 22.2 20.01 21.69 19.53 21.37C19.04 21.04 18.44 20.94 17.85 21.07C17.26 21.2 16.74 21.55 16.4 22.06L12.73 19.62Z" fill="#0047A0" fill-opacity="1.000000" fill-rule="evenodd"/>
		<path id="Element" d="M15.8 18.93C16.81 19.6 17.06 20.99 16.35 22.05C15.64 23.1 14.25 23.41 13.24 22.74C12.22 22.07 11.98 20.67 12.68 19.62C13.39 18.57 14.78 18.26 15.8 18.93Z" fill="#CD2E3A" fill-opacity="1.000000" fill-rule="evenodd"/>
		<path id="Element" d="M9.61 29.36L7.06 25.57L7.66 25.16L10.22 28.96L9.61 29.36ZM10.52 28.76L7.97 24.96L8.58 24.56L11.13 28.36L10.52 28.76ZM11.43 28.16L8.88 24.36L9.49 23.96L12.04 27.75L11.43 28.16Z" fill="#000008" fill-opacity="1.000000" fill-rule="evenodd"/>
		<path id="Element" d="M23.3 20.21L20.75 16.41L21.36 16.01L23.91 19.81L23.3 20.21ZM24.21 19.61L21.66 15.81L22.27 15.4L24.82 19.2L24.21 19.61ZM25.13 19L22.57 15.2L23.18 14.8L25.73 18.6L25.13 19Z" fill="#000008" fill-opacity="1.000000" fill-rule="evenodd"/>
		<path id="Element" d="M9.08 26.97L10.01 26.35L9.08 26.97ZM21.69 18.55L22.78 17.82L21.69 18.55ZM23.71 17.19L24.64 16.57" fill="#000008" fill-opacity="1.000000" fill-rule="evenodd"/>
		<path id="Element" d="M9.08 26.97L10.01 26.35M21.69 18.55L22.78 17.82M23.71 17.19L24.64 16.57" stroke="#FFFFFF" stroke-opacity="1.000000" stroke-width="3.062476"/>
	</g>
	<path id="Корея" d="M44.5 23.03L47.42 23.03L51.96 29.19L54.24 29.19L49 21.97L54 15.19L51.86 15.19L47.46 21.27L44.5 21.27L44.5 15.19L42.54 15.19L42.54 29.19L44.5 29.19L44.5 23.03ZM57.89 28.79Q59.02 29.31 60.38 29.31Q61.75 29.31 62.87 28.79Q63.04 28.71 63.21 28.61Q63.88 28.24 64.39 27.71Q64.84 27.25 65.16 26.68Q65.29 26.47 65.39 26.25Q65.88 25.18 65.88 23.89Q65.88 22.58 65.38 21.51Q65.28 21.3 65.16 21.1Q64.82 20.51 64.36 20.04Q63.85 19.54 63.21 19.18Q63.07 19.1 62.92 19.04Q61.78 18.49 60.38 18.49Q58.98 18.49 57.84 19.03Q57.69 19.1 57.54 19.18Q56.87 19.55 56.35 20.07Q55.9 20.53 55.56 21.1Q55.46 21.29 55.37 21.48Q54.86 22.57 54.86 23.89Q54.86 25.2 55.35 26.27Q55.45 26.48 55.56 26.68Q55.88 27.23 56.31 27.68Q56.84 28.23 57.54 28.61Q57.71 28.71 57.89 28.79ZM76.71 19.01Q75.62 18.49 74.28 18.49Q73.12 18.49 72.16 18.92Q72.14 18.93 72.12 18.94Q71.67 19.15 71.29 19.44Q70.85 19.79 70.5 20.27L70.5 18.59L68.66 18.59L68.66 33.07L70.58 33.07L70.58 27.59Q70.97 28.09 71.46 28.45Q71.8 28.69 72.18 28.87Q72.23 28.9 72.28 28.92Q73.19 29.31 74.28 29.31Q75.62 29.31 76.71 28.8Q76.88 28.72 77.04 28.63Q77.62 28.31 78.07 27.86Q78.58 27.37 78.95 26.72Q78.97 26.67 79 26.63Q79.63 25.43 79.63 23.89Q79.63 22.32 78.97 21.11Q78.96 21.09 78.95 21.07Q78.59 20.45 78.1 19.96Q77.63 19.5 77.04 19.17Q76.88 19.08 76.71 19.01ZM91.96 24.53Q92 24.17 92 23.95Q92 22.37 91.34 21.14Q91.33 21.12 91.32 21.11Q90.94 20.39 90.37 19.86Q89.96 19.47 89.46 19.18Q89.3 19.09 89.13 19.01Q88.07 18.49 86.76 18.49Q85.49 18.49 84.44 18.97Q84.23 19.07 84.02 19.18Q83.52 19.47 83.1 19.86Q82.53 20.39 82.13 21.11Q82.01 21.33 81.91 21.55Q81.44 22.62 81.44 23.89Q81.44 25.17 81.91 26.24Q82.02 26.47 82.14 26.69Q82.43 27.19 82.82 27.61Q83.38 28.21 84.16 28.62Q85.46 29.31 87.13 29.31Q88.46 29.31 89.53 28.87Q90.29 28.56 90.88 28.04Q91.11 27.83 91.31 27.59L90.26 26.35Q89.84 26.81 89.33 27.11Q88.42 27.63 87.2 27.63Q85.93 27.63 85 27.07Q84.78 26.94 84.59 26.78Q84.14 26.42 83.85 25.95Q83.46 25.33 83.36 24.53L91.96 24.53ZM103.18 29.19L103.18 18.59L98.54 18.59Q96.36 18.59 95.12 19.54Q94.73 19.83 94.47 20.21Q93.88 21.05 93.88 22.31Q93.88 23.4 94.37 24.18Q94.44 24.28 94.52 24.38Q94.55 24.43 94.59 24.47Q95.22 25.23 96.36 25.57L93.78 29.19L95.84 29.19L98.16 25.83L101.46 25.83L101.46 29.19L103.18 29.19ZM85.08 20.5Q85.81 20.11 86.76 20.11Q87.67 20.11 88.39 20.49Q88.75 20.68 89.06 20.96Q89.4 21.27 89.64 21.65Q90.06 22.3 90.16 23.15L83.36 23.15Q83.47 22.22 83.93 21.53Q84.15 21.21 84.44 20.95Q84.74 20.68 85.08 20.5ZM61.87 27.34Q61.19 27.63 60.38 27.63Q59.55 27.63 58.86 27.32Q58.7 27.25 58.55 27.16Q58.25 26.99 57.99 26.76Q57.56 26.37 57.26 25.84Q57.25 25.82 57.24 25.79Q56.8 24.96 56.8 23.89Q56.8 22.81 57.25 21.96Q57.26 21.95 57.26 21.94Q57.57 21.39 58.02 21Q58.26 20.79 58.55 20.63Q58.68 20.56 58.81 20.5Q59.52 20.17 60.38 20.17Q61.22 20.17 61.91 20.48Q62.06 20.55 62.21 20.63Q62.52 20.81 62.77 21.04Q63.19 21.42 63.47 21.94Q63.94 22.79 63.94 23.89Q63.94 24.98 63.49 25.82Q63.48 25.83 63.47 25.84Q63.2 26.35 62.8 26.72Q62.53 26.97 62.21 27.16Q62.04 27.26 61.87 27.34ZM75.64 27.32Q74.95 27.63 74.12 27.63Q73.4 27.63 72.78 27.39Q72.53 27.3 72.3 27.16Q71.94 26.96 71.65 26.68Q71.28 26.32 71.02 25.84Q70.56 24.99 70.56 23.89Q70.56 22.79 71.03 21.95Q71.31 21.45 71.71 21.08Q71.98 20.83 72.31 20.64Q72.51 20.52 72.73 20.43Q73.37 20.17 74.12 20.17Q74.98 20.17 75.69 20.5Q75.82 20.56 75.95 20.63Q76.24 20.8 76.49 21.02Q76.93 21.4 77.23 21.94Q77.23 21.95 77.24 21.96Q77.7 22.81 77.7 23.89Q77.7 24.96 77.25 25.79Q77.24 25.82 77.23 25.84Q76.94 26.37 76.52 26.75Q76.26 26.98 75.95 27.16Q75.8 27.25 75.64 27.32ZM96.24 23.69Q95.84 23.19 95.84 22.37Q95.84 21.6 96.21 21.11Q96.85 20.27 98.6 20.27L101.46 20.27L101.46 24.45L98.52 24.45Q97.18 24.45 96.5 23.94Q96.35 23.83 96.24 23.69Z" fill="#FFFFFF" fill-opacity="1.000000" fill-rule="evenodd"/>
</svg>
