<svg width="28" height="19" viewBox="0 0 28 19" fill="none" xmlns="http://www.w3.org/2000/svg">
<mask id="mask0_260_3148" style="mask-type:luminance" maskUnits="userSpaceOnUse" x="0" y="0" width="28" height="19">
<path d="M0.137207 0.0196075H27.6666V18.3726H0.137207V0.0196075Z" fill="white"/>
</mask>
<g mask="url(#mask0_260_3148)">
<path fill-rule="evenodd" clip-rule="evenodd" d="M0.136963 0.0195198H27.6704V18.3725H0.136963V0.0195198Z" fill="white"/>
<path fill-rule="evenodd" clip-rule="evenodd" d="M4.55103 5.60352L7.102 1.80478L7.70953 2.20717L5.15855 6.0059L4.55103 5.60352ZM5.46232 6.2071L8.01329 2.40836L8.62082 2.81075L6.06985 6.60948L5.46232 6.2071ZM6.37361 6.81068L8.92458 3.01194L9.53211 3.41433L6.98114 7.21306L6.37361 6.81068Z" fill="#000008"/>
<path fill-rule="evenodd" clip-rule="evenodd" d="M18.2468 14.7583L20.7978 10.9595L21.4053 11.3619L18.8544 15.1606L18.2468 14.7583ZM19.1581 15.3618L21.7091 11.5631L22.3166 11.9655L19.7656 15.7642L19.1581 15.3618ZM20.0694 15.9654L22.6204 12.1667L23.2279 12.5691L20.6769 16.3678L20.0694 15.9654Z" fill="#000008"/>
<path fill-rule="evenodd" clip-rule="evenodd" d="M19.1807 12.6232L22.2933 14.7039L19.1807 12.6232Z" fill="#000008"/>
<path d="M19.1807 12.6232L22.2933 14.7039" stroke="white" stroke-width="3.06248"/>
<path fill-rule="evenodd" clip-rule="evenodd" d="M10.1543 6.68805C10.838 5.66899 11.8826 4.94952 13.0584 4.68793C14.2341 4.42633 15.4447 4.64403 16.4238 5.29314C17.4029 5.94226 18.0703 6.9696 18.2792 8.14918C18.4881 9.32875 18.2214 10.5639 17.5377 11.583L10.1543 6.68805Z" fill="#CD2E3A"/>
<path fill-rule="evenodd" clip-rule="evenodd" d="M10.2312 6.62993C9.55016 7.64428 9.28446 8.87375 9.49255 10.0479C9.70064 11.222 10.3655 12.2446 11.3408 12.8907C12.3161 13.5368 13.522 13.7535 14.6933 13.4931C15.8645 13.2327 16.9051 12.5166 17.5861 11.5022C17.9267 10.9951 18.0595 10.3803 17.9555 9.79327C17.8514 9.20621 17.519 8.69491 17.0313 8.37186C16.5437 8.0488 15.9407 7.94046 15.3551 8.07065C14.7695 8.20084 14.2492 8.55891 13.9087 9.06608L10.2312 6.62993Z" fill="#0047A0"/>
<path d="M13.8551 9.052C14.562 7.99927 14.3144 6.60228 13.302 5.93172C12.2896 5.26117 10.8958 5.57098 10.1889 6.62371C9.48201 7.67644 9.72963 9.07343 10.742 9.74398C11.7544 10.4145 13.1482 10.1047 13.8551 9.052Z" fill="#CD2E3A"/>
<path fill-rule="evenodd" clip-rule="evenodd" d="M7.1123 16.369L4.56152 12.5702L5.16907 12.1678L7.71985 15.9667L7.1123 16.369ZM8.02363 15.7655L5.47285 11.9666L6.0804 11.5643L8.63118 15.3631L8.02363 15.7655ZM8.93495 15.1619L6.38417 11.3631L6.99172 10.9607L9.5425 14.7596L8.93495 15.1619Z" fill="#000008"/>
<path fill-rule="evenodd" clip-rule="evenodd" d="M20.8081 7.21455L18.2571 3.41581L18.8647 3.01342L21.4156 6.81216L20.8081 7.21455ZM21.7194 6.61097L19.1684 2.81223L19.776 2.40984L22.3269 6.20858L21.7194 6.61097ZM22.6307 6.00739L20.0797 2.20865L20.6872 1.80626L23.2382 5.605L22.6307 6.00739Z" fill="#000008"/>
<path fill-rule="evenodd" clip-rule="evenodd" d="M6.58496 13.9772L7.51874 13.353L6.58496 13.9772ZM19.191 5.55056L20.2804 4.82233L19.191 5.55056ZM21.2142 4.19814L22.1479 3.57394L21.2142 4.19814Z" fill="#000008"/>
<path d="M6.58496 13.9772L7.51874 13.353M19.191 5.55056L20.2804 4.82233M21.2142 4.19814L22.1479 3.57394" stroke="white" stroke-width="3.06248"/>
</g>
</svg>
