<svg width="114.000000" height="44.392151" viewBox="0 0 114 44.3922" fill="none" xmlns="http://www.w3.org/2000/svg" xmlns:xlink="http://www.w3.org/1999/xlink">
	<desc>
			Created with Pixso.
	</desc>
	<defs>
		<filter id="filter_112_2043_dd" x="1.228882" y="13.567646" width="35.346191" height="19.032509" filterUnits="userSpaceOnUse" color-interpolation-filters="sRGB">
			<feFlood flood-opacity="0" result="BackgroundImageFix"/>
			<feColorMatrix in="SourceAlpha" type="matrix" values="0 0 0 0 0 0 0 0 0 0 0 0 0 0 0 0 0 0 127 0" result="hardAlpha"/>
			<feOffset dx="0" dy="0.887822"/>
			<feGaussianBlur stdDeviation="0.443911"/>
			<feComposite in2="hardAlpha" operator="out" k2="-1" k3="1"/>
			<feColorMatrix type="matrix" values="0 0 0 0 0.25882 0 0 0 0 0.27843 0 0 0 0 0.29804 0 0 0 0.078 0"/>
			<feBlend mode="normal" in2="BackgroundImageFix" result="effect_dropShadow_1"/>
			<feColorMatrix in="SourceAlpha" type="matrix" values="0 0 0 0 0 0 0 0 0 0 0 0 0 0 0 0 0 0 127 0" result="hardAlpha"/>
			<feOffset dx="0" dy="0"/>
			<feGaussianBlur stdDeviation="0.0369926"/>
			<feComposite in2="hardAlpha" operator="out" k2="-1" k3="1"/>
			<feColorMatrix type="matrix" values="0 0 0 0 0.25882 0 0 0 0 0.27843 0 0 0 0 0.29804 0 0 0 0.32 0"/>
			<feBlend mode="normal" in2="effect_dropShadow_1" result="effect_dropShadow_2"/>
			<feBlend mode="normal" in="SourceGraphic" in2="effect_dropShadow_2" result="shape"/>
		</filter>
		<clipPath id="clip112_2043">
			<rect id="United Arab Emirates" width="32.627453" height="16.313726" transform="translate(2.588257 14.039215)" fill="white" fill-opacity="0"/>
		</clipPath>
	</defs>
	<g filter="url(#filter_112_2043_dd)">
		<rect id="United Arab Emirates" width="32.627453" height="16.313726" transform="translate(2.588257 14.039215)" fill="#FFFFFF" fill-opacity="1.000000"/>
		<g clip-path="url(#clip112_2043)">
			<path id="United Arab Emirates" d="M35.21 14.03L2.58 14.03L2.58 30.35L35.21 30.35L35.21 14.03Z" fill="#00732F" fill-opacity="1.000000" fill-rule="evenodd"/>
			<path id="United Arab Emirates" d="M35.21 19.47L2.58 19.47L2.58 30.35L35.21 30.35L35.21 19.47Z" fill="#FFFFFF" fill-opacity="1.000000" fill-rule="evenodd"/>
			<path id="United Arab Emirates" d="M35.21 24.91L2.58 24.91L2.58 30.35L35.21 30.35L35.21 24.91Z" fill="#000000" fill-opacity="1.000000" fill-rule="evenodd"/>
			<path id="United Arab Emirates" d="M10.74 14.03L2.58 14.03L2.58 30.35L10.74 30.35L10.74 14.03Z" fill="#FF0000" fill-opacity="1.000000" fill-rule="nonzero"/>
		</g>
		<rect id="United Arab Emirates" width="32.627453" height="16.313726" transform="translate(2.588257 14.039215)" stroke="#A8B7D4" stroke-opacity="1.000000" stroke-width="0.055314" stroke-linejoin="round"/>
	</g>
	<path id="Дубай" d="M81.74 19.47Q80.68 18.95 79.37 18.95Q78.13 18.95 77.12 19.43Q77.03 19.47 76.95 19.51Q76.45 19.77 76.03 20.13Q75.55 20.54 75.19 21.09Q75.32 19.03 76.35 17.93Q77.37 16.83 79.45 16.37L83.91 15.41L83.63 13.65L78.79 14.73Q76.35 15.26 75.02 16.76Q74.84 16.96 74.68 17.18Q73.35 19.03 73.35 22.29Q73.35 25.65 74.82 27.5Q75.3 28.11 75.91 28.51Q77.17 29.35 78.99 29.35Q80.59 29.35 81.84 28.69Q82.59 28.29 83.14 27.7Q83.5 27.31 83.78 26.84Q83.85 26.72 83.91 26.59Q84.47 25.49 84.47 24.11Q84.47 22.69 83.88 21.57Q83.85 21.5 83.82 21.44Q83.48 20.85 83.02 20.38Q82.57 19.93 82 19.61Q81.87 19.54 81.74 19.47ZM101.54 16.51Q102.36 17.21 103.84 17.21Q105.31 17.21 106.15 16.51Q106.34 16.35 106.48 16.15Q106.99 15.49 107.01 14.45L105.66 14.45Q105.65 14.93 105.43 15.29Q105.32 15.48 105.14 15.64Q105.08 15.7 105 15.75Q104.53 16.09 103.82 16.09Q103.11 16.09 102.65 15.75Q102.58 15.7 102.52 15.64Q102.36 15.5 102.25 15.33Q102.02 14.96 102.01 14.45L100.7 14.45Q100.72 15.54 101.26 16.21Q101.39 16.37 101.54 16.51ZM60.92 31.48L60.92 27.45L58.87 27.45L58.87 15.19L49.02 15.19L48.89 19.69Q48.77 23.35 48.22 25.36Q47.8 26.96 46.87 27.34Q46.63 27.44 46.37 27.45L45.69 27.45L45.67 32.25L47.53 32.25L47.55 29.19L59.07 29.19L59.07 32.25L60.55 32.25Q61.02 32.7 61.72 32.94Q62.01 33.04 62.32 33.1Q62.77 33.19 63.23 33.19Q64.29 33.19 65.1 32.74Q65.26 32.64 65.42 32.53Q66.33 31.87 67.01 30.25L72.15 18.59L70.27 18.59L66.61 27.07L62.91 18.59L60.91 18.59L65.59 29.17L65.25 29.91Q64.87 30.81 64.4 31.18Q64.32 31.24 64.24 31.29Q63.82 31.55 63.23 31.55Q62.78 31.55 62.37 31.41Q61.81 31.23 61.33 30.77L60.92 31.48ZM50.18 24.77Q50.55 22.83 50.65 19.87L50.75 16.93L56.89 16.93L56.89 27.45L48.99 27.45Q49.81 26.71 50.18 24.77ZM94.26 19.57Q93.09 18.49 90.89 18.49Q89.61 18.49 88.46 18.84Q87.33 19.19 86.51 19.85L87.31 21.29Q87.93 20.77 88.83 20.47Q89.44 20.25 90.06 20.19Q90.36 20.15 90.67 20.15Q92.07 20.15 92.79 20.81Q92.9 20.92 93 21.04Q93.51 21.67 93.51 22.71L93.51 23.09L90.47 23.09Q88.25 23.09 87.23 23.94Q86.79 24.3 86.55 24.76Q86.21 25.39 86.21 26.19Q86.21 26.92 86.5 27.5Q86.77 28.04 87.28 28.45Q88.35 29.31 90.13 29.31Q91.35 29.31 92.23 28.92Q92.94 28.61 93.39 28.09Q93.51 27.95 93.61 27.79L93.61 29.19L95.43 29.19L95.43 22.79Q95.43 20.85 94.46 19.78Q94.36 19.67 94.26 19.57ZM100.81 18.59L98.89 18.59L98.89 29.19L100.65 29.19L107.12 21.47L107.12 29.19L109.05 29.19L109.05 18.59L107.31 18.59L100.81 26.31L100.81 18.59ZM80.66 27.39Q79.93 27.75 79.03 27.75Q78.23 27.75 77.55 27.46Q77.38 27.38 77.22 27.29Q76.86 27.08 76.56 26.79Q76.22 26.46 75.97 26.02Q75.95 25.97 75.92 25.92Q75.52 25.15 75.52 24.17Q75.52 23 76.06 22.17Q76.24 21.88 76.5 21.63Q76.77 21.36 77.09 21.17Q77.91 20.67 79.03 20.67Q80.17 20.67 80.99 21.19Q81.29 21.38 81.55 21.63Q81.78 21.87 81.96 22.15Q82.51 22.98 82.51 24.17Q82.51 25.18 82.09 25.98Q82.08 26 82.07 26.02Q81.84 26.45 81.51 26.78Q81.21 27.07 80.84 27.29Q80.75 27.34 80.66 27.39ZM92.35 27.34Q91.55 27.83 90.45 27.83Q89.35 27.83 88.73 27.37Q88.45 27.16 88.29 26.88Q88.11 26.55 88.11 26.11Q88.11 25.6 88.34 25.25Q88.87 24.47 90.55 24.47L93.51 24.47L93.51 25.95Q93.29 26.48 92.93 26.87Q92.67 27.14 92.35 27.34Z" fill="#FFFFFF" fill-opacity="1.000000" fill-rule="evenodd"/>
</svg>
