<svg width="28" height="19" viewBox="0 0 28 19" fill="none" xmlns="http://www.w3.org/2000/svg">
<path d="M27.6666 0.0403671H0.137207V18.3518H27.6666V0.0403671Z" fill="#B31942"/>
<path d="M0.137207 2.15321H27.6666H0.137207ZM27.6666 4.97035H0.137207H27.6666ZM0.137207 7.78749H27.6666H0.137207ZM27.6666 10.6046H0.137207H27.6666ZM0.137207 13.4218H27.6666H0.137207ZM27.6666 16.2389H0.137207H27.6666Z" fill="#000008"/>
<path d="M0.137207 2.15321H27.6666M27.6666 4.97035H0.137207M0.137207 7.78749H27.6666M27.6666 10.6046H0.137207M0.137207 13.4218H27.6666M27.6666 16.2389H0.137207" stroke="white" stroke-width="1.40857"/>
<path d="M14.0539 0.0403671H0.137207V9.90036H14.0539V0.0403671Z" fill="#0A3161"/>
<path d="M1.29684 0.46294L1.62801 1.48219L0.760986 0.85226H1.83269L0.965664 1.48219L1.29684 0.46294Z" fill="white"/>
<path d="M1.29684 2.43495L1.62801 3.4542L0.760986 2.82427H1.83269L0.965664 3.4542L1.29684 2.43495Z" fill="white"/>
<path d="M1.29684 4.40695L1.62801 5.4262L0.760986 4.79627H1.83269L0.965664 5.4262L1.29684 4.40695Z" fill="white"/>
<path d="M1.29684 6.37894L1.62801 7.3982L0.760986 6.76826H1.83269L0.965664 7.3982L1.29684 6.37894Z" fill="white"/>
<path d="M1.29684 8.35094L1.62801 9.3702L0.760986 8.74026H1.83269L0.965664 9.3702L1.29684 8.35094Z" fill="white"/>
<path d="M2.45651 1.44896L2.78768 2.46821L1.92065 1.83828H2.99236L2.12533 2.46821L2.45651 1.44896Z" fill="white"/>
<path d="M2.45651 3.42097L2.78768 4.44023L1.92065 3.81029H2.99236L2.12533 4.44023L2.45651 3.42097Z" fill="white"/>
<path d="M2.45651 5.39301L2.78768 6.41226L1.92065 5.78233H2.99236L2.12533 6.41226L2.45651 5.39301Z" fill="white"/>
<path d="M2.45651 7.36497L2.78768 8.38422L1.92065 7.75429H2.99236L2.12533 8.38422L2.45651 7.36497Z" fill="white"/>
<path d="M3.61617 0.462944L3.94735 1.4822L3.08032 0.852263H4.15203L3.285 1.4822L3.61617 0.462944Z" fill="white"/>
<path d="M3.61617 2.43499L3.94735 3.45424L3.08032 2.82431H4.15203L3.285 3.45424L3.61617 2.43499Z" fill="white"/>
<path d="M3.61617 4.407L3.94735 5.42625L3.08032 4.79632H4.15203L3.285 5.42625L3.61617 4.407Z" fill="white"/>
<path d="M3.61617 6.37901L3.94735 7.39826L3.08032 6.76832H4.15203L3.285 7.39826L3.61617 6.37901Z" fill="white"/>
<path d="M3.61617 8.35101L3.94735 9.37026L3.08032 8.74033H4.15203L3.285 9.37026L3.61617 8.35101Z" fill="white"/>
<path d="M4.77609 1.44902L5.10726 2.46828L4.24023 1.83834H5.31194L4.44491 2.46828L4.77609 1.44902Z" fill="white"/>
<path d="M4.77609 3.42101L5.10726 4.44026L4.24023 3.81033H5.31194L4.44491 4.44026L4.77609 3.42101Z" fill="white"/>
<path d="M4.77609 5.39301L5.10726 6.41226L4.24023 5.78233H5.31194L4.44491 6.41226L4.77609 5.39301Z" fill="white"/>
<path d="M4.77609 7.36501L5.10726 8.38426L4.24023 7.75433H5.31194L4.44491 8.38426L4.77609 7.36501Z" fill="white"/>
<path d="M5.93575 0.462944L6.26693 1.4822L5.3999 0.852263H6.47161L5.60458 1.4822L5.93575 0.462944Z" fill="white"/>
<path d="M5.93575 2.43497L6.26693 3.45422L5.3999 2.82429H6.47161L5.60458 3.45422L5.93575 2.43497Z" fill="white"/>
<path d="M5.93575 4.40696L6.26693 5.42621L5.3999 4.79628H6.47161L5.60458 5.42621L5.93575 4.40696Z" fill="white"/>
<path d="M5.93575 6.37901L6.26693 7.39826L5.3999 6.76832H6.47161L5.60458 7.39826L5.93575 6.37901Z" fill="white"/>
<path d="M5.93575 8.35101L6.26693 9.37026L5.3999 8.74033H6.47161L5.60458 9.37026L5.93575 8.35101Z" fill="white"/>
<path d="M7.09567 1.44902L7.42684 2.46827L6.55981 1.83834H7.63152L6.76449 2.46827L7.09567 1.44902Z" fill="white"/>
<path d="M7.09567 3.42104L7.42684 4.44029L6.55981 3.81036H7.63152L6.76449 4.44029L7.09567 3.42104Z" fill="white"/>
<path d="M7.09567 5.39303L7.42684 6.41228L6.55981 5.78235H7.63152L6.76449 6.41228L7.09567 5.39303Z" fill="white"/>
<path d="M7.09567 7.36503L7.42684 8.38428L6.55981 7.75435H7.63152L6.76449 8.38428L7.09567 7.36503Z" fill="white"/>
<path d="M8.25509 0.463043L8.58627 1.48229L7.71924 0.852363H8.79094L7.92392 1.48229L8.25509 0.463043Z" fill="white"/>
<path d="M8.25509 2.43503L8.58627 3.45428L7.71924 2.82435H8.79094L7.92392 3.45428L8.25509 2.43503Z" fill="white"/>
<path d="M8.25509 4.40703L8.58627 5.42628L7.71924 4.79635H8.79094L7.92392 5.42628L8.25509 4.40703Z" fill="white"/>
<path d="M8.25509 6.37903L8.58627 7.39828L7.71924 6.76835H8.79094L7.92392 7.39828L8.25509 6.37903Z" fill="white"/>
<path d="M8.25509 8.35103L8.58627 9.37028L7.71924 8.74035H8.79094L7.92392 9.37028L8.25509 8.35103Z" fill="white"/>
<path d="M9.415 1.44905L9.74618 2.4683L8.87915 1.83837H9.95086L9.08383 2.4683L9.415 1.44905Z" fill="white"/>
<path d="M9.415 3.42104L9.74618 4.44029L8.87915 3.81036H9.95086L9.08383 4.44029L9.415 3.42104Z" fill="white"/>
<path d="M9.415 5.39304L9.74618 6.41229L8.87915 5.78236H9.95086L9.08383 6.41229L9.415 5.39304Z" fill="white"/>
<path d="M9.415 7.36503L9.74618 8.38428L8.87915 7.75435H9.95086L9.08383 8.38428L9.415 7.36503Z" fill="white"/>
<path d="M10.5744 0.463013L10.9056 1.48226L10.0386 0.852332H11.1103L10.2433 1.48226L10.5744 0.463013Z" fill="white"/>
<path d="M10.5744 2.43502L10.9056 3.45427L10.0386 2.82434H11.1103L10.2433 3.45427L10.5744 2.43502Z" fill="white"/>
<path d="M10.5744 4.40701L10.9056 5.42626L10.0386 4.79633H11.1103L10.2433 5.42626L10.5744 4.40701Z" fill="white"/>
<path d="M10.5744 6.37901L10.9056 7.39826L10.0386 6.76833H11.1103L10.2433 7.39826L10.5744 6.37901Z" fill="white"/>
<path d="M10.5744 8.35099L10.9056 9.37025L10.0386 8.74031H11.1103L10.2433 9.37025L10.5744 8.35099Z" fill="white"/>
<path d="M11.7343 1.449L12.0655 2.46825L11.1985 1.83832H12.2702L11.4032 2.46825L11.7343 1.449Z" fill="white"/>
<path d="M11.7343 3.42103L12.0655 4.44028L11.1985 3.81035H12.2702L11.4032 4.44028L11.7343 3.42103Z" fill="white"/>
<path d="M11.7343 5.39303L12.0655 6.41228L11.1985 5.78235H12.2702L11.4032 6.41228L11.7343 5.39303Z" fill="white"/>
<path d="M11.7343 7.36502L12.0655 8.38428L11.1985 7.75434H12.2702L11.4032 8.38428L11.7343 7.36502Z" fill="white"/>
<path d="M12.8943 0.463001L13.2254 1.48225L12.3584 0.852321H13.4301L12.5631 1.48225L12.8943 0.463001Z" fill="white"/>
<path d="M12.894 2.43504L13.2252 3.45429L12.3582 2.82436H13.4299L12.5628 3.45429L12.894 2.43504Z" fill="white"/>
<path d="M12.894 4.40704L13.2252 5.42629L12.3582 4.79636H13.4299L12.5628 5.42629L12.894 4.40704Z" fill="white"/>
<path d="M12.894 6.37899L13.2252 7.39824L12.3582 6.76831H13.4299L12.5628 7.39824L12.894 6.37899Z" fill="white"/>
<path d="M12.894 8.35102L13.2252 9.37027L12.3582 8.74034H13.4299L12.5628 9.37027L12.894 8.35102Z" fill="white"/>
</svg>
