<svg width="136.000000" height="44.392151" viewBox="0 0 136 44.3922" fill="none" xmlns="http://www.w3.org/2000/svg" xmlns:xlink="http://www.w3.org/1999/xlink">
	<desc>
			Created with Pixso.
	</desc>
	<defs/>
	<path id="Element" d="M1.63 13.04L29.16 13.04L29.16 31.35L1.63 31.35L1.63 13.04Z" fill="#B31942" fill-opacity="1.000000" fill-rule="evenodd"/>
	<path id="Element" d="M1.63 15.15L29.16 15.15L1.63 15.15ZM29.16 17.97L1.63 17.97L29.16 17.97ZM1.63 20.78L29.16 20.78L1.63 20.78ZM29.16 23.6L1.63 23.6L29.16 23.6ZM1.63 26.42L29.16 26.42L1.63 26.42ZM29.16 29.23L1.63 29.23" fill="#000008" fill-opacity="1.000000" fill-rule="nonzero"/>
	<path id="Element" d="M1.63 15.15L29.16 15.15M29.16 17.97L1.63 17.97M1.63 20.78L29.16 20.78M29.16 23.6L1.63 23.6M1.63 26.42L29.16 26.42M29.16 29.23L1.63 29.23" stroke="#FFFFFF" stroke-opacity="1.000000" stroke-width="1.408571"/>
	<path id="Element" d="M1.63 13.04L15.55 13.04L15.55 22.9L1.63 22.9L1.63 13.04Z" fill="#0A3161" fill-opacity="1.000000" fill-rule="evenodd"/>
	<path id="Element" d="M2.79 13.46L3.12 14.48L2.26 13.85L3.33 13.85L2.46 14.48L2.79 13.46Z" fill="#FFFFFF" fill-opacity="1.000000" fill-rule="nonzero"/>
	<path id="Element" d="M2.79 15.43L3.12 16.45L2.26 15.82L3.33 15.82L2.46 16.45L2.79 15.43Z" fill="#FFFFFF" fill-opacity="1.000000" fill-rule="nonzero"/>
	<path id="Element" d="M2.79 17.4L3.12 18.42L2.26 17.79L3.33 17.79L2.46 18.42L2.79 17.4Z" fill="#FFFFFF" fill-opacity="1.000000" fill-rule="nonzero"/>
	<path id="Element" d="M2.79 19.37L3.12 20.39L2.26 19.76L3.33 19.76L2.46 20.39L2.79 19.37Z" fill="#FFFFFF" fill-opacity="1.000000" fill-rule="nonzero"/>
	<path id="Element" d="M2.79 21.35L3.12 22.37L2.26 21.74L3.33 21.74L2.46 22.37L2.79 21.35Z" fill="#FFFFFF" fill-opacity="1.000000" fill-rule="nonzero"/>
	<path id="Element" d="M3.95 14.44L4.28 15.46L3.42 14.83L4.49 14.83L3.62 15.46L3.95 14.44Z" fill="#FFFFFF" fill-opacity="1.000000" fill-rule="nonzero"/>
	<path id="Element" d="M3.95 16.42L4.28 17.44L3.42 16.81L4.49 16.81L3.62 17.44L3.95 16.42Z" fill="#FFFFFF" fill-opacity="1.000000" fill-rule="nonzero"/>
	<path id="Element" d="M3.95 18.39L4.28 19.41L3.42 18.78L4.49 18.78L3.62 19.41L3.95 18.39Z" fill="#FFFFFF" fill-opacity="1.000000" fill-rule="nonzero"/>
	<path id="Element" d="M3.95 20.36L4.28 21.38L3.42 20.75L4.49 20.75L3.62 21.38L3.95 20.36Z" fill="#FFFFFF" fill-opacity="1.000000" fill-rule="nonzero"/>
	<path id="Element" d="M5.11 13.46L5.44 14.48L4.58 13.85L5.65 13.85L4.78 14.48L5.11 13.46Z" fill="#FFFFFF" fill-opacity="1.000000" fill-rule="nonzero"/>
	<path id="Element" d="M5.11 15.43L5.44 16.45L4.58 15.82L5.65 15.82L4.78 16.45L5.11 15.43Z" fill="#FFFFFF" fill-opacity="1.000000" fill-rule="nonzero"/>
	<path id="Element" d="M5.11 17.4L5.44 18.42L4.58 17.79L5.65 17.79L4.78 18.42L5.11 17.4Z" fill="#FFFFFF" fill-opacity="1.000000" fill-rule="nonzero"/>
	<path id="Element" d="M5.11 19.37L5.44 20.39L4.58 19.76L5.65 19.76L4.78 20.39L5.11 19.37Z" fill="#FFFFFF" fill-opacity="1.000000" fill-rule="nonzero"/>
	<path id="Element" d="M5.11 21.35L5.44 22.37L4.58 21.74L5.65 21.74L4.78 22.37L5.11 21.35Z" fill="#FFFFFF" fill-opacity="1.000000" fill-rule="nonzero"/>
	<path id="Element" d="M6.27 14.44L6.6 15.46L5.74 14.83L6.81 14.83L5.94 15.46L6.27 14.44Z" fill="#FFFFFF" fill-opacity="1.000000" fill-rule="nonzero"/>
	<path id="Element" d="M6.27 16.42L6.6 17.44L5.74 16.81L6.81 16.81L5.94 17.44L6.27 16.42Z" fill="#FFFFFF" fill-opacity="1.000000" fill-rule="nonzero"/>
	<path id="Element" d="M6.27 18.39L6.6 19.41L5.74 18.78L6.81 18.78L5.94 19.41L6.27 18.39Z" fill="#FFFFFF" fill-opacity="1.000000" fill-rule="nonzero"/>
	<path id="Element" d="M6.27 20.36L6.6 21.38L5.74 20.75L6.81 20.75L5.94 21.38L6.27 20.36Z" fill="#FFFFFF" fill-opacity="1.000000" fill-rule="nonzero"/>
	<path id="Element" d="M7.43 13.46L7.76 14.48L6.9 13.85L7.97 13.85L7.1 14.48L7.43 13.46Z" fill="#FFFFFF" fill-opacity="1.000000" fill-rule="nonzero"/>
	<path id="Element" d="M7.43 15.43L7.76 16.45L6.89 15.82L7.97 15.82L7.1 16.45L7.43 15.43Z" fill="#FFFFFF" fill-opacity="1.000000" fill-rule="nonzero"/>
	<path id="Element" d="M7.43 17.4L7.76 18.42L6.89 17.79L7.97 17.79L7.1 18.42L7.43 17.4Z" fill="#FFFFFF" fill-opacity="1.000000" fill-rule="nonzero"/>
	<path id="Element" d="M7.43 19.37L7.76 20.39L6.9 19.76L7.97 19.76L7.1 20.39L7.43 19.37Z" fill="#FFFFFF" fill-opacity="1.000000" fill-rule="nonzero"/>
	<path id="Element" d="M7.43 21.35L7.76 22.37L6.9 21.74L7.97 21.74L7.1 22.37L7.43 21.35Z" fill="#FFFFFF" fill-opacity="1.000000" fill-rule="nonzero"/>
	<path id="Element" d="M8.59 14.44L8.92 15.46L8.05 14.83L9.13 14.83L8.26 15.46L8.59 14.44Z" fill="#FFFFFF" fill-opacity="1.000000" fill-rule="nonzero"/>
	<path id="Element" d="M8.59 16.42L8.92 17.44L8.05 16.81L9.13 16.81L8.26 17.44L8.59 16.42Z" fill="#FFFFFF" fill-opacity="1.000000" fill-rule="nonzero"/>
	<path id="Element" d="M8.59 18.39L8.92 19.41L8.05 18.78L9.13 18.78L8.26 19.41L8.59 18.39Z" fill="#FFFFFF" fill-opacity="1.000000" fill-rule="nonzero"/>
	<path id="Element" d="M8.59 20.36L8.92 21.38L8.05 20.75L9.13 20.75L8.26 21.38L8.59 20.36Z" fill="#FFFFFF" fill-opacity="1.000000" fill-rule="nonzero"/>
	<path id="Element" d="M9.75 13.46L10.08 14.48L9.21 13.85L10.29 13.85L9.42 14.48L9.75 13.46Z" fill="#FFFFFF" fill-opacity="1.000000" fill-rule="nonzero"/>
	<path id="Element" d="M9.75 15.43L10.08 16.45L9.21 15.82L10.29 15.82L9.42 16.45L9.75 15.43Z" fill="#FFFFFF" fill-opacity="1.000000" fill-rule="nonzero"/>
	<path id="Element" d="M9.75 17.4L10.08 18.42L9.21 17.79L10.29 17.79L9.42 18.42L9.75 17.4Z" fill="#FFFFFF" fill-opacity="1.000000" fill-rule="nonzero"/>
	<path id="Element" d="M9.75 19.37L10.08 20.39L9.21 19.76L10.29 19.76L9.42 20.39L9.75 19.37Z" fill="#FFFFFF" fill-opacity="1.000000" fill-rule="nonzero"/>
	<path id="Element" d="M9.75 21.35L10.08 22.37L9.21 21.74L10.29 21.74L9.42 22.37L9.75 21.35Z" fill="#FFFFFF" fill-opacity="1.000000" fill-rule="nonzero"/>
	<path id="Element" d="M10.91 14.44L11.24 15.46L10.37 14.83L11.45 14.83L10.58 15.46L10.91 14.44Z" fill="#FFFFFF" fill-opacity="1.000000" fill-rule="nonzero"/>
	<path id="Element" d="M10.91 16.42L11.24 17.44L10.37 16.81L11.45 16.81L10.58 17.44L10.91 16.42Z" fill="#FFFFFF" fill-opacity="1.000000" fill-rule="nonzero"/>
	<path id="Element" d="M10.91 18.39L11.24 19.41L10.37 18.78L11.45 18.78L10.58 19.41L10.91 18.39Z" fill="#FFFFFF" fill-opacity="1.000000" fill-rule="nonzero"/>
	<path id="Element" d="M10.91 20.36L11.24 21.38L10.37 20.75L11.45 20.75L10.58 21.38L10.91 20.36Z" fill="#FFFFFF" fill-opacity="1.000000" fill-rule="nonzero"/>
	<path id="Element" d="M12.07 13.46L12.4 14.48L11.53 13.85L12.61 13.85L11.74 14.48L12.07 13.46Z" fill="#FFFFFF" fill-opacity="1.000000" fill-rule="nonzero"/>
	<path id="Element" d="M12.07 15.43L12.4 16.45L11.53 15.82L12.61 15.82L11.74 16.45L12.07 15.43Z" fill="#FFFFFF" fill-opacity="1.000000" fill-rule="nonzero"/>
	<path id="Element" d="M12.07 17.4L12.4 18.42L11.53 17.79L12.61 17.79L11.74 18.42L12.07 17.4Z" fill="#FFFFFF" fill-opacity="1.000000" fill-rule="nonzero"/>
	<path id="Element" d="M12.07 19.37L12.4 20.39L11.53 19.76L12.61 19.76L11.74 20.39L12.07 19.37Z" fill="#FFFFFF" fill-opacity="1.000000" fill-rule="nonzero"/>
	<path id="Element" d="M12.07 21.35L12.4 22.37L11.53 21.74L12.61 21.74L11.74 22.37L12.07 21.35Z" fill="#FFFFFF" fill-opacity="1.000000" fill-rule="nonzero"/>
	<path id="Element" d="M13.23 14.44L13.56 15.46L12.69 14.83L13.77 14.83L12.9 15.46L13.23 14.44Z" fill="#FFFFFF" fill-opacity="1.000000" fill-rule="nonzero"/>
	<path id="Element" d="M13.23 16.42L13.56 17.44L12.69 16.81L13.77 16.81L12.9 17.44L13.23 16.42Z" fill="#FFFFFF" fill-opacity="1.000000" fill-rule="nonzero"/>
	<path id="Element" d="M13.23 18.39L13.56 19.41L12.69 18.78L13.77 18.78L12.9 19.41L13.23 18.39Z" fill="#FFFFFF" fill-opacity="1.000000" fill-rule="nonzero"/>
	<path id="Element" d="M13.23 20.36L13.56 21.38L12.69 20.75L13.77 20.75L12.9 21.38L13.23 20.36Z" fill="#FFFFFF" fill-opacity="1.000000" fill-rule="nonzero"/>
	<path id="Element" d="M14.39 13.46L14.72 14.48L13.85 13.85L14.93 13.85L14.06 14.48L14.39 13.46Z" fill="#FFFFFF" fill-opacity="1.000000" fill-rule="nonzero"/>
	<path id="Element" d="M14.39 15.43L14.72 16.45L13.85 15.82L14.93 15.82L14.06 16.45L14.39 15.43Z" fill="#FFFFFF" fill-opacity="1.000000" fill-rule="nonzero"/>
	<path id="Element" d="M14.39 17.4L14.72 18.42L13.85 17.79L14.93 17.79L14.06 18.42L14.39 17.4Z" fill="#FFFFFF" fill-opacity="1.000000" fill-rule="nonzero"/>
	<path id="Element" d="M14.39 19.37L14.72 20.39L13.85 19.76L14.93 19.76L14.06 20.39L14.39 19.37Z" fill="#FFFFFF" fill-opacity="1.000000" fill-rule="nonzero"/>
	<path id="Element" d="M14.39 21.35L14.72 22.37L13.85 21.74L14.93 21.74L14.06 22.37L14.39 21.35Z" fill="#FFFFFF" fill-opacity="1.000000" fill-rule="nonzero"/>
	<path id="Америка" d="M41.66 29.19L43.2 25.69L50.64 25.69L52.18 29.19L54.27 29.19L47.92 15.19L45.93 15.19L39.6 29.19L41.66 29.19ZM46.92 17.23L49.94 24.09L43.9 24.09L46.92 17.23ZM81.88 24.53Q81.92 24.17 81.92 23.95Q81.92 22.37 81.26 21.14Q81.25 21.12 81.24 21.11Q80.86 20.39 80.29 19.86Q79.88 19.47 79.38 19.18Q79.22 19.09 79.05 19.01Q77.99 18.49 76.68 18.49Q75.41 18.49 74.36 18.97Q74.15 19.07 73.94 19.18Q73.44 19.47 73.02 19.86Q72.45 20.39 72.05 21.11Q71.93 21.33 71.83 21.55Q71.36 22.62 71.36 23.89Q71.36 25.17 71.83 26.24Q71.94 26.47 72.06 26.69Q72.35 27.19 72.74 27.61Q73.3 28.21 74.08 28.62Q75.38 29.31 77.05 29.31Q78.38 29.31 79.45 28.87Q80.21 28.56 80.8 28.04Q81.03 27.83 81.23 27.59L80.18 26.35Q79.76 26.81 79.25 27.11Q78.34 27.63 77.12 27.63Q75.85 27.63 74.92 27.07Q74.7 26.94 74.51 26.78Q74.06 26.42 73.77 25.95Q73.38 25.33 73.28 24.53L81.88 24.53ZM92.95 19.01Q91.86 18.49 90.52 18.49Q89.36 18.49 88.4 18.92Q88.38 18.93 88.36 18.94Q87.91 19.15 87.53 19.44Q87.09 19.79 86.74 20.27L86.74 18.59L84.9 18.59L84.9 33.07L86.82 33.07L86.82 27.59Q87.21 28.09 87.7 28.45Q88.04 28.69 88.42 28.87Q88.47 28.9 88.52 28.92Q89.43 29.31 90.52 29.31Q91.86 29.31 92.95 28.8Q93.12 28.72 93.28 28.63Q93.86 28.31 94.31 27.86Q94.82 27.37 95.19 26.72Q95.21 26.67 95.24 26.63Q95.87 25.43 95.87 23.89Q95.87 22.32 95.21 21.11Q95.2 21.09 95.19 21.07Q94.83 20.45 94.34 19.96Q93.87 19.5 93.28 19.17Q93.12 19.08 92.95 19.01ZM131.45 19.57Q130.28 18.49 128.08 18.49Q126.8 18.49 125.66 18.84Q124.52 19.19 123.7 19.85L124.5 21.29Q125.12 20.77 126.02 20.47Q126.63 20.25 127.25 20.19Q127.55 20.15 127.86 20.15Q129.26 20.15 129.98 20.81Q130.09 20.92 130.19 21.04Q130.7 21.67 130.7 22.71L130.7 23.09L127.66 23.09Q125.44 23.09 124.42 23.94Q123.99 24.3 123.74 24.76Q123.4 25.39 123.4 26.19Q123.4 26.92 123.69 27.5Q123.96 28.04 124.47 28.45Q125.54 29.31 127.32 29.31Q128.54 29.31 129.42 28.92Q130.13 28.61 130.58 28.09Q130.7 27.95 130.8 27.79L130.8 29.19L132.62 29.19L132.62 22.79Q132.62 20.85 131.65 19.78Q131.55 19.67 131.45 19.57ZM68.6 29.19L68.6 18.59L66.8 18.59L62.52 25.75L58.36 18.59L56.38 18.59L56.38 29.19L58.14 29.19L58.14 21.43L62.06 27.99L62.9 27.99L66.86 21.45L66.86 29.19L68.6 29.19ZM100.58 18.59L98.66 18.59L98.66 29.19L100.42 29.19L106.9 21.47L106.9 29.19L108.82 29.19L108.82 18.59L107.08 18.59L100.58 26.31L100.58 18.59ZM114.46 24.71L116.66 24.71L120.22 29.19L122.48 29.19L118.18 23.69L122.2 18.59L120.14 18.59L116.7 23.07L114.46 23.07L114.46 18.59L112.54 18.59L112.54 29.19L114.46 29.19L114.46 24.71ZM75 20.5Q75.73 20.11 76.68 20.11Q77.59 20.11 78.31 20.49Q78.67 20.68 78.98 20.96Q79.32 21.27 79.56 21.65Q79.98 22.3 80.08 23.15L73.28 23.15Q73.39 22.22 73.85 21.53Q74.07 21.21 74.36 20.95Q74.66 20.68 75 20.5ZM91.88 27.32Q91.19 27.63 90.36 27.63Q89.64 27.63 89.02 27.39Q88.77 27.3 88.54 27.16Q88.18 26.96 87.89 26.68Q87.52 26.32 87.26 25.84Q86.8 24.99 86.8 23.89Q86.8 22.79 87.27 21.95Q87.55 21.45 87.95 21.08Q88.22 20.83 88.55 20.64Q88.75 20.52 88.97 20.43Q89.61 20.17 90.36 20.17Q91.22 20.17 91.93 20.5Q92.06 20.56 92.19 20.63Q92.48 20.8 92.73 21.02Q93.17 21.4 93.47 21.94Q93.47 21.95 93.48 21.96Q93.94 22.81 93.94 23.89Q93.94 24.96 93.49 25.79Q93.48 25.82 93.47 25.84Q93.18 26.37 92.76 26.75Q92.5 26.98 92.19 27.16Q92.04 27.25 91.88 27.32ZM129.54 27.34Q128.74 27.83 127.64 27.83Q126.54 27.83 125.92 27.37Q125.64 27.16 125.48 26.88Q125.3 26.55 125.3 26.11Q125.3 25.6 125.54 25.25Q126.06 24.47 127.74 24.47L130.7 24.47L130.7 25.95Q130.49 26.48 130.12 26.87Q129.86 27.14 129.54 27.34Z" fill="#FFFFFF" fill-opacity="1.000000" fill-rule="evenodd"/>
</svg>
