<svg width="229" height="196" viewBox="0 0 229 196" fill="none" xmlns="http://www.w3.org/2000/svg">
<path d="M143.646 0.00354133C145.561 3.62588 147.386 7.28605 149.173 10.9757C150.438 13.5855 151.729 16.1753 153.079 18.7399C153.813 20.1387 154.519 21.55 155.208 22.9727C156.467 25.5696 157.766 28.1452 159.069 30.719C159.175 30.9291 159.281 31.1392 159.391 31.3557C160.762 34.0627 162.14 36.7661 163.546 39.4544C164.509 41.2978 165.459 43.1381 166.241 45.0696C166.697 46.2116 166.697 46.2116 167.42 47.2086C168.063 48.2389 168.242 48.9733 168.355 50.1784C168.569 50.1784 168.784 50.1784 169.005 50.1784C169.113 50.3908 169.221 50.6032 169.332 50.822C169.832 51.8053 170.333 52.7883 170.834 53.7713C171.003 54.1051 171.173 54.439 171.348 54.783C172.351 56.7511 173.375 58.7024 174.443 60.6343C175.097 61.9648 175.483 63.358 175.832 64.7989C176.047 64.7989 176.261 64.7989 176.482 64.7989C176.604 65.0485 176.725 65.298 176.85 65.5551C177.305 66.4911 177.76 67.4268 178.217 68.3623C178.509 68.9622 178.801 69.5625 179.092 70.1628C180.213 72.4767 180.213 72.4767 181.435 74.735C182.043 75.8246 182.503 76.9378 182.985 78.0903C183.374 78.8093 183.774 79.5222 184.183 80.2294C185.143 81.9096 186.028 83.6118 186.866 85.359C187.739 87.1799 188.664 88.9569 189.649 90.7171C190.968 93.0791 192.171 95.485 193.344 97.9256C194.072 99.4366 194.806 100.944 195.542 102.451C195.695 102.766 195.849 103.08 196.007 103.404C197.041 105.516 198.116 107.594 199.24 109.657C200.215 111.518 200.215 111.518 200.215 112.648C200.43 112.648 200.644 112.648 200.866 112.648C200.964 112.85 201.062 113.052 201.163 113.261C201.618 114.199 202.075 115.137 202.532 116.075C202.695 116.411 202.859 116.747 203.028 117.093C203.847 118.768 204.677 120.426 205.58 122.056C206.386 123.527 206.901 124.987 207.368 126.604C207.582 126.604 207.797 126.604 208.018 126.604C208.237 127.058 208.237 127.058 208.461 127.521C210.828 132.402 213.272 137.242 215.881 141.993C216.942 143.926 217.97 145.872 218.95 147.849C219.061 148.071 219.173 148.294 219.288 148.523C219.755 149.479 220.047 150.108 220.047 151.193C220.262 151.193 220.476 151.193 220.697 151.193C220.877 151.565 221.058 151.937 221.243 152.321C221.481 152.81 221.719 153.299 221.957 153.789C222.076 154.034 222.194 154.279 222.316 154.532C222.432 154.769 222.547 155.005 222.666 155.249C222.824 155.575 222.824 155.575 222.985 155.908C223.328 156.591 223.328 156.591 223.948 157.506C223.948 157.945 223.948 158.383 223.948 158.835C224.163 158.835 224.377 158.835 224.598 158.835C224.92 159.401 225.238 159.969 225.553 160.538C225.731 160.854 225.908 161.171 226.091 161.496C226.559 162.511 226.747 163.375 226.874 164.484C227.089 164.484 227.303 164.484 227.524 164.484C228.5 166.353 228.5 166.353 228.5 167.475C225.778 167.552 223.057 167.611 220.335 167.647C219.071 167.664 217.807 167.688 216.543 167.725C215.323 167.762 214.103 167.781 212.882 167.79C212.417 167.796 211.952 167.808 211.488 167.826C210.059 167.879 208.746 167.881 207.368 167.475C206.391 166.486 205.906 165.452 205.417 164.152C205.232 163.764 205.047 163.376 204.857 162.976C204.713 162.638 204.569 162.299 204.421 161.95C203.782 160.493 203.11 159.146 202.223 157.831C201.786 157.08 201.476 156.295 201.148 155.49C200.645 154.346 200.018 153.273 199.403 152.19C198.477 150.56 197.679 148.947 196.964 147.205C196.477 146.179 195.963 145.166 195.45 144.152C194.688 142.624 194.688 142.624 194.688 141.889C194.474 141.889 194.259 141.889 194.038 141.889C193.897 141.532 193.757 141.176 193.612 140.809C193.31 140.086 193.039 139.531 192.575 138.898C192.037 138.164 191.735 137.404 191.389 136.563C190.925 135.465 190.398 134.4 189.873 133.333C189.769 133.12 189.666 132.908 189.56 132.689C188.605 130.742 187.583 128.851 186.561 126.936C180.231 126.936 173.901 126.936 167.379 126.936C166.901 128.265 166.901 128.265 167.623 129.366C167.735 129.543 167.848 129.72 167.963 129.902C168.355 130.591 168.355 130.591 168.767 131.604C169.471 133.32 170.379 134.926 171.26 136.552C172.282 138.441 173.296 140.327 174.23 142.264C174.759 143.353 175.317 144.427 175.873 145.502C176.006 145.76 176.139 146.018 176.276 146.284C177.133 147.945 177.993 149.605 178.854 151.264C179.243 152.014 179.633 152.765 180.022 153.516C180.54 154.513 181.057 155.51 181.576 156.507C182.722 158.716 183.855 160.928 184.938 163.17C185.446 164.194 186.03 165.166 186.619 166.143C186.946 166.961 186.799 167.312 186.561 168.139C183.972 168.232 181.384 168.303 178.794 168.346C177.591 168.367 176.39 168.395 175.188 168.44C174.026 168.484 172.865 168.507 171.703 168.518C171.261 168.525 170.819 168.539 170.378 168.561C168.971 168.627 167.739 168.616 166.404 168.139C165.333 166.933 164.736 165.645 164.128 164.152C163.888 163.671 163.644 163.192 163.394 162.716C163.19 162.296 162.988 161.874 162.787 161.452C162.677 161.224 162.567 160.997 162.454 160.762C162.144 160.12 161.835 159.478 161.527 158.835C160.391 156.472 159.201 154.141 157.998 151.812C156.725 149.347 155.463 146.875 154.203 144.403C153.025 142.092 151.835 139.786 150.643 137.483C149.653 135.562 148.696 133.625 147.771 131.671C147.49 131.084 147.194 130.505 146.897 129.927C146.639 129.402 146.639 129.402 146.376 128.867C145.665 127.811 145.665 127.811 144.415 127.733C143.928 127.745 143.441 127.768 142.954 127.799C142.683 127.808 142.412 127.817 142.132 127.826C141.539 127.845 140.945 127.868 140.352 127.895C139.097 127.946 137.842 127.963 136.587 127.98C135.516 127.995 134.445 128.014 133.374 128.034C122.284 128.24 111.193 128.351 100.102 128.452C99.6993 128.456 99.2965 128.459 98.8816 128.463C93.8632 128.509 88.8447 128.554 83.8262 128.597C83.7598 128.803 83.6934 129.009 83.625 129.221C83.5375 129.491 83.4501 129.76 83.36 130.038C83.2735 130.305 83.187 130.573 83.0978 130.848C82.833 131.642 82.5331 132.406 82.1956 133.17C82.0785 133.436 81.9614 133.703 81.8407 133.977C81.7181 134.251 81.5955 134.525 81.4692 134.807C81.3397 135.099 81.2102 135.391 81.0767 135.692C80.1828 137.693 79.2359 139.658 78.2588 141.619C77.4738 143.224 76.7638 144.863 76.044 146.499C74.9619 148.958 73.8465 151.39 72.6424 153.789C71.9776 155.118 71.3933 156.466 70.8219 157.838C70.2864 159.027 69.7337 160.207 69.1836 161.388C68.2849 163.327 67.4232 165.273 66.6971 167.288C66.5563 167.678 66.4154 168.069 66.2704 168.472C66.0558 168.472 65.8412 168.472 65.6201 168.472C65.4056 169.129 65.191 169.787 64.9699 170.465C58.5328 170.465 52.0956 170.465 45.4634 170.465C45.8294 168.221 45.8294 168.221 46.3092 167.193C46.4138 166.967 46.5185 166.74 46.6263 166.507C46.795 166.153 46.795 166.153 46.967 165.793C47.0828 165.545 47.1986 165.297 47.3178 165.042C48.2119 163.148 49.1841 161.308 50.1737 159.465C50.7307 158.375 51.1661 157.272 51.5922 156.124C52.3822 154.127 53.3258 152.197 54.2315 150.254C54.7494 149.137 55.2567 148.015 55.7653 146.894C56.5121 145.251 57.2881 143.626 58.088 142.01C58.6263 140.896 59.1217 139.765 59.6196 138.632C60.3189 137.063 61.0423 135.505 61.7662 133.948C62.2679 132.864 62.7586 131.779 63.2161 130.676C63.5771 129.815 63.9574 128.991 64.3807 128.161C65.158 126.592 65.8607 124.994 66.5548 123.385C67.7245 120.674 68.9351 117.986 70.1717 115.306C70.3851 114.843 70.5984 114.379 70.8117 113.916C71.1422 113.198 71.4728 112.48 71.8036 111.763C72.509 110.232 73.2111 108.699 73.9104 107.165C74.7192 105.391 75.5326 103.619 76.3487 101.849C77.1776 100.05 78.0048 98.2505 78.8277 96.449C78.9204 96.2459 79.0132 96.0429 79.1088 95.8337C79.8803 94.1423 80.6427 92.4467 81.4019 90.7495C81.7764 89.9357 82.161 89.1305 82.5554 88.3268C82.6718 88.0893 82.7883 87.8519 82.9082 87.6073C82.9966 87.4273 83.085 87.2474 83.176 87.062C87.5289 86.757 91.8589 86.6885 96.221 86.7089C96.8522 86.7106 97.4834 86.7121 98.1145 86.7135C99.6372 86.7171 101.16 86.7228 102.683 86.7297C102.706 88.0988 102.681 88.9697 102.032 90.1771C101.884 90.4624 101.736 90.7477 101.584 91.0416C101.41 91.3731 101.236 91.7046 101.057 92.0462C100.625 92.9018 100.2 93.761 99.7769 94.6214C99.6649 94.8489 99.5528 95.0764 99.4374 95.3108C98.5415 97.1476 97.7498 99.0132 96.9767 100.908C96.3626 102.35 95.6638 103.74 94.9447 105.131C94.5614 105.988 94.3938 106.742 94.2297 107.664C94.6102 107.653 94.6102 107.653 94.9984 107.643C98.3996 107.551 101.801 107.462 105.202 107.373C105.625 107.362 105.625 107.362 106.057 107.35C113.685 107.152 121.313 106.972 128.941 106.819C129.305 106.811 129.668 106.804 130.042 106.796C133.633 106.724 137.225 106.654 140.816 106.586C142.166 106.56 143.515 106.534 144.865 106.507C145.487 106.495 146.108 106.484 146.73 106.472C150.367 106.406 153.998 106.29 157.632 106.12C159.83 106.018 162.028 105.939 164.229 105.897C164.55 105.89 164.871 105.883 165.202 105.876C166.192 105.855 167.182 105.835 168.172 105.815C168.858 105.801 169.545 105.786 170.231 105.772C171.881 105.737 173.532 105.703 175.182 105.67C174.359 103.206 173.396 100.883 172.236 98.5673C172.095 98.2807 171.954 97.9942 171.808 97.6989C171.133 96.3362 170.426 95.0163 169.655 93.7076C169.12 92.6544 168.613 91.5867 168.103 90.5211C167.467 89.2063 166.803 87.9131 166.111 86.6284C165.101 84.7486 164.163 82.8373 163.234 80.9147C161.789 77.9436 160.31 74.9954 158.788 72.065C158.172 70.8796 157.565 69.6901 156.962 68.4982C154.96 64.514 154.96 64.514 152.79 60.6246C151.779 58.9055 151.046 57.1122 150.297 55.2613C149.757 54.0121 149.104 52.8972 148.396 51.7425C147.774 50.6729 147.231 49.5704 146.694 48.4547C145.566 46.1127 144.401 43.7916 143.22 41.4767C143.052 41.1471 142.884 40.8174 142.711 40.4777C142.472 40.0091 142.472 40.0091 142.228 39.5311C142.086 39.2534 141.944 38.9758 141.798 38.6897C141.354 37.8518 140.876 37.039 140.395 36.2225C140.058 35.547 139.726 34.8683 139.4 34.1873C138.427 32.1809 137.428 30.1901 136.413 28.2062C136.206 27.7987 136.206 27.7987 135.995 27.3831C135.863 27.1261 135.731 26.8692 135.595 26.6044C135.478 26.3765 135.362 26.1486 135.241 25.9137C134.873 25.2347 134.873 25.2347 134.364 24.5736C133.838 23.8523 133.525 23.103 133.192 22.2737C131.676 18.5635 129.865 14.9537 128.021 11.405C127.888 11.15 127.756 10.895 127.62 10.6323C127.487 10.378 127.355 10.1237 127.219 9.86173C126.386 8.25613 125.56 6.64707 124.749 5.02934C124.622 4.78232 124.495 4.53531 124.364 4.28081C124.249 4.04894 124.134 3.81708 124.015 3.57819C123.913 3.3765 123.812 3.17481 123.707 2.967C123.438 2.17858 123.475 1.49775 123.49 0.668109C125.994 0.572866 128.499 0.478291 131.004 0.384175C131.856 0.352095 132.708 0.319863 133.559 0.287475C134.785 0.240887 136.011 0.194849 137.237 0.148916C137.806 0.127111 137.806 0.127111 138.386 0.104865C140.141 0.0396243 141.891 -0.0145961 143.646 0.00354133Z" fill="#157A75"/>
<path d="M95.6118 1.31194C96.2713 1.31361 96.9309 1.31513 97.5904 1.31648C99.1796 1.32008 100.769 1.32578 102.358 1.33271C102.487 1.60127 102.617 1.86984 102.75 2.14654C102.922 2.50163 103.095 2.85672 103.272 3.22257C103.442 3.57338 103.612 3.92418 103.787 4.28562C104.287 5.31035 104.287 5.31035 104.847 6.21313C105.368 7.12881 105.49 7.93074 105.609 8.97524C105.823 8.97524 106.038 8.97524 106.259 8.97524C106.377 9.21781 106.495 9.46038 106.616 9.7103C107.063 10.629 107.51 11.5474 107.958 12.4656C108.243 13.0509 108.527 13.6366 108.812 14.2223C109.826 16.3023 110.869 18.3593 111.967 20.3945C112.755 21.8651 113.509 23.3538 114.265 24.8418C114.605 25.5094 114.945 26.177 115.285 26.8446C115.458 27.1842 115.63 27.5238 115.808 27.8737C116.338 28.9132 116.869 29.9519 117.4 30.9904C117.659 31.4965 117.659 31.4965 117.924 32.0128C118.251 32.6531 118.579 33.2932 118.907 33.9332C119.64 35.3677 120.363 36.8057 121.066 38.2565C121.814 39.7941 122.622 41.2909 123.449 42.7851C124.627 44.9311 125.738 47.0932 126.801 49.301C127.597 50.9464 128.443 52.565 129.284 54.1874C130.299 56.1515 131.3 58.1229 132.297 60.0971C134.104 63.6771 135.937 67.2379 137.854 70.7584C138.683 72.2901 139.397 73.8211 140.07 75.4321C140.577 76.4275 141.115 77.4043 141.655 78.3811C142.486 79.8945 142.486 79.8945 142.896 80.6483C143.191 81.1787 143.497 81.7031 143.811 82.2221C144.043 82.6145 144.043 82.6145 144.279 83.0149C144.423 83.2497 144.566 83.4844 144.714 83.7263C144.791 83.9499 144.868 84.1734 144.947 84.4037C144.733 84.8423 144.518 85.281 144.297 85.7329C137.752 85.7329 131.208 85.7329 124.465 85.7329C121.564 80.5441 121.564 80.5441 120.645 78.6095C119.552 76.336 118.419 74.085 117.272 71.8392C117.113 71.5261 116.953 71.2131 116.789 70.8905C115.99 69.3294 115.18 67.7763 114.351 66.2319C113.558 64.752 112.801 63.2591 112.07 61.7461C111.966 61.5313 111.862 61.3165 111.754 61.0952C111.325 60.2117 110.897 59.3278 110.468 58.4439C109.926 57.3299 109.381 56.2237 108.779 55.142C107.001 51.8976 105.316 48.6092 103.702 45.2774C102.867 43.5599 101.998 41.8625 101.118 40.1684C99.7704 37.5704 98.4771 34.9476 97.1978 32.3138C95.804 29.4525 94.3529 26.6236 92.8832 23.8024C92.6771 23.4038 92.4767 23.0021 92.2794 22.5989C92.0649 22.5989 91.8503 22.5989 91.6292 22.5989C90.8415 24.3345 90.0633 26.0658 89.3941 27.8531C88.7802 29.4575 88.0268 30.9792 87.2613 32.5115C86.718 33.6076 86.2234 34.6999 85.7976 35.8487C85.152 37.5733 84.3385 39.1975 83.5226 40.8425C82.6641 42.576 81.8523 44.3266 81.0645 46.095C80.7126 46.8815 80.3568 47.6651 79.9951 48.4469C79.0374 50.5196 78.1194 52.5924 77.3079 54.7305C76.8745 55.8043 76.3516 56.8242 75.8335 57.8573C75.2702 59.0342 74.763 60.2314 74.2562 61.4346C73.4295 63.3948 72.5485 65.312 71.5893 67.2093C71.0745 68.2722 70.6262 69.3565 70.172 70.4478C69.8165 71.2458 69.4586 72.0419 69.0951 72.8361C68.9969 73.0511 68.8988 73.2661 68.7976 73.4877C68.0243 75.1727 67.2168 76.8382 66.3876 78.4953C65.9782 79.3514 65.6102 80.2184 65.2475 81.096C64.5844 82.6496 63.8444 84.1689 63.1225 85.6946C62.5507 86.9156 62.0074 88.1224 61.5668 89.3997C61.1215 90.6646 60.5018 91.7811 59.8495 92.9453C59.1944 94.1753 58.6947 95.4628 58.1836 96.7605C57.2546 99.0692 56.258 101.304 55.1319 103.52C54.6717 104.459 54.2405 105.4 53.8188 106.357C52.692 108.91 51.4832 111.422 50.2807 113.939C49.2695 116.07 48.3185 118.21 47.4519 120.407C47.0882 121.29 46.6842 122.138 46.2562 122.99C45.7225 124.054 45.2544 125.114 44.8338 126.23C44.2096 127.877 43.4451 129.433 42.6609 131.005C42.3109 131.72 41.9849 132.429 41.6843 133.166C41.2485 134.219 40.7636 135.228 40.2506 136.243C39.9206 136.918 39.9206 136.918 39.6321 137.694C39.1119 139.007 38.4651 140.251 37.8351 141.512C37.4121 142.395 37.0254 143.283 36.6517 144.188C35.9987 145.739 35.3013 147.27 34.6132 148.805C34.4607 149.147 34.3081 149.489 34.151 149.841C33.1946 151.975 32.2013 154.085 31.1589 156.177C31.0518 156.392 30.9447 156.607 30.8343 156.829C30.687 157.124 30.687 157.124 30.5367 157.426C29.5466 159.417 28.6415 161.381 27.9079 163.487C27.6112 164.195 27.3016 164.896 26.9909 165.598C26.3288 167.117 25.7022 168.653 25.0695 170.185C24.6568 171.13 24.6568 171.13 24.3317 171.462C23.7132 171.493 23.0935 171.501 22.4743 171.5C22.0772 171.5 21.6802 171.5 21.2712 171.5C20.8347 171.498 20.3982 171.496 19.9617 171.495C19.5176 171.494 19.0734 171.493 18.6292 171.493C17.4582 171.492 16.2872 171.489 15.1161 171.485C13.922 171.482 12.7278 171.48 11.5337 171.478C9.1891 171.475 6.84455 171.469 4.5 171.462C4.76589 170.291 5.18189 169.31 5.70138 168.228C5.96874 167.667 5.96874 167.667 6.24151 167.095C6.38258 166.801 6.38258 166.801 6.5265 166.501C8.21224 162.986 9.84052 159.453 11.3273 155.845C11.5419 155.845 11.7564 155.845 11.9775 155.845C12.0018 155.581 12.0261 155.318 12.0512 155.047C12.3844 153.462 13.0315 152.124 13.725 150.674C13.8549 150.395 13.9848 150.117 14.1187 149.831C14.6348 148.735 15.152 147.667 15.7696 146.627C16.4154 145.511 16.7599 144.317 17.1589 143.092C17.5041 142.222 17.9231 141.632 18.4797 140.892C18.791 140.206 18.791 140.206 19.0486 139.459C20.3152 136.109 21.8551 132.911 23.5709 129.78C24.139 128.671 24.5697 127.528 25.0047 126.36C25.2789 125.677 25.5852 125.075 25.9572 124.444C26.4602 123.588 26.8297 122.74 27.1764 121.806C27.7619 120.251 28.4685 118.783 29.2083 117.3C30.0599 115.593 30.8222 113.895 31.4866 112.101C31.9933 110.872 32.6517 109.733 33.2899 108.571C33.857 107.476 34.2994 106.36 34.7174 105.199C35.0868 104.274 35.5248 103.396 35.9662 102.506C36.7259 100.92 37.415 99.3002 38.1165 97.6863C39.6718 94.1097 41.2536 90.5483 42.9016 87.0151C43.2983 86.1594 43.6873 85.3 44.0767 84.4408C44.8577 82.7178 45.6572 81.0082 46.5 79.3156C47.0544 78.1942 47.5643 77.0829 48.0037 75.9097C48.9508 73.4009 50.1403 70.9981 51.2754 68.5742C51.8049 67.4372 52.3223 66.2947 52.8397 65.152C53.6518 63.36 54.5038 61.5926 55.3935 59.8394C55.7896 58.9852 56.1361 58.1369 56.473 57.2577C57.1672 55.459 57.9681 53.7244 58.7932 51.9853C59.5787 50.3225 60.363 48.662 61.0893 46.9711C61.4937 46.0299 61.9181 45.1063 62.3732 44.1896C63.0544 42.8162 63.658 41.4137 64.2591 40.0023C65.073 38.1069 65.9179 36.2381 66.8397 34.395C67.46 33.1497 68.0401 31.9211 68.5262 30.6152C69.1791 28.8644 70.0153 27.221 70.8461 25.5536C71.5717 24.087 72.2051 22.6151 72.7754 21.0776C73.3007 19.7671 73.952 18.5224 74.5813 17.2616C74.9976 16.3921 75.3591 15.5269 75.6989 14.6241C76.3068 13.0087 77.0634 11.4918 77.8324 9.95132C78.3705 8.82753 78.8109 7.68371 79.2497 6.51686C79.9237 4.85444 80.7483 3.26545 81.5508 1.66499C86.2424 1.37311 90.9124 1.29082 95.6118 1.31194Z" fill="#157A75"/>
<path d="M77.9746 98.0273C77.9746 99.2548 77.5579 99.9474 76.9993 101.018C76.6774 100.908 76.3555 100.799 76.0239 100.686C76.0849 99.7303 76.0849 99.7303 76.349 98.6919C77.1821 98.235 77.1821 98.235 77.9746 98.0273Z" fill="#CDCBBE"/>
<path d="M0.9 189.625L7.2 175.625H9.76L16.08 189.625H13.36L7.94 177.005H8.98L3.58 189.625H0.9ZM3.8 186.385L4.5 184.345H12.06L12.76 186.385H3.8ZM21.6005 189.825C20.5071 189.825 19.4605 189.672 18.4605 189.365C17.4605 189.045 16.6671 188.638 16.0805 188.145L16.9805 186.125C17.5405 186.565 18.2338 186.932 19.0605 187.225C19.8871 187.518 20.7338 187.665 21.6005 187.665C22.3338 187.665 22.9271 187.585 23.3805 187.425C23.8338 187.265 24.1671 187.052 24.3805 186.785C24.5938 186.505 24.7005 186.192 24.7005 185.845C24.7005 185.418 24.5471 185.078 24.2405 184.825C23.9338 184.558 23.5338 184.352 23.0405 184.205C22.5605 184.045 22.0205 183.898 21.4205 183.765C20.8338 183.632 20.2405 183.478 19.6405 183.305C19.0538 183.118 18.5138 182.885 18.0205 182.605C17.5405 182.312 17.1471 181.925 16.8405 181.445C16.5338 180.965 16.3805 180.352 16.3805 179.605C16.3805 178.845 16.5805 178.152 16.9805 177.525C17.3938 176.885 18.0138 176.378 18.8405 176.005C19.6805 175.618 20.7405 175.425 22.0205 175.425C22.8605 175.425 23.6938 175.532 24.5205 175.745C25.3471 175.958 26.0671 176.265 26.6805 176.665L25.8605 178.685C25.2338 178.312 24.5871 178.038 23.9205 177.865C23.2538 177.678 22.6138 177.585 22.0005 177.585C21.2805 177.585 20.6938 177.672 20.2405 177.845C19.8005 178.018 19.4738 178.245 19.2605 178.525C19.0605 178.805 18.9605 179.125 18.9605 179.485C18.9605 179.912 19.1071 180.258 19.4005 180.525C19.7071 180.778 20.1005 180.978 20.5805 181.125C21.0738 181.272 21.6205 181.418 22.2205 181.565C22.8205 181.698 23.4138 181.852 24.0005 182.025C24.6005 182.198 25.1405 182.425 25.6205 182.705C26.1138 182.985 26.5071 183.365 26.8005 183.845C27.1071 184.325 27.2605 184.932 27.2605 185.665C27.2605 186.412 27.0538 187.105 26.6405 187.745C26.2405 188.372 25.6205 188.878 24.7805 189.265C23.9405 189.638 22.8805 189.825 21.6005 189.825ZM31.5586 186.325L31.4186 183.245L38.7586 175.625H41.6786L35.5786 182.105L34.1386 183.685L31.5586 186.325ZM29.2386 189.625V175.625H31.8386V189.625H29.2386ZM38.9986 189.625L33.6386 183.245L35.3586 181.345L42.0386 189.625H38.9986ZM40.6234 189.625L46.9234 175.625H49.4834L55.8034 189.625H53.0834L47.6634 177.005H48.7034L43.3034 189.625H40.6234ZM43.5234 186.385L44.2234 184.345H51.7834L52.4834 186.385H43.5234ZM56.9839 189.625V175.625H62.7439C63.9839 175.625 65.0439 175.825 65.9239 176.225C66.8172 176.625 67.5039 177.198 67.9839 177.945C68.4639 178.692 68.7039 179.578 68.7039 180.605C68.7039 181.632 68.4639 182.518 67.9839 183.265C67.5039 183.998 66.8172 184.565 65.9239 184.965C65.0439 185.352 63.9839 185.545 62.7439 185.545H58.4239L59.5839 184.365V189.625H56.9839ZM66.1439 189.625L62.6039 184.545H65.3839L68.9439 189.625H66.1439ZM59.5839 184.645L58.4239 183.405H62.6239C63.7706 183.405 64.6306 183.158 65.2039 182.665C65.7906 182.172 66.0839 181.485 66.0839 180.605C66.0839 179.712 65.7906 179.025 65.2039 178.545C64.6306 178.065 63.7706 177.825 62.6239 177.825H58.4239L59.5839 176.545V184.645Z" fill="#034542"/>
<path d="M168.025 189.625L174.325 175.625H176.885L183.205 189.625H180.485L175.065 177.005H176.105L170.705 189.625H168.025ZM170.925 186.385L171.625 184.345H179.185L179.885 186.385H170.925ZM190.112 189.825C188.192 189.825 186.686 189.285 185.592 188.205C184.512 187.125 183.972 185.565 183.972 183.525V175.625H186.572V183.425C186.572 184.865 186.879 185.912 187.492 186.565C188.119 187.218 188.999 187.545 190.133 187.545C191.266 187.545 192.139 187.218 192.752 186.565C193.366 185.912 193.672 184.865 193.672 183.425V175.625H196.233V183.525C196.233 185.565 195.686 187.125 194.592 188.205C193.513 189.285 192.019 189.825 190.112 189.825ZM201.86 189.625V177.825H197.22V175.625H209.1V177.825H204.46V189.625H201.86ZM216.816 189.825C215.722 189.825 214.716 189.645 213.796 189.285C212.876 188.925 212.076 188.425 211.396 187.785C210.716 187.132 210.189 186.372 209.816 185.505C209.442 184.625 209.256 183.665 209.256 182.625C209.256 181.585 209.442 180.632 209.816 179.765C210.189 178.885 210.716 178.125 211.396 177.485C212.076 176.832 212.876 176.325 213.796 175.965C214.716 175.605 215.716 175.425 216.796 175.425C217.889 175.425 218.889 175.605 219.796 175.965C220.716 176.325 221.516 176.832 222.196 177.485C222.876 178.125 223.402 178.885 223.776 179.765C224.149 180.632 224.336 181.585 224.336 182.625C224.336 183.665 224.149 184.625 223.776 185.505C223.402 186.385 222.876 187.145 222.196 187.785C221.516 188.425 220.716 188.925 219.796 189.285C218.889 189.645 217.896 189.825 216.816 189.825ZM216.796 187.545C217.502 187.545 218.156 187.425 218.756 187.185C219.356 186.945 219.876 186.605 220.316 186.165C220.756 185.712 221.096 185.192 221.336 184.605C221.589 184.005 221.716 183.345 221.716 182.625C221.716 181.905 221.589 181.252 221.336 180.665C221.096 180.065 220.756 179.545 220.316 179.105C219.876 178.652 219.356 178.305 218.756 178.065C218.156 177.825 217.502 177.705 216.796 177.705C216.089 177.705 215.436 177.825 214.836 178.065C214.249 178.305 213.729 178.652 213.276 179.105C212.836 179.545 212.489 180.065 212.236 180.665C211.996 181.252 211.876 181.905 211.876 182.625C211.876 183.332 211.996 183.985 212.236 184.585C212.489 185.185 212.836 185.712 213.276 186.165C213.716 186.605 214.236 186.945 214.836 187.185C215.436 187.425 216.089 187.545 216.796 187.545Z" fill="#034542"/>
</svg>
