<svg width="28" height="20" viewBox="0 0 28 20" fill="none" xmlns="http://www.w3.org/2000/svg">
<path d="M27.7648 0.844299H0.235352V19.1557H27.7648V0.844299Z" fill="#B31942"/>
<path d="M0.235352 2.95715H27.7648H0.235352ZM27.7648 5.77429H0.235352H27.7648ZM0.235352 8.59144H27.7648H0.235352ZM27.7648 11.4086H0.235352H27.7648ZM0.235352 14.2257H27.7648H0.235352ZM27.7648 17.0429H0.235352H27.7648Z" fill="#000008"/>
<path d="M0.235352 2.95715H27.7648M27.7648 5.77429H0.235352M0.235352 8.59144H27.7648M27.7648 11.4086H0.235352M0.235352 14.2257H27.7648M27.7648 17.0429H0.235352" stroke="white" stroke-width="1.40857"/>
<path d="M14.152 0.844299H0.235352V10.7043H14.152V0.844299Z" fill="#0A3161"/>
<path d="M1.39498 1.26685L1.72616 2.2861L0.859131 1.65617H1.93084L1.06381 2.2861L1.39498 1.26685Z" fill="white"/>
<path d="M1.39498 3.23883L1.72616 4.25808L0.859131 3.62815H1.93084L1.06381 4.25808L1.39498 3.23883Z" fill="white"/>
<path d="M1.39498 5.21088L1.72616 6.23013L0.859131 5.6002H1.93084L1.06381 6.23013L1.39498 5.21088Z" fill="white"/>
<path d="M1.39498 7.18286L1.72616 8.20211L0.859131 7.57218H1.93084L1.06381 8.20211L1.39498 7.18286Z" fill="white"/>
<path d="M1.39498 9.15485L1.72616 10.1741L0.859131 9.54417H1.93084L1.06381 10.1741L1.39498 9.15485Z" fill="white"/>
<path d="M2.55465 2.25287L2.88583 3.27212L2.0188 2.64219H3.0905L2.22348 3.27212L2.55465 2.25287Z" fill="white"/>
<path d="M2.55465 4.22491L2.88583 5.24417L2.0188 4.61423H3.0905L2.22348 5.24417L2.55465 4.22491Z" fill="white"/>
<path d="M2.55465 6.1969L2.88583 7.21615L2.0188 6.58622H3.0905L2.22348 7.21615L2.55465 6.1969Z" fill="white"/>
<path d="M2.55465 8.16888L2.88583 9.18814L2.0188 8.5582H3.0905L2.22348 9.18814L2.55465 8.16888Z" fill="white"/>
<path d="M3.71432 1.26685L4.04549 2.2861L3.17847 1.65617H4.25017L3.38314 2.2861L3.71432 1.26685Z" fill="white"/>
<path d="M3.71432 3.23889L4.04549 4.25814L3.17847 3.62821H4.25017L3.38314 4.25814L3.71432 3.23889Z" fill="white"/>
<path d="M3.71432 5.21088L4.04549 6.23013L3.17847 5.6002H4.25017L3.38314 6.23013L3.71432 5.21088Z" fill="white"/>
<path d="M3.71432 7.18292L4.04549 8.20217L3.17847 7.57224H4.25017L3.38314 8.20217L3.71432 7.18292Z" fill="white"/>
<path d="M3.71432 9.15491L4.04549 10.1742L3.17847 9.54423H4.25017L3.38314 10.1742L3.71432 9.15491Z" fill="white"/>
<path d="M4.87423 2.25293L5.20541 3.27218L4.33838 2.64225H5.41008L4.54306 3.27218L4.87423 2.25293Z" fill="white"/>
<path d="M4.87423 4.22491L5.20541 5.24417L4.33838 4.61423H5.41008L4.54306 5.24417L4.87423 4.22491Z" fill="white"/>
<path d="M4.87423 6.1969L5.20541 7.21615L4.33838 6.58622H5.41008L4.54306 7.21615L4.87423 6.1969Z" fill="white"/>
<path d="M4.87423 8.16895L5.20541 9.1882L4.33838 8.55826H5.41008L4.54306 9.1882L4.87423 8.16895Z" fill="white"/>
<path d="M6.0339 1.26685L6.36507 2.2861L5.49805 1.65617H6.56975L5.70272 2.2861L6.0339 1.26685Z" fill="white"/>
<path d="M6.0339 3.23889L6.36507 4.25814L5.49805 3.62821H6.56975L5.70272 4.25814L6.0339 3.23889Z" fill="white"/>
<path d="M6.0339 5.21088L6.36507 6.23013L5.49805 5.6002H6.56975L5.70272 6.23013L6.0339 5.21088Z" fill="white"/>
<path d="M6.0339 7.18292L6.36507 8.20217L5.49805 7.57224H6.56975L5.70272 8.20217L6.0339 7.18292Z" fill="white"/>
<path d="M6.0339 9.15491L6.36507 10.1742L5.49805 9.54423H6.56975L5.70272 10.1742L6.0339 9.15491Z" fill="white"/>
<path d="M7.19381 2.25293L7.52499 3.27218L6.65796 2.64225H7.72966L6.86264 3.27218L7.19381 2.25293Z" fill="white"/>
<path d="M7.19381 4.22491L7.52499 5.24417L6.65796 4.61423H7.72966L6.86264 5.24417L7.19381 4.22491Z" fill="white"/>
<path d="M7.19381 6.19696L7.52499 7.21621L6.65796 6.58628H7.72966L6.86264 7.21621L7.19381 6.19696Z" fill="white"/>
<path d="M7.19381 8.16895L7.52499 9.1882L6.65796 8.55826H7.72966L6.86264 9.1882L7.19381 8.16895Z" fill="white"/>
<path d="M8.35324 1.26691L8.68441 2.28616L7.81738 1.65623H8.88909L8.02206 2.28616L8.35324 1.26691Z" fill="white"/>
<path d="M8.35324 3.23889L8.68441 4.25814L7.81738 3.62821H8.88909L8.02206 4.25814L8.35324 3.23889Z" fill="white"/>
<path d="M8.35324 5.21094L8.68441 6.23019L7.81738 5.60026H8.88909L8.02206 6.23019L8.35324 5.21094Z" fill="white"/>
<path d="M8.35324 7.18292L8.68441 8.20217L7.81738 7.57224H8.88909L8.02206 8.20217L8.35324 7.18292Z" fill="white"/>
<path d="M8.35324 9.15491L8.68441 10.1742L7.81738 9.54423H8.88909L8.02206 10.1742L8.35324 9.15491Z" fill="white"/>
<path d="M9.51315 2.25293L9.84432 3.27218L8.97729 2.64225H10.049L9.18197 3.27218L9.51315 2.25293Z" fill="white"/>
<path d="M9.51315 4.22491L9.84432 5.24417L8.97729 4.61423H10.049L9.18197 5.24417L9.51315 4.22491Z" fill="white"/>
<path d="M9.51315 6.1969L9.84432 7.21615L8.97729 6.58622H10.049L9.18197 7.21615L9.51315 6.1969Z" fill="white"/>
<path d="M9.51315 8.16895L9.84432 9.1882L8.97729 8.55826H10.049L9.18197 9.1882L9.51315 8.16895Z" fill="white"/>
<path d="M10.6726 1.26691L11.0037 2.28616L10.1367 1.65623H11.2084L10.3414 2.28616L10.6726 1.26691Z" fill="white"/>
<path d="M10.6726 3.23889L11.0037 4.25814L10.1367 3.62821H11.2084L10.3414 4.25814L10.6726 3.23889Z" fill="white"/>
<path d="M10.6726 5.21094L11.0037 6.23019L10.1367 5.60026H11.2084L10.3414 6.23019L10.6726 5.21094Z" fill="white"/>
<path d="M10.6726 7.18292L11.0037 8.20217L10.1367 7.57224H11.2084L10.3414 8.20217L10.6726 7.18292Z" fill="white"/>
<path d="M10.6726 9.15491L11.0037 10.1742L10.1367 9.54423H11.2084L10.3414 10.1742L10.6726 9.15491Z" fill="white"/>
<path d="M11.8325 2.25287L12.1637 3.27212L11.2966 2.64219H12.3683L11.5013 3.27212L11.8325 2.25287Z" fill="white"/>
<path d="M11.8325 4.22491L12.1637 5.24417L11.2966 4.61423H12.3683L11.5013 5.24417L11.8325 4.22491Z" fill="white"/>
<path d="M11.8325 6.1969L12.1637 7.21615L11.2966 6.58622H12.3683L11.5013 7.21615L11.8325 6.1969Z" fill="white"/>
<path d="M11.8325 8.16888L12.1637 9.18814L11.2966 8.5582H12.3683L11.5013 9.18814L11.8325 8.16888Z" fill="white"/>
<path d="M12.9924 1.26691L13.3236 2.28616L12.4565 1.65623H13.5282L12.6612 2.28616L12.9924 1.26691Z" fill="white"/>
<path d="M12.9922 3.23895L13.3233 4.2582L12.4563 3.62827H13.528L12.661 4.2582L12.9922 3.23895Z" fill="white"/>
<path d="M12.9922 5.21094L13.3233 6.23019L12.4563 5.60026H13.528L12.661 6.23019L12.9922 5.21094Z" fill="white"/>
<path d="M12.9922 7.18292L13.3233 8.20217L12.4563 7.57224H13.528L12.661 8.20217L12.9922 7.18292Z" fill="white"/>
<path d="M12.9922 9.15491L13.3233 10.1742L12.4563 9.54423H13.528L12.661 10.1742L12.9922 9.15491Z" fill="white"/>
</svg>
