<svg width="29" height="20" viewBox="0 0 29 20" fill="none" xmlns="http://www.w3.org/2000/svg">
<mask id="mask0_112_1912" style="mask-type:luminance" maskUnits="userSpaceOnUse" x="0" y="0" width="29" height="20">
<path d="M0.735352 0.823547H28.2648V19.1765H0.735352V0.823547Z" fill="white"/>
</mask>
<g mask="url(#mask0_112_1912)">
<path fill-rule="evenodd" clip-rule="evenodd" d="M0.735107 0.823486H28.2686V19.1764H0.735107V0.823486Z" fill="white"/>
<path fill-rule="evenodd" clip-rule="evenodd" d="M5.14917 6.40747L7.70014 2.60873L8.30767 3.01112L5.7567 6.80986L5.14917 6.40747ZM6.06046 7.01105L8.61143 3.21231L9.21896 3.6147L6.66799 7.41344L6.06046 7.01105ZM6.97176 7.61463L9.52273 3.81589L10.1303 4.21828L7.57929 8.01702L6.97176 7.61463Z" fill="#000008"/>
<path fill-rule="evenodd" clip-rule="evenodd" d="M18.845 15.5622L21.3959 11.7635L22.0035 12.1658L19.4525 15.9646L18.845 15.5622ZM19.7563 16.1658L22.3072 12.367L22.9148 12.7694L20.3638 16.5682L19.7563 16.1658ZM20.6676 16.7694L23.2185 12.9706L23.8261 13.373L21.2751 17.1717L20.6676 16.7694Z" fill="#000008"/>
<path fill-rule="evenodd" clip-rule="evenodd" d="M19.7788 13.4272L22.8914 15.5078L19.7788 13.4272Z" fill="#000008"/>
<path d="M19.7788 13.4272L22.8914 15.5078" stroke="white" stroke-width="3.06248"/>
<path fill-rule="evenodd" clip-rule="evenodd" d="M10.7524 7.492C11.4361 6.47294 12.4807 5.75348 13.6565 5.49188C14.8323 5.23029 16.0429 5.44799 17.022 6.0971C18.0011 6.74621 18.6685 7.77356 18.8774 8.95313C19.0863 10.1327 18.8195 11.3679 18.1359 12.387L10.7524 7.492Z" fill="#CD2E3A"/>
<path fill-rule="evenodd" clip-rule="evenodd" d="M10.8294 7.43388C10.1483 8.44823 9.8826 9.6777 10.0907 10.8518C10.2988 12.0259 10.9636 13.0485 11.9389 13.6946C12.9143 14.3407 14.1202 14.5574 15.2914 14.2971C16.4626 14.0367 17.5032 13.3205 18.1843 12.3062C18.5248 11.799 18.6577 11.1843 18.5536 10.5972C18.4496 10.0102 18.1171 9.49886 17.6295 9.17581C17.1418 8.85275 16.5389 8.7444 15.9532 8.8746C15.3676 9.00479 14.8473 9.36286 14.5068 9.87003L10.8294 7.43388Z" fill="#0047A0"/>
<path d="M14.4532 9.85596C15.1601 8.80323 14.9125 7.40624 13.9001 6.73569C12.8878 6.06513 11.494 6.37495 10.7871 7.42767C10.0802 8.4804 10.3278 9.87739 11.3402 10.5479C12.3525 11.2185 13.7463 10.9087 14.4532 9.85596Z" fill="#CD2E3A"/>
<path fill-rule="evenodd" clip-rule="evenodd" d="M7.71045 17.173L5.15967 13.3741L5.76722 12.9718L8.318 16.7706L7.71045 17.173ZM8.62177 16.5694L6.07099 12.7706L6.67854 12.3682L9.22932 16.1671L8.62177 16.5694ZM9.5331 15.9659L6.98232 12.1671L7.58986 11.7647L10.1406 15.5635L9.5331 15.9659Z" fill="#000008"/>
<path fill-rule="evenodd" clip-rule="evenodd" d="M21.4062 8.01849L18.8553 4.21976L19.4628 3.81737L22.0138 7.61611L21.4062 8.01849ZM22.3175 7.41491L19.7666 3.61617L20.3741 3.21379L22.9251 7.01253L22.3175 7.41491ZM23.2288 6.81133L20.6779 3.01259L21.2854 2.61021L23.8364 6.40894L23.2288 6.81133Z" fill="#000008"/>
<path fill-rule="evenodd" clip-rule="evenodd" d="M7.18311 14.7812L8.11688 14.157L7.18311 14.7812ZM19.7891 6.35455L20.8785 5.62632L19.7891 6.35455ZM21.8123 5.00213L22.7461 4.37793L21.8123 5.00213Z" fill="#000008"/>
<path d="M7.18311 14.7812L8.11688 14.157M19.7891 6.35455L20.8785 5.62632M21.8123 5.00213L22.7461 4.37793" stroke="white" stroke-width="3.06248"/>
</g>
</svg>
