<svg width="60" height="19" viewBox="0 0 60 19" fill="none" xmlns="http://www.w3.org/2000/svg">
<path d="M39.3302 4.24752C39.4421 4.24635 39.554 4.24518 39.6693 4.24397C39.8521 4.2432 39.8521 4.2432 40.0385 4.24241C40.1628 4.24171 40.2871 4.24102 40.4152 4.24031C40.6788 4.23915 40.9424 4.23836 41.206 4.23789C41.6101 4.23671 42.0141 4.23294 42.4182 4.2291C42.6738 4.22831 42.9294 4.22767 43.185 4.2272C43.3063 4.2257 43.4277 4.2242 43.5528 4.22265C43.6654 4.22301 43.778 4.22338 43.894 4.22376C43.9931 4.22331 44.0923 4.22287 44.1945 4.22241C44.501 4.27648 44.5936 4.3641 44.7798 4.63207C45.1355 5.59231 45.3008 6.61592 45.4757 7.63008C45.5518 8.0251 45.6545 8.37016 45.7955 8.74061C45.9762 9.27985 46.0923 9.84382 46.2221 10.4C46.2899 10.6767 46.3641 10.9517 46.4469 11.2235C46.5364 11.5206 46.5981 11.7985 46.647 12.1059C46.7509 12.7076 46.8957 13.2922 47.0446 13.882C47.186 14.4568 47.2888 15.032 47.38 15.6186C47.4831 16.2813 47.6297 16.8734 47.9034 17.4775C48.0281 17.9061 48.001 18.2946 47.9886 18.7435C47.5737 18.7541 47.1588 18.7606 46.7438 18.7663C46.5673 18.7709 46.5673 18.7709 46.3872 18.7755C46.2738 18.7767 46.1604 18.7779 46.0436 18.7791C45.8872 18.782 45.8872 18.782 45.7276 18.7849C45.3915 18.7359 45.2446 18.6338 45.0011 18.3785C44.897 18.0706 44.897 18.0706 44.8282 17.7094C44.8017 17.578 44.7752 17.4466 44.7479 17.3112C44.7219 17.1817 44.6959 17.0522 44.6692 16.9187C44.6174 16.7105 44.5645 16.5027 44.5101 16.2953C44.3548 15.6759 44.2232 15.0517 44.0952 14.4249C44.0754 14.3287 44.0556 14.2326 44.0352 14.1335C43.9595 13.7575 43.8947 13.4123 43.8947 13.0259C43.8216 13.0259 43.7486 13.0259 43.6734 13.0259C43.6533 12.8922 43.6332 12.7584 43.6124 12.6206C43.474 11.7185 43.3265 10.8344 43.0929 9.95521C42.9583 9.41362 42.8611 8.86359 42.7601 8.31341C42.6711 7.85597 42.6711 7.85597 42.4563 7.18672C41.9086 7.18672 41.3609 7.18672 40.7966 7.18672C40.6347 7.63159 40.5224 7.99729 40.4301 8.45644C40.3877 8.6632 40.3877 8.6632 40.3445 8.87414C40.2899 9.14464 40.2356 9.41522 40.1814 9.68583C39.9387 10.8965 39.6953 12.0936 39.3487 13.274C39.0994 14.1618 38.9059 15.0147 38.9156 15.9455C39.025 15.9473 39.1345 15.9491 39.2473 15.9509C39.6527 15.9579 40.0581 15.9673 40.4635 15.9774C40.639 15.9815 40.8146 15.9849 40.9902 15.9877C41.2424 15.9917 41.4944 15.9981 41.7466 16.0049C41.8253 16.0057 41.904 16.0065 41.9851 16.0073C42.2066 16.0146 42.2066 16.0146 42.5669 16.0672C42.798 16.4483 42.8158 16.5356 42.8137 16.9691C42.8135 17.0716 42.8133 17.1742 42.8131 17.2799C42.8117 17.3865 42.8103 17.4931 42.809 17.603C42.8088 17.7644 42.8088 17.7644 42.8087 17.929C42.8037 18.7264 42.8037 18.7264 42.6776 18.8651C42.5224 18.88 42.3666 18.8867 42.2108 18.8901C42.0615 18.8937 42.0615 18.8937 41.9092 18.8974C41.8002 18.8995 41.6912 18.9015 41.5789 18.9036C41.4661 18.9061 41.3534 18.9087 41.2372 18.9113C40.9967 18.9165 40.7561 18.9215 40.5156 18.9263C40.155 18.9334 39.7944 18.9413 39.4338 18.9495C38.3388 18.9733 37.2438 18.9923 36.1486 18.9977C36.06 18.9985 35.9713 18.9993 35.88 19.0002C35.6747 19.0005 35.4694 18.9943 35.2643 18.9868C35.1536 18.8651 35.1536 18.8651 35.1428 18.6137C35.1441 18.5135 35.1454 18.4133 35.1467 18.3101C35.1477 18.2096 35.1487 18.1091 35.1497 18.0055C35.151 17.9279 35.1523 17.8502 35.1536 17.7703C35.2267 17.7703 35.2997 17.7703 35.3749 17.7703C35.3791 17.6881 35.3832 17.6059 35.3875 17.5213C35.3947 17.4128 35.402 17.3042 35.4095 17.1924C35.4159 17.0852 35.4223 16.9779 35.4289 16.8674C35.4856 16.5538 35.4856 16.5538 35.6425 16.3261C35.8809 15.9734 35.951 15.5984 36.0388 15.1776C36.0573 15.0928 36.0758 15.008 36.0949 14.9207C36.2558 14.1718 36.3934 13.4182 36.5242 12.6624C36.592 12.296 36.592 12.296 36.7027 11.9311C36.7757 11.9311 36.8487 11.9311 36.924 11.9311C36.9263 11.8179 36.9263 11.8179 36.9287 11.7025C36.9671 10.9194 37.1226 10.2586 37.3651 9.52251C37.6085 8.75779 37.7454 7.97948 37.8719 7.18247C37.9734 6.56559 38.1231 6.05261 38.3624 5.48362C38.4249 5.2869 38.4852 5.08933 38.5422 4.89057C38.7115 4.29993 38.7601 4.2523 39.3302 4.24752Z" fill="white"/>
<path d="M57.3384 2.8028C58.2159 3.34343 58.8403 4.38316 59.3345 5.46421C59.4089 5.91088 59.4089 5.91088 59.4336 6.25829C59.4991 6.25829 59.5645 6.25829 59.6319 6.25829C59.6319 6.47666 59.6319 6.69503 59.6319 6.92002C59.2313 6.94703 58.8308 6.96341 58.4298 6.97792C58.2599 6.98956 58.2599 6.98956 58.0866 7.00144C57.2549 7.02404 57.2549 7.02404 56.9543 6.71636C56.8001 6.46508 56.8001 6.46508 56.6812 6.21279C56.4685 5.83312 56.2022 5.81006 55.8644 5.7289C55.8644 5.64155 55.8644 5.5542 55.8644 5.46421C55.5834 5.45339 55.3027 5.44556 55.0216 5.43939C54.9432 5.43606 54.8647 5.43274 54.7838 5.42931C54.1214 5.41844 53.5981 5.58055 53.0387 6.08458C52.8201 6.53447 52.837 6.92803 52.89 7.44941C52.9775 7.81923 53.0261 7.93325 53.2804 8.11941C53.3479 8.16036 53.4154 8.2013 53.4849 8.24349C53.5302 8.30816 53.5755 8.37283 53.6221 8.43945C53.8057 8.66984 53.9277 8.72541 54.1704 8.80544C54.2454 8.83133 54.3204 8.85722 54.3977 8.88389C54.4768 8.91004 54.556 8.93618 54.6375 8.96312C55.211 9.16195 55.7352 9.38121 56.2683 9.73084C56.483 9.8442 56.6631 9.86966 56.893 9.88955C57.8811 9.99083 58.7495 10.7836 59.4383 11.6855C59.9797 12.5384 60.0353 13.3516 59.9855 14.4271C59.9206 15.2473 59.7119 15.9812 59.4336 16.7137C59.3733 16.8887 59.3733 16.8887 59.3116 17.0673C59.1145 17.4134 58.9369 17.5228 58.6354 17.6731C58.4328 17.7773 58.2469 17.9021 58.0553 18.0382C57.9895 18.0841 57.9238 18.13 57.856 18.1772C57.7221 18.2713 57.5886 18.3665 57.4556 18.4626C56.9965 18.78 56.5814 18.9294 56.0627 18.9636C55.9784 18.9693 55.8941 18.9751 55.8073 18.981C54.2247 19.0619 52.9684 18.9238 51.6011 17.7725C51.4948 17.6878 51.3884 17.6032 51.2789 17.516C50.6322 16.8686 50.248 15.9644 49.9156 14.9932C49.9156 14.8621 49.9156 14.7311 49.9156 14.5961C49.8502 14.5961 49.7848 14.5961 49.7173 14.5961C49.7131 14.3315 49.7133 14.0667 49.7173 13.802C49.9497 13.4919 50.5088 13.6325 50.8203 13.6283C50.9599 13.6226 50.9599 13.6226 51.1023 13.6167C51.7212 13.6092 52.0919 13.702 52.5926 14.1991C52.7332 14.4348 52.7332 14.4348 52.8094 14.6623C53.0946 15.3972 53.3594 15.6848 53.9446 15.9676C54.369 16.1204 54.7892 16.1144 55.2261 16.1098C55.316 16.1125 55.406 16.1151 55.4986 16.1179C56.2093 16.1172 56.5704 15.8914 57.1448 15.3406C57.3104 15.0096 57.2918 14.7242 57.2896 14.3314C57.2904 14.1922 57.2911 14.053 57.2919 13.9096C57.2753 13.5413 57.2753 13.5413 57.1273 13.3099C56.9371 13.1227 56.7468 12.962 56.5398 12.8094C56.4689 12.7562 56.398 12.703 56.3249 12.6482C55.6691 12.2241 55.0241 11.9971 54.309 11.8251C52.7086 11.4097 51.6266 10.9808 50.6096 9.16991C50.3575 8.58942 50.3749 8.07286 50.3742 7.41632C50.3717 7.30765 50.3693 7.19897 50.3668 7.087C50.3639 6.28204 50.5092 5.75699 50.8079 5.06717C50.8724 4.86244 50.8724 4.86244 50.9381 4.65358C51.1298 4.21753 51.3449 3.97371 51.6383 3.66202C51.8139 3.47951 51.8139 3.47951 51.9481 3.18122C52.1769 2.82496 52.4563 2.79845 52.7909 2.68492C52.8727 2.61839 52.9544 2.55185 53.0387 2.4833C54.2738 1.78778 56.1159 2.16701 57.3384 2.8028Z" fill="white"/>
<path d="M0.962377 4.23804C3.04607 4.21282 5.1286 4.20384 7.21043 4.32504C7.38453 4.33516 7.55866 4.34468 7.7328 4.35358C7.97534 4.36633 8.21767 4.38158 8.46006 4.39772C8.59747 4.40628 8.73488 4.41485 8.87645 4.42367C9.03465 4.4563 9.03465 4.4563 9.19604 4.4896C9.43467 4.91064 9.43461 5.03189 9.42606 5.52129C9.42335 5.72156 9.42335 5.72156 9.42057 5.92589C9.41747 6.07014 9.41436 6.21439 9.41116 6.36302C9.40874 6.51145 9.40631 6.65988 9.40382 6.81282C9.39847 7.12717 9.39259 7.44151 9.38623 7.75583C9.37656 8.23611 9.36855 8.7164 9.36083 9.19673C9.35542 9.50209 9.34993 9.80745 9.34433 10.1128C9.34064 10.328 9.34064 10.328 9.33688 10.5476C9.33405 10.6823 9.33123 10.817 9.32832 10.9558C9.32602 11.0737 9.32371 11.1915 9.32133 11.3129C9.30152 11.6865 9.25103 12.0453 9.19604 12.4137C9.18595 12.6328 9.17967 12.8522 9.17725 13.0716C9.12878 15.6443 9.12878 15.6443 8.66139 16.6902C8.59082 16.6902 8.52024 16.6902 8.44753 16.6902C8.40783 16.838 8.40783 16.838 8.36733 16.9889C8.20999 17.3775 8.11891 17.3866 7.80594 17.5706C7.77066 17.6744 7.73537 17.7782 7.69901 17.8851C7.59208 18.1995 7.59208 18.1995 7.37154 18.3489C7.26898 18.3995 7.26898 18.3995 7.16436 18.4511C7.12907 18.5341 7.09379 18.6171 7.05743 18.7026C6.43075 18.9396 5.82609 18.9833 5.17277 18.9935C5.05792 18.9968 5.05792 18.9968 4.94074 19.0002C4.1851 18.9992 3.60695 18.6916 3.00743 18.1523C2.88544 18.0458 2.88544 18.0458 2.76099 17.9371C2.52948 17.6508 2.49449 17.4549 2.45941 17.0675C2.38883 17.0675 2.31826 17.0675 2.24555 17.0675C2.20364 16.9456 2.16174 16.8236 2.11857 16.698C1.94622 16.2198 1.73198 15.7789 1.50622 15.3331C1.3802 15.0313 1.32759 14.7571 1.28317 14.4261C1.21259 14.4261 1.14202 14.4261 1.06931 14.4261C1.03002 14.2073 1.03002 14.2073 0.989945 13.984C0.869326 13.4159 0.662346 12.9492 0.414357 12.4451C0 11.6002 0 11.6002 0 11.0301C2.25445 11.2217 2.25445 11.2217 3.10099 12.1621C3.24824 12.3672 3.39262 12.5755 3.52871 12.791C3.63458 12.8533 3.63458 12.8533 3.74258 12.9168C3.98828 13.6321 4.10635 14.3994 4.22669 15.1548C4.28493 15.4747 4.37352 15.7649 4.49109 16.0613C4.64233 16.0894 4.79388 16.1151 4.94555 16.1399C5.0299 16.1545 5.11426 16.1691 5.20118 16.1841C5.49201 16.1875 5.63995 16.123 5.88119 15.9355C5.9673 15.6776 5.9673 15.6776 5.98812 15.4324C6.09398 15.4324 6.19984 15.4324 6.30891 15.4324C6.3442 13.3985 6.37949 11.3647 6.41584 9.2692C7.27129 8.76609 7.27129 8.76609 7.5854 8.64031C7.65818 8.5988 7.73096 8.55729 7.80594 8.51453C7.87622 8.25995 7.87622 8.25995 7.91287 8.01141C7.80605 7.99471 7.69922 7.97801 7.58916 7.9608C7.45118 7.93859 7.3132 7.91638 7.17104 7.89349C7.03334 7.8716 6.89564 7.84972 6.75376 7.82716C6.41584 7.75985 6.41584 7.75985 6.30891 7.63407C6.10656 7.61075 5.9037 7.59343 5.70075 7.57905C5.22996 7.53812 4.82399 7.4723 4.38416 7.25674C4.38416 7.17372 4.38416 7.09071 4.38416 7.00518C4.28933 6.97405 4.19449 6.94292 4.09678 6.91084C3.72447 6.74558 3.51222 6.54733 3.20792 6.2505C2.96239 6.07287 2.71222 5.91066 2.45941 5.74739C2.45941 5.66437 2.45941 5.58136 2.45941 5.49583C2.39104 5.46729 2.32267 5.43876 2.25223 5.40936C1.80358 5.18319 1.38593 4.89976 0.962377 4.61538C0.962377 4.49085 0.962377 4.36633 0.962377 4.23804Z" fill="white"/>
<path d="M12.35 4.25303C12.4512 4.25051 12.5524 4.24798 12.6567 4.24538C13.5896 4.23938 13.5896 4.23938 14.0191 4.65123C14.1119 4.73581 14.1119 4.73581 14.2066 4.82209C14.3778 5.08024 14.3897 5.27116 14.4099 5.59312C14.4204 5.74166 14.4204 5.74166 14.431 5.8932C14.435 5.96854 14.4389 6.04387 14.443 6.12149C14.5479 6.12149 14.6529 6.12149 14.7609 6.12149C14.9199 6.35936 14.9199 6.35936 15.0789 6.6805C15.1345 6.79232 15.1901 6.90414 15.2474 7.01935C15.3674 7.28233 15.4698 7.53723 15.5624 7.81382C15.6974 8.22133 15.6974 8.22133 15.9863 8.51832C16.2736 8.85049 16.3571 9.10228 16.4566 9.5521C16.5265 9.5521 16.5965 9.5521 16.6685 9.5521C16.7385 9.83513 16.8084 10.1182 16.8805 10.4098C17.0204 10.4098 17.1603 10.4098 17.3044 10.4098C17.3503 10.2834 17.3962 10.1571 17.4435 10.0269C17.8666 8.89531 17.8666 8.89531 18.1377 8.60687C18.4245 8.25232 18.5851 7.85768 18.7616 7.42329C19.0477 6.74411 19.3391 6.07028 19.6558 5.40933C19.7207 5.27209 19.7856 5.13484 19.8524 4.99343C20.0804 4.61734 20.2362 4.48435 20.5897 4.28366C20.8833 4.24194 20.8833 4.24194 21.1978 4.24777C21.3674 4.24955 21.3674 4.24955 21.5404 4.25136C21.7157 4.25598 21.7157 4.25598 21.8945 4.26069C22.0135 4.26235 22.1324 4.26401 22.2549 4.26572C22.5477 4.27004 22.8404 4.27608 23.1331 4.28366C23.1643 4.83242 23.1345 5.10783 22.8285 5.53186C22.7719 5.61193 22.7153 5.692 22.6571 5.77451C22.6043 5.84858 22.5516 5.92265 22.4973 5.99897C22.4273 6.12027 22.3574 6.24156 22.2853 6.36654C22.2154 6.36654 22.1454 6.36654 22.0734 6.36654C22.0034 6.60913 21.9335 6.85172 21.8614 7.10167C21.7915 7.10167 21.7215 7.10167 21.6495 7.10167C21.6201 7.18916 21.5907 7.27666 21.5605 7.36681C21.217 8.3375 20.7784 9.25488 20.3181 10.1571C20.2796 10.2338 20.2411 10.3105 20.2014 10.3896C19.9508 10.8726 19.6717 11.2426 19.318 11.635C18.7465 12.753 18.5643 13.9401 18.5426 15.2173C18.5393 15.3792 18.5393 15.3792 18.5359 15.5443C18.529 15.8876 18.5228 16.2309 18.5165 16.5741C18.5119 16.8075 18.5073 17.0408 18.5026 17.2741C18.4913 17.8448 18.4806 18.4155 18.4702 18.9863C18.0485 18.9898 17.6268 18.992 17.205 18.9939C17.0244 18.9955 17.0244 18.9955 16.8401 18.997C16.7257 18.9974 16.6113 18.9978 16.4934 18.9982C16.3344 18.9992 16.3344 18.9992 16.1722 19.0002C15.9267 18.9863 15.9267 18.9863 15.8207 18.8638C15.8076 18.4967 15.801 18.1321 15.7984 17.7649C15.7954 17.5358 15.7924 17.3067 15.7893 17.0776C15.7849 16.716 15.781 16.3545 15.7782 15.9929C15.7752 15.6442 15.7704 15.2956 15.7652 14.9469C15.7649 14.8404 15.7646 14.7339 15.7642 14.6242C15.748 13.6763 15.5871 12.8804 15.0789 12.1251C15.0789 11.9633 15.0789 11.8016 15.0789 11.635C14.939 11.635 14.7991 11.635 14.655 11.635C14.585 11.3519 14.5151 11.0689 14.443 10.7773C14.3731 10.7773 14.3031 10.7773 14.2311 10.7773C14.1961 10.6156 14.1611 10.4539 14.1251 10.2872C14.0551 10.2872 13.9852 10.2872 13.9131 10.2872C13.9022 10.2089 13.8913 10.1306 13.88 10.0498C13.856 9.96645 13.8319 9.88306 13.8072 9.79715C13.6498 9.7365 13.6498 9.7365 13.4892 9.67462C13.3832 9.40661 13.3832 9.40661 13.2773 9.06201C13.0752 8.53493 13.0752 8.53493 12.7474 8.11247C12.4599 7.73858 12.4012 7.35518 12.3032 6.87433C12.2608 6.74427 12.2608 6.74427 12.2175 6.61158C12.1126 6.57115 12.0077 6.53071 11.8996 6.48906C11.7601 6.21769 11.7601 6.21769 11.628 5.88411C11.4413 5.41322 11.4413 5.41322 11.1577 5.0188C11.1379 4.70483 11.1379 4.70483 11.1577 4.40619C11.4065 4.11852 12.0161 4.25508 12.35 4.25303Z" fill="white"/>
<path d="M25.342 4.22241C26.8316 4.22241 28.3212 4.22241 29.856 4.22241C29.9717 4.70983 29.9717 4.70983 29.8198 5.04493C29.7553 5.13541 29.6909 5.22588 29.6245 5.3191C29.5481 5.3191 29.4717 5.3191 29.393 5.3191C29.393 5.39952 29.393 5.47995 29.393 5.56281C29.3071 5.61559 29.2211 5.66837 29.1326 5.72274C28.7636 5.9611 28.5863 6.15414 28.3513 6.53764C28.3088 6.86888 28.2924 7.14925 28.2988 7.47931C28.2987 7.5721 28.2986 7.66489 28.2986 7.7605C28.2989 8.06582 28.3025 8.37099 28.3061 8.67628C28.307 8.88851 28.3076 9.10073 28.3081 9.31296C28.3099 9.87049 28.3144 10.428 28.3195 10.9855C28.3243 11.5548 28.3264 12.1241 28.3287 12.6934C28.3337 13.8097 28.3416 14.926 28.3513 16.0423C28.4219 16.0433 28.4924 16.0442 28.5651 16.0453C29.2973 16.0557 30.0295 16.0679 30.7617 16.081C31.0352 16.0856 31.3086 16.0899 31.5821 16.0937C31.9746 16.0992 32.367 16.1063 32.7595 16.1137C32.8823 16.1151 33.0052 16.1165 33.1318 16.1179C33.2453 16.1204 33.3588 16.1228 33.4758 16.1253C33.6261 16.1277 33.6261 16.1277 33.7795 16.1302C34.0227 16.1641 34.0227 16.1641 34.2542 16.4078C34.2841 16.6442 34.2841 16.6442 34.2849 16.9295C34.2853 17.0834 34.2853 17.0834 34.2858 17.2404C34.2849 17.3476 34.284 17.4549 34.2831 17.5655C34.2844 17.7264 34.2844 17.7264 34.2858 17.8906C34.2855 17.9931 34.2852 18.0957 34.2849 18.2014C34.2846 18.2956 34.2844 18.3897 34.2841 18.4867C34.2542 18.7231 34.2542 18.7231 34.0227 18.9668C33.6712 18.9977 33.6712 18.9977 33.2138 18.9983C33.089 18.999 33.089 18.999 32.9617 18.9996C32.686 19.0007 32.4103 19 32.1346 18.9991C31.9435 18.9993 31.7523 18.9995 31.5612 18.9999C31.1603 19.0002 30.7595 18.9997 30.3586 18.9986C29.8441 18.9972 29.3295 18.998 28.815 18.9994C28.4202 19.0003 28.0254 19 27.6306 18.9994C27.4409 18.9992 27.2511 18.9994 27.0614 19C26.7964 19.0006 26.5315 18.9997 26.2666 18.9983C26.1157 18.9981 25.9647 18.9979 25.8092 18.9977C25.4578 18.9668 25.4578 18.9668 25.2263 18.7231C25.1985 18.4393 25.1985 18.4393 25.2 18.0802C25.2 17.946 25.2001 17.8119 25.2001 17.6736C25.2019 17.4556 25.2019 17.4556 25.2037 17.2332C25.204 17.0848 25.2043 16.9364 25.2047 16.7835C25.206 16.3079 25.2089 15.8324 25.2118 15.3568C25.213 15.0351 25.214 14.7133 25.215 14.3915C25.2176 13.6014 25.2215 12.8112 25.2263 12.0211C24.5388 12.0211 23.8513 12.0211 23.1429 12.0211C23.277 11.3154 23.5024 10.9179 24.0625 10.5213C24.1874 10.4402 24.1874 10.4402 24.3148 10.3575C24.9202 9.93987 25.4145 9.44002 25.9207 8.89857C26.0089 8.80715 26.0971 8.71573 26.1879 8.62154C26.2716 8.53295 26.3553 8.44436 26.4416 8.35308C26.5168 8.2735 26.592 8.19392 26.6695 8.11193C26.8848 7.86096 26.8848 7.86096 26.9624 7.39062C26.3895 7.39062 25.8166 7.39062 25.2263 7.39062C25.2232 6.93113 25.2209 6.47165 25.2191 6.01215C25.2181 5.88154 25.2171 5.75093 25.2161 5.61636C25.2158 5.49109 25.2154 5.36582 25.215 5.23675C25.2144 5.12125 25.2138 5.00575 25.2132 4.88675C25.2263 4.58797 25.2263 4.58797 25.342 4.22241Z" fill="white"/>
<path d="M2.70324 0C3.3445 0.0478044 3.72634 0.226593 4.24857 0.594438C4.37785 0.683177 4.50734 0.771598 4.63705 0.859689C4.69924 0.901923 4.76143 0.944157 4.8255 0.98767C5.09601 1.16019 5.38254 1.29693 5.67028 1.43771C5.87632 1.6036 5.87632 1.6036 5.99995 1.76949C5.99995 1.87898 5.99995 1.98846 5.99995 2.10127C5.51002 2.10451 5.0201 2.10646 4.53017 2.10818C4.39262 2.10911 4.25507 2.11004 4.11336 2.11099C3.3428 2.11302 2.5887 2.09026 1.82412 1.99068C1.72797 1.76949 1.72797 1.76949 1.71423 1.43771C1.85846 1.19613 2.02424 0.985686 2.20101 0.76724C2.39572 0.525462 2.55178 0.27099 2.70324 0Z" fill="white"/>
</svg>
