<svg width="84" height="42" viewBox="0 0 84 42" fill="none" xmlns="http://www.w3.org/2000/svg">
<path d="M55.0626 5.58858C55.2192 5.58705 55.3759 5.58551 55.5373 5.58392C55.7931 5.5829 55.7931 5.5829 56.0541 5.58186C56.2281 5.58095 56.4022 5.58004 56.5815 5.5791C56.9505 5.57758 57.3196 5.57654 57.6886 5.57592C58.2544 5.57437 58.82 5.56941 59.3858 5.56436C59.7436 5.56331 60.1014 5.56247 60.4592 5.56185C60.6291 5.55988 60.7991 5.5579 60.9741 5.55587C61.1318 5.55635 61.2894 5.55683 61.4518 5.55732C61.5906 5.55674 61.7295 5.55615 61.8725 5.55555C62.3016 5.62669 62.4313 5.74199 62.692 6.09457C63.1899 7.35805 63.4214 8.7049 63.6662 10.0393C63.7728 10.5591 63.9166 11.0131 64.114 11.5005C64.367 12.2101 64.5294 12.9521 64.7112 13.6839C64.806 14.0481 64.91 14.4099 65.0259 14.7675C65.1513 15.1584 65.2376 15.5241 65.306 15.9286C65.4515 16.7203 65.6542 17.4894 65.8626 18.2656C66.0607 19.0218 66.2046 19.7786 66.3323 20.5505C66.4765 21.4225 66.6819 22.2016 67.065 22.9965C67.2396 23.5604 67.2017 24.0715 67.1842 24.6622C66.6034 24.6762 66.0225 24.6847 65.4416 24.6922C65.1945 24.6983 65.1945 24.6983 64.9424 24.7044C64.7836 24.706 64.6249 24.7075 64.4613 24.7091C64.2423 24.7129 64.2423 24.7129 64.0188 24.7167C63.5484 24.6522 63.3427 24.5179 63.0018 24.182C62.856 23.7768 62.856 23.7768 62.7598 23.3016C62.7226 23.1287 62.6855 22.9558 62.6472 22.7777C62.6109 22.6073 62.5746 22.4368 62.5371 22.2612C62.4647 21.9873 62.3905 21.7138 62.3144 21.4409C62.097 20.6259 61.9127 19.8046 61.7335 18.9799C61.7058 18.8534 61.6781 18.7269 61.6495 18.5965C61.5435 18.1017 61.4528 17.6475 61.4528 17.1391C61.3505 17.1391 61.2483 17.1391 61.143 17.1391C61.1148 16.9631 61.0867 16.7871 61.0577 16.6058C60.8638 15.4189 60.6573 14.2555 60.3303 13.0987C60.1418 12.3861 60.0058 11.6624 59.8644 10.9384C59.7397 10.3366 59.7397 10.3366 59.439 9.45596C58.6722 9.45596 57.9055 9.45596 57.1155 9.45596C56.8889 10.0413 56.7316 10.5225 56.6023 11.1266C56.543 11.3987 56.543 11.3987 56.4825 11.6762C56.4061 12.0322 56.3301 12.3882 56.2542 12.7443C55.9144 14.3372 55.5736 15.9124 55.0884 17.4655C54.7394 18.6336 54.4685 19.756 54.4821 20.9807C54.6353 20.983 54.7885 20.9854 54.9464 20.9878C55.514 20.997 56.0815 21.0094 56.6491 21.0227C56.8949 21.028 57.1407 21.0325 57.3865 21.0361C57.7396 21.0415 58.0925 21.0499 58.4455 21.0589C58.5557 21.0599 58.6659 21.0609 58.7794 21.062C59.0895 21.0716 59.0895 21.0716 59.5939 21.1408C59.9175 21.6422 59.9424 21.7571 59.9394 22.3275C59.9391 22.4624 59.9388 22.5974 59.9385 22.7364C59.9366 22.8767 59.9347 23.017 59.9328 23.1616C59.9326 23.3739 59.9326 23.3739 59.9325 23.5905C59.9255 24.6397 59.9255 24.6397 59.7488 24.8223C59.5316 24.8418 59.3134 24.8507 59.0954 24.8551C58.8864 24.8599 58.8864 24.8599 58.6731 24.8648C58.5205 24.8675 58.3679 24.8702 58.2107 24.8729C58.0528 24.8762 57.895 24.8796 57.7324 24.883C57.3956 24.8899 57.0588 24.8965 56.7221 24.9027C56.2172 24.9121 55.7124 24.9226 55.2076 24.9333C53.6746 24.9647 52.1415 24.9896 50.6083 24.9967C50.4842 24.9978 50.3601 24.9989 50.2323 25C49.9449 25.0004 49.6575 24.9923 49.3702 24.9823C49.2153 24.8223 49.2153 24.8223 49.2002 24.4915C49.202 24.3597 49.2038 24.2278 49.2056 24.092C49.207 23.9597 49.2084 23.8275 49.2099 23.6912C49.2117 23.589 49.2135 23.4869 49.2153 23.3817C49.3176 23.3817 49.4198 23.3817 49.5251 23.3817C49.5309 23.2736 49.5367 23.1654 49.5427 23.054C49.5529 22.9113 49.563 22.7685 49.5735 22.6214C49.5825 22.4802 49.5915 22.3391 49.6008 22.1937C49.68 21.781 49.68 21.781 49.8997 21.4815C50.2335 21.0174 50.3317 20.5239 50.4546 19.9703C50.4805 19.8587 50.5064 19.7472 50.5331 19.6322C50.7584 18.6469 50.951 17.6553 51.1341 16.6608C51.2291 16.1787 51.2291 16.1787 51.384 15.6985C51.4862 15.6985 51.5885 15.6985 51.6938 15.6985C51.6971 15.5497 51.6971 15.5497 51.7005 15.3978C51.7542 14.3674 51.9719 13.4979 52.3113 12.5294C52.6521 11.5232 52.8437 10.4991 53.021 9.45037C53.163 8.63868 53.3726 7.96371 53.7076 7.21503C53.795 6.95619 53.8796 6.69623 53.9593 6.43471C54.1964 5.65755 54.2644 5.59488 55.0626 5.58858Z" fill="#DEDEDE"/>
<path d="M80.2739 3.68792C81.5025 4.39928 82.3766 5.76736 83.0685 7.18978C83.1726 7.7775 83.1726 7.7775 83.2073 8.23462C83.2989 8.23462 83.3905 8.23462 83.4849 8.23462C83.4849 8.52195 83.4849 8.80928 83.4849 9.10532C82.924 9.14086 82.3633 9.16242 81.8019 9.18151C81.5641 9.19683 81.5641 9.19683 81.3215 9.21246C80.1571 9.24219 80.1571 9.24219 79.7361 8.83735C79.5203 8.50672 79.5203 8.50672 79.3538 8.17476C79.0561 7.67519 78.6832 7.64485 78.2103 7.53806C78.2103 7.42313 78.2103 7.30819 78.2103 7.18978C77.8169 7.17554 77.4239 7.16525 77.0305 7.15713C76.9206 7.15275 76.8107 7.14837 76.6976 7.14386C75.7701 7.12956 75.0375 7.34286 74.2544 8.00606C73.9483 8.59802 73.9719 9.11587 74.0462 9.80188C74.1687 10.2885 74.2367 10.4385 74.5927 10.6835C74.6872 10.7373 74.7817 10.7912 74.879 10.8467C74.9424 10.9318 75.0058 11.0169 75.0711 11.1046C75.3281 11.4077 75.499 11.4808 75.8387 11.5861C75.9437 11.6202 76.0488 11.6543 76.157 11.6894C76.2678 11.7238 76.3785 11.7582 76.4926 11.7936C77.2956 12.0552 78.0294 12.3437 78.7758 12.8038C79.0764 12.9529 79.3285 12.9864 79.6504 13.0126C81.0337 13.1459 82.2494 14.189 83.2138 15.3757C83.9718 16.4979 84.0496 17.5679 83.9799 18.983C83.889 20.0623 83.5968 21.028 83.2073 21.9917C83.1227 22.222 83.1227 22.222 83.0365 22.457C82.7605 22.9125 82.5119 23.0563 82.0897 23.2541C81.8061 23.3912 81.5458 23.5554 81.2776 23.7345C81.1855 23.7949 81.0934 23.8552 80.9986 23.9175C80.8111 24.0413 80.6243 24.1664 80.438 24.293C79.7953 24.7106 79.2141 24.9071 78.4879 24.9521C78.3699 24.9597 78.252 24.9673 78.1304 24.9751C75.9148 25.0815 74.156 24.8998 72.2417 23.3848C72.0929 23.2735 71.944 23.1622 71.7906 23.0474C70.8853 22.1956 70.3474 21.0058 69.882 19.7279C69.882 19.5555 69.882 19.3831 69.882 19.2055C69.7904 19.2055 69.6988 19.2055 69.6044 19.2055C69.5985 18.8573 69.5988 18.5088 69.6044 18.1606C69.9297 17.7526 70.7125 17.9376 71.1486 17.9321C71.344 17.9245 71.344 17.9245 71.5434 17.9168C72.4099 17.9069 72.9288 18.029 73.6298 18.683C73.8266 18.9932 73.8266 18.9932 73.9334 19.2925C74.3326 20.2596 74.7033 20.6379 75.5227 21.01C76.1167 21.211 76.705 21.2032 77.3168 21.1972C77.4426 21.2007 77.5685 21.2042 77.6982 21.2077C78.6931 21.2068 79.1987 20.9097 80.0028 20.185C80.2348 19.7495 80.2086 19.374 80.2056 18.8572C80.2067 18.674 80.2078 18.4908 80.2089 18.3021C80.1855 17.8175 80.1855 17.8175 79.9784 17.513C79.7121 17.2668 79.4457 17.0553 79.1559 16.8546C79.0566 16.7845 78.9573 16.7145 78.855 16.6423C77.937 16.0843 77.0339 15.7857 76.0328 15.5594C73.7923 15.0128 72.2774 14.4485 70.8537 12.0657C70.5006 11.3019 70.5251 10.6222 70.524 9.75835C70.5206 9.61536 70.5172 9.47236 70.5137 9.32504C70.5097 8.26588 70.713 7.57503 71.1313 6.66736C71.2215 6.39798 71.2215 6.39798 71.3135 6.12317C71.5819 5.54941 71.883 5.2286 72.2938 4.81848C72.5396 4.57834 72.5396 4.57834 72.7275 4.18586C73.0478 3.71709 73.4391 3.6822 73.9074 3.53283C74.0219 3.44528 74.1364 3.35774 74.2544 3.26754C75.9835 2.35238 78.5624 2.85136 80.2739 3.68792Z" fill="#DDDDDD"/>
<path d="M1.34733 5.57612C4.2645 5.54293 7.18004 5.53111 10.0946 5.69059C10.3383 5.70391 10.5821 5.71643 10.8259 5.72815C11.1655 5.74492 11.5047 5.76498 11.8441 5.78622C12.0365 5.79749 12.2288 5.80875 12.427 5.82036C12.6485 5.8633 12.6485 5.8633 12.8745 5.90711C13.2085 6.46111 13.2085 6.62066 13.1965 7.2646C13.1927 7.52812 13.1927 7.52812 13.1888 7.79697C13.1845 7.98677 13.1801 8.17658 13.1756 8.37214C13.1722 8.56745 13.1688 8.76275 13.1653 8.96398C13.1579 9.3776 13.1496 9.7912 13.1407 10.2048C13.1272 10.8367 13.116 11.4687 13.1052 12.1007C13.0976 12.5025 13.0899 12.9043 13.0821 13.3061C13.0769 13.5893 13.0769 13.5893 13.0716 13.8782C13.0677 14.0554 13.0637 14.2327 13.0597 14.4153C13.0564 14.5704 13.0532 14.7254 13.0499 14.8852C13.0221 15.3767 12.9514 15.8488 12.8745 16.3335C12.8603 16.6218 12.8515 16.9105 12.8481 17.1992C12.7803 20.5844 12.7803 20.5844 12.1259 21.9605C12.0271 21.9605 11.9283 21.9605 11.8265 21.9605C11.771 22.1551 11.771 22.1551 11.7143 22.3536C11.494 22.8649 11.3665 22.8768 10.9283 23.119C10.8789 23.2555 10.8295 23.3921 10.7786 23.5327C10.6289 23.9465 10.6289 23.9465 10.3202 24.143C10.1766 24.2096 10.1766 24.2096 10.0301 24.2775C9.9807 24.3867 9.9313 24.4959 9.8804 24.6085C9.00305 24.9202 8.15652 24.9778 7.24188 24.9912C7.08109 24.9956 7.08109 24.9956 6.91704 25C5.85914 24.9987 5.04974 24.594 4.2104 23.8844C4.03961 23.7443 4.03961 23.7443 3.86538 23.6013C3.54127 23.2245 3.49229 22.9667 3.44317 22.457C3.34437 22.457 3.24556 22.457 3.14376 22.457C3.0851 22.2966 3.02643 22.1361 2.96599 21.9708C2.72471 21.3416 2.42477 20.7615 2.10871 20.1749C1.93228 19.7778 1.85863 19.417 1.79644 18.9815C1.69763 18.9815 1.59883 18.9815 1.49703 18.9815C1.44203 18.6935 1.44203 18.6935 1.38592 18.3997C1.21706 17.6523 0.927284 17.0381 0.580099 16.3749C0 15.2632 0 15.2632 0 14.513C3.15624 14.7651 3.15624 14.7651 4.34139 16.0025C4.54754 16.2724 4.74966 16.5465 4.9402 16.83C5.08841 16.912 5.08841 16.912 5.23961 16.9955C5.58359 17.9367 5.74889 18.9464 5.91736 19.9402C5.99891 20.3612 6.12293 20.7431 6.28753 21.133C6.49926 21.17 6.71144 21.2039 6.92377 21.2364C7.04187 21.2556 7.15997 21.2748 7.28165 21.2946C7.68881 21.2991 7.89593 21.2142 8.23367 20.9675C8.35422 20.6282 8.35422 20.6282 8.38337 20.3055C8.53158 20.3055 8.67978 20.3055 8.83248 20.3055C8.88188 17.6294 8.93128 14.9533 8.98218 12.1961C10.1798 11.5341 10.1798 11.5341 10.6196 11.3686C10.7214 11.314 10.8233 11.2593 10.9283 11.2031C11.0267 10.8681 11.0267 10.8681 11.078 10.5411C10.9285 10.5191 10.7789 10.4971 10.6248 10.4745C10.4317 10.4453 10.2385 10.416 10.0395 10.3859C9.84668 10.3571 9.65389 10.3283 9.45527 10.2986C8.98218 10.2101 8.98218 10.2101 8.83248 10.0446C8.54918 10.0139 8.26518 9.99111 7.98104 9.97218C7.32194 9.91833 6.75359 9.83173 6.13782 9.54809C6.13782 9.43886 6.13782 9.32963 6.13782 9.21709C6.00506 9.17613 5.87229 9.13517 5.7355 9.09296C5.21426 8.87552 4.91711 8.61465 4.49109 8.2241C4.14734 7.99036 3.79711 7.77693 3.44317 7.5621C3.44317 7.45287 3.44317 7.34364 3.44317 7.2311C3.34745 7.19356 3.25174 7.15601 3.15312 7.11732C2.52501 6.81973 1.9403 6.4468 1.34733 6.07261C1.34733 5.90877 1.34733 5.74492 1.34733 5.57612Z" fill="#D6D6D6"/>
<path d="M17.2901 5.59585C17.4318 5.59252 17.5735 5.5892 17.7196 5.58577C19.0256 5.57787 19.0256 5.57787 19.6269 6.11979C19.7569 6.23107 19.7569 6.23107 19.8894 6.3446C20.129 6.68428 20.1458 6.93549 20.174 7.35911C20.1886 7.55456 20.1886 7.55456 20.2036 7.75396C20.2091 7.85308 20.2147 7.95221 20.2204 8.05434C20.3673 8.05434 20.5141 8.05434 20.6655 8.05434C20.888 8.36732 20.888 8.36732 21.1106 8.78988C21.1884 8.93701 21.2663 9.08414 21.3465 9.23573C21.5145 9.58176 21.6578 9.91716 21.7875 10.2811C21.9765 10.8173 21.9765 10.8173 22.381 11.2081C22.7832 11.6451 22.9 11.9764 23.0394 12.5683C23.1373 12.5683 23.2352 12.5683 23.3361 12.5683C23.434 12.9407 23.5319 13.3131 23.6328 13.6968C23.8287 13.6968 24.0245 13.6968 24.2263 13.6968C24.2906 13.5305 24.3548 13.3643 24.421 13.193C25.0134 11.7041 25.0134 11.7041 25.393 11.3246C25.7944 10.8581 26.0192 10.3388 26.2664 9.76723C26.6669 8.87357 27.0749 7.98696 27.5182 7.11729C27.6091 6.9367 27.6999 6.75611 27.7935 6.57005C28.1126 6.07519 28.3308 5.90021 28.8257 5.63615C29.2368 5.58124 29.2368 5.58124 29.6771 5.58892C29.9145 5.59126 29.9145 5.59126 30.1567 5.59364C30.4021 5.59972 30.4021 5.59972 30.6525 5.60592C30.819 5.6081 30.9855 5.61029 31.157 5.61253C31.5669 5.61822 31.9767 5.62617 32.3866 5.63615C32.4302 6.35819 32.3884 6.72058 31.96 7.2785C31.8808 7.38387 31.8016 7.48923 31.7201 7.59778C31.6462 7.69525 31.5724 7.79271 31.4963 7.89313C31.3984 8.05273 31.3005 8.21233 31.1996 8.37677C31.1017 8.37677 31.0038 8.37677 30.9029 8.37677C30.8049 8.69597 30.707 9.01517 30.6061 9.34405C30.5082 9.34405 30.4103 9.34405 30.3094 9.34405C30.2683 9.45917 30.2272 9.5743 30.1848 9.69292C29.7039 10.9701 29.0899 12.1772 28.4455 13.3643C28.3916 13.4653 28.3376 13.5662 28.2821 13.6703C27.9313 14.3057 27.5405 14.7926 27.0453 15.3089C26.2453 16.78 25.9902 18.342 25.9598 20.0225C25.9552 20.2355 25.9552 20.2355 25.9504 20.4528C25.9408 20.9045 25.932 21.3561 25.9233 21.8078C25.9169 22.1148 25.9104 22.4218 25.9039 22.7288C25.888 23.4798 25.873 24.2307 25.8584 24.9817C25.268 24.9863 24.6776 24.9892 24.0872 24.9918C23.8343 24.9938 23.8343 24.9938 23.5763 24.9959C23.4162 24.9964 23.256 24.9969 23.0909 24.9974C22.8683 24.9987 22.8683 24.9987 22.6412 25C22.2975 24.9817 22.2975 24.9817 22.1492 24.8205C22.1308 24.3375 22.1215 23.8578 22.1179 23.3746C22.1137 23.0732 22.1094 22.7717 22.1051 22.4703C22.099 21.9945 22.0935 21.5188 22.0896 21.043C22.0855 20.5842 22.0787 20.1255 22.0715 19.6667C22.071 19.5266 22.0705 19.3865 22.07 19.2421C22.0473 17.9948 21.822 16.9477 21.1106 15.9538C21.1106 15.741 21.1106 15.5282 21.1106 15.3089C20.9147 15.3089 20.7189 15.3089 20.5171 15.3089C20.4192 14.9365 20.3213 14.5641 20.2204 14.1804C20.1224 14.1804 20.0245 14.1804 19.9236 14.1804C19.8747 13.9676 19.8257 13.7548 19.7753 13.5356C19.6773 13.5356 19.5794 13.5356 19.4785 13.5356C19.4632 13.4325 19.4479 13.3294 19.4322 13.2232C19.3985 13.1135 19.3648 13.0038 19.3302 12.8907C19.1098 12.8109 19.1098 12.8109 18.8851 12.7295C18.7367 12.3769 18.7367 12.3769 18.5883 11.9235C18.3054 11.2299 18.3054 11.2299 17.8465 10.6741C17.444 10.1821 17.3619 9.67762 17.2246 9.04492C17.1652 8.87379 17.1652 8.87379 17.1046 8.69919C16.9578 8.64599 16.8109 8.59279 16.6595 8.53798C16.4642 8.18092 16.4642 8.18092 16.2793 7.74199C16.0179 7.12241 16.0179 7.12241 15.621 6.60343C15.5931 6.19032 15.5931 6.19032 15.621 5.79736C15.9693 5.41885 16.8227 5.59854 17.2901 5.59585Z" fill="#DEDEDE"/>
<path d="M35.4786 5.55555C37.5641 5.55555 39.6495 5.55555 41.7981 5.55555C41.9602 6.19689 41.9602 6.19689 41.7475 6.63781C41.6573 6.75686 41.567 6.87591 41.4741 6.99856C41.3671 6.99856 41.2602 6.99856 41.15 6.99856C41.15 7.10439 41.15 7.21021 41.15 7.31923C41.0297 7.38868 40.9094 7.45812 40.7854 7.52967C40.2689 7.8433 40.0207 8.0973 39.6916 8.60191C39.6322 9.03774 39.6092 9.40666 39.6181 9.84094C39.618 9.96304 39.6179 10.0851 39.6178 10.2109C39.6182 10.6127 39.6232 11.0142 39.6283 11.4159C39.6295 11.6952 39.6305 11.9744 39.6311 12.2536C39.6336 12.9872 39.64 13.7207 39.6471 14.4543C39.6538 15.2034 39.6567 15.9525 39.66 16.7016C39.6669 18.1705 39.678 19.6392 39.6916 21.108C39.7904 21.1093 39.8891 21.1106 39.9909 21.1119C41.016 21.1257 42.0411 21.1417 43.0661 21.1589C43.449 21.165 43.8319 21.1706 44.2148 21.1756C44.7642 21.1829 45.3136 21.1922 45.863 21.202C46.035 21.2038 46.207 21.2057 46.3842 21.2076C46.5432 21.2108 46.7021 21.2139 46.8659 21.2172C47.0764 21.2204 47.0764 21.2204 47.2911 21.2237C47.6315 21.2683 47.6315 21.2683 47.9556 21.589C47.9975 21.9 47.9975 21.9 47.9986 22.2754C47.9993 22.4779 47.9993 22.4779 47.9999 22.6844C47.9987 22.8256 47.9974 22.9667 47.9961 23.1122C47.998 23.3239 47.998 23.3239 47.9999 23.54C47.9995 23.6749 47.9991 23.8099 47.9986 23.9489C47.9983 24.0728 47.9979 24.1967 47.9975 24.3244C47.9556 24.6354 47.9556 24.6354 47.6315 24.956C47.1395 24.9968 47.1395 24.9968 46.4991 24.9975C46.3244 24.9984 46.3244 24.9984 46.1462 24.9992C45.7602 25.0006 45.3743 24.9997 44.9883 24.9986C44.7207 24.9988 44.4531 24.9992 44.1855 24.9996C43.6243 25 43.063 24.9993 42.5018 24.9978C41.7815 24.996 41.0611 24.9971 40.3407 24.999C39.788 25.0001 39.2354 24.9998 38.6827 24.9989C38.417 24.9987 38.1513 24.999 37.8857 24.9997C37.5148 25.0006 37.1439 24.9993 36.773 24.9975C36.5617 24.9973 36.3504 24.997 36.1327 24.9968C35.6407 24.956 35.6407 24.956 35.3166 24.6354C35.2776 24.262 35.2776 24.262 35.2798 23.7895C35.2798 23.6129 35.2799 23.4364 35.2799 23.2545C35.2824 22.9677 35.2824 22.9677 35.2849 22.675C35.2854 22.4797 35.2859 22.2845 35.2863 22.0833C35.2882 21.4575 35.2922 20.8318 35.2963 20.2061C35.298 19.7827 35.2994 19.3594 35.3008 18.936C35.3044 17.8963 35.3099 16.8566 35.3166 15.817C34.3541 15.817 33.3916 15.817 32.3999 15.817C32.5876 14.8884 32.9032 14.3654 33.6873 13.8435C33.8622 13.7368 33.8622 13.7368 34.0405 13.628C34.888 13.0785 35.5801 12.4208 36.2888 11.7084C36.4123 11.5881 36.5357 11.4678 36.6629 11.3439C36.7801 11.2273 36.8973 11.1107 37.018 10.9906C37.1233 10.8859 37.2285 10.7812 37.337 10.6733C37.6385 10.3431 37.6385 10.3431 37.7472 9.72425C36.9451 9.72425 36.143 9.72425 35.3166 9.72425C35.3122 9.11965 35.309 8.51508 35.3065 7.91047C35.3051 7.73861 35.3038 7.56676 35.3024 7.38969C35.3018 7.22487 35.3013 7.06004 35.3008 6.89021C35.2999 6.73824 35.2991 6.58626 35.2982 6.42968C35.3166 6.03656 35.3166 6.03656 35.4786 5.55555Z" fill="#E0E0E0"/>
<path d="M3.78452 0C4.68228 0.0629005 5.21685 0.298148 5.94798 0.782156C6.12896 0.898917 6.31025 1.01526 6.49185 1.13117C6.57891 1.18674 6.66597 1.24231 6.75567 1.29957C7.13439 1.52656 7.53553 1.70648 7.93836 1.89172C8.22683 2.11 8.22683 2.11 8.3999 2.32828C8.3999 2.47234 8.3999 2.6164 8.3999 2.76483C7.71401 2.7691 7.02812 2.77166 6.34221 2.77392C6.14964 2.77514 5.95708 2.77636 5.75868 2.77762C4.67989 2.78029 3.62416 2.75034 2.55375 2.61931C2.41913 2.32828 2.41913 2.32828 2.3999 1.89172C2.60181 1.57385 2.83391 1.29695 3.08139 1.00953C3.35399 0.691397 3.57247 0.356566 3.78452 0Z" fill="#D0D0D0"/>
<path d="M4.16 39V31.46H0.988V29.9H9.113V31.46H5.85V39H4.16ZM19.9985 39.078C19.1491 39.078 18.3995 38.9003 17.7495 38.545C17.0995 38.181 16.5881 37.6913 16.2155 37.076C15.8515 36.452 15.6695 35.7457 15.6695 34.957V29.887H17.3725V34.879C17.3725 35.3817 17.4895 35.8323 17.7235 36.231C17.9575 36.621 18.2738 36.933 18.6725 37.167C19.0798 37.3923 19.5218 37.505 19.9985 37.505C20.5185 37.505 20.9821 37.3923 21.3895 37.167C21.7968 36.933 22.1175 36.621 22.3515 36.231C22.5855 35.8323 22.7025 35.3817 22.7025 34.879V29.887H24.3405V34.957C24.3405 35.7457 24.1541 36.452 23.7815 37.076C23.4175 37.6913 22.9105 38.181 22.2605 38.545C21.6191 38.9003 20.8651 39.078 19.9985 39.078ZM31.8458 39V29.9H33.4448L39.8928 37.011L39.6848 37.063C39.6502 36.7943 39.6155 36.517 39.5808 36.231C39.5548 35.945 39.5332 35.659 39.5158 35.373C39.4985 35.0783 39.4812 34.7793 39.4638 34.476C39.4552 34.1727 39.4465 33.8693 39.4378 33.566C39.4292 33.254 39.4248 32.942 39.4248 32.63V29.9H41.1018V39H39.4768L33.0028 31.993L33.2628 31.902C33.2888 32.1707 33.3105 32.4307 33.3278 32.682C33.3538 32.9333 33.3798 33.1803 33.4058 33.423C33.4318 33.657 33.4492 33.891 33.4578 34.125C33.4752 34.3503 33.4882 34.5757 33.4968 34.801C33.5142 35.0263 33.5228 35.2517 33.5228 35.477V39H31.8458ZM47.8334 39V29.64H49.6014V39H47.8334ZM56.3341 39V29.9H57.9331L64.3811 37.011L64.1731 37.063C64.1384 36.7943 64.1037 36.517 64.0691 36.231C64.0431 35.945 64.0214 35.659 64.0041 35.373C63.9867 35.0783 63.9694 34.7793 63.9521 34.476C63.9434 34.1727 63.9347 33.8693 63.9261 33.566C63.9174 33.254 63.9131 32.942 63.9131 32.63V29.9H65.5901V39H63.9651L57.4911 31.993L57.7511 31.902C57.7771 32.1707 57.7987 32.4307 57.8161 32.682C57.8421 32.9333 57.8681 33.1803 57.8941 33.423C57.9201 33.657 57.9374 33.891 57.9461 34.125C57.9634 34.3503 57.9764 34.5757 57.9851 34.801C58.0024 35.0263 58.0111 35.2517 58.0111 35.477V39H56.3341ZM77.7426 39.13C77.0233 39.13 76.3473 39.026 75.7146 38.818C75.0906 38.6013 74.5403 38.2937 74.0636 37.895C73.587 37.4877 73.2143 36.9937 72.9456 36.413C72.677 35.8323 72.5426 35.1737 72.5426 34.437C72.5426 33.7783 72.677 33.1673 72.9456 32.604C73.223 32.032 73.6043 31.538 74.0896 31.122C74.575 30.6973 75.1426 30.368 75.7926 30.134C76.4513 29.9 77.1576 29.783 77.9116 29.783C78.5096 29.783 79.0686 29.8567 79.5886 30.004C80.1173 30.1427 80.581 30.329 80.9796 30.563C81.387 30.797 81.712 31.0483 81.9546 31.317L80.8886 32.487C80.6113 32.253 80.3166 32.058 80.0046 31.902C79.6926 31.7373 79.359 31.6073 79.0036 31.512C78.657 31.408 78.2886 31.356 77.8986 31.356C77.396 31.356 76.9236 31.434 76.4816 31.59C76.0483 31.746 75.6713 31.9627 75.3506 32.24C75.03 32.5173 74.7743 32.8423 74.5836 33.215C74.4016 33.5877 74.3106 33.995 74.3106 34.437C74.3106 34.9483 74.406 35.399 74.5966 35.789C74.7873 36.179 75.0473 36.504 75.3766 36.764C75.7146 37.024 76.1003 37.2233 76.5336 37.362C76.967 37.492 77.4133 37.557 77.8726 37.557C78.3146 37.557 78.7263 37.5093 79.1076 37.414C79.489 37.3187 79.8183 37.1843 80.0956 37.011C80.3816 36.8377 80.6026 36.634 80.7586 36.4C80.9233 36.166 80.997 35.9147 80.9796 35.646V35.412L81.2136 35.75H77.8206V34.255H82.6956C82.713 34.3763 82.726 34.4933 82.7346 34.606C82.7433 34.71 82.7476 34.8053 82.7476 34.892C82.7476 34.97 82.7476 35.0307 82.7476 35.074C82.7476 35.7327 82.6263 36.3133 82.3836 36.816C82.141 37.3187 81.7943 37.7433 81.3436 38.09C80.893 38.428 80.36 38.688 79.7446 38.87C79.138 39.0433 78.4706 39.13 77.7426 39.13Z" fill="#F1B83F"/>
</svg>
